<svg width="363" height="194" viewBox="0 0 363 194" fill="none" xmlns="http://www.w3.org/2000/svg">
<g filter="url(#filter0_d_474_406)">
<rect x="44.8047" y="34.8508" width="129.965" height="115.443" rx="18.8606" fill="white"/>
<rect x="44.8047" y="34.8508" width="129.965" height="115.443" rx="18.8606" fill="white"/>
<rect x="45.9141" y="35.9603" width="127.746" height="113.224" rx="17.7511" stroke="#8088C1" stroke-width="2.21889"/>
</g>
<path d="M71.1098 105.859C70.2898 105.859 69.5348 105.724 68.8448 105.454C68.1548 105.184 67.5548 104.809 67.0448 104.329C66.5348 103.839 66.1398 103.269 65.8598 102.619C65.5798 101.959 65.4398 101.239 65.4398 100.459C65.4398 99.679 65.5798 98.964 65.8598 98.314C66.1398 97.654 66.5348 97.084 67.0448 96.604C67.5548 96.114 68.1548 95.734 68.8448 95.464C69.5348 95.194 70.2848 95.059 71.0948 95.059C71.9148 95.059 72.6648 95.194 73.3448 95.464C74.0348 95.734 74.6348 96.114 75.1448 96.604C75.6548 97.084 76.0498 97.654 76.3298 98.314C76.6098 98.964 76.7498 99.679 76.7498 100.459C76.7498 101.239 76.6098 101.959 76.3298 102.619C76.0498 103.279 75.6548 103.849 75.1448 104.329C74.6348 104.809 74.0348 105.184 73.3448 105.454C72.6648 105.724 71.9198 105.859 71.1098 105.859ZM71.0948 104.149C71.6248 104.149 72.1148 104.059 72.5648 103.879C73.0148 103.699 73.4048 103.444 73.7348 103.114C74.0648 102.774 74.3198 102.384 74.4998 101.944C74.6898 101.494 74.7848 100.999 74.7848 100.459C74.7848 99.919 74.6898 99.429 74.4998 98.989C74.3198 98.539 74.0648 98.149 73.7348 97.819C73.4048 97.479 73.0148 97.219 72.5648 97.039C72.1148 96.859 71.6248 96.769 71.0948 96.769C70.5648 96.769 70.0748 96.859 69.6248 97.039C69.1848 97.219 68.7948 97.479 68.4548 97.819C68.1248 98.149 67.8648 98.539 67.6748 98.989C67.4948 99.429 67.4048 99.919 67.4048 100.459C67.4048 100.989 67.4948 101.479 67.6748 101.929C67.8648 102.379 68.1248 102.774 68.4548 103.114C68.7848 103.444 69.1748 103.699 69.6248 103.879C70.0748 104.059 70.5648 104.149 71.0948 104.149ZM80.8002 105.709V96.859H77.3202V95.209H86.2302V96.859H82.7502V105.709H80.8002ZM92.4072 105.859C91.6072 105.859 90.8622 105.729 90.1722 105.469C89.4922 105.199 88.8972 104.824 88.3872 104.344C87.8872 103.854 87.4972 103.279 87.2172 102.619C86.9372 101.959 86.7972 101.239 86.7972 100.459C86.7972 99.679 86.9372 98.959 87.2172 98.299C87.4972 97.639 87.8922 97.069 88.4022 96.589C88.9122 96.099 89.5072 95.724 90.1872 95.464C90.8672 95.194 91.6122 95.059 92.4222 95.059C93.2822 95.059 94.0672 95.209 94.7772 95.509C95.4872 95.799 96.0872 96.234 96.5772 96.814L95.3172 97.999C94.9372 97.589 94.5122 97.284 94.0422 97.084C93.5722 96.874 93.0622 96.769 92.5122 96.769C91.9622 96.769 91.4572 96.859 90.9972 97.039C90.5472 97.219 90.1522 97.474 89.8122 97.804C89.4822 98.134 89.2222 98.524 89.0322 98.974C88.8522 99.424 88.7622 99.919 88.7622 100.459C88.7622 100.999 88.8522 101.494 89.0322 101.944C89.2222 102.394 89.4822 102.784 89.8122 103.114C90.1522 103.444 90.5472 103.699 90.9972 103.879C91.4572 104.059 91.9622 104.149 92.5122 104.149C93.0622 104.149 93.5722 104.049 94.0422 103.849C94.5122 103.639 94.9372 103.324 95.3172 102.904L96.5772 104.104C96.0872 104.674 95.4872 105.109 94.7772 105.409C94.0672 105.709 93.2772 105.859 92.4072 105.859ZM106.881 105.814C106.231 105.814 105.636 105.664 105.096 105.364C104.566 105.064 104.141 104.614 103.821 104.014C103.511 103.404 103.356 102.634 103.356 101.704C103.356 100.764 103.506 99.994 103.806 99.394C104.116 98.794 104.536 98.349 105.066 98.059C105.596 97.759 106.201 97.609 106.881 97.609C107.671 97.609 108.366 97.779 108.966 98.119C109.576 98.459 110.056 98.934 110.406 99.544C110.766 100.154 110.946 100.874 110.946 101.704C110.946 102.534 110.766 103.259 110.406 103.879C110.056 104.489 109.576 104.964 108.966 105.304C108.366 105.644 107.671 105.814 106.881 105.814ZM102.441 108.619V97.699H104.226V99.589L104.166 101.719L104.316 103.849V108.619H102.441ZM106.671 104.209C107.121 104.209 107.521 104.109 107.871 103.909C108.231 103.709 108.516 103.419 108.726 103.039C108.936 102.659 109.041 102.214 109.041 101.704C109.041 101.184 108.936 100.739 108.726 100.369C108.516 99.989 108.231 99.699 107.871 99.499C107.521 99.299 107.121 99.199 106.671 99.199C106.221 99.199 105.816 99.299 105.456 99.499C105.096 99.699 104.811 99.989 104.601 100.369C104.391 100.739 104.286 101.184 104.286 101.704C104.286 102.214 104.391 102.659 104.601 103.039C104.811 103.419 105.096 103.709 105.456 103.909C105.816 104.109 106.221 104.209 106.671 104.209ZM120.897 105.709V97.699H122.772V105.709H120.897ZM116.712 100.339C117.742 100.339 118.522 100.569 119.052 101.029C119.592 101.489 119.862 102.139 119.862 102.979C119.862 103.849 119.562 104.529 118.962 105.019C118.372 105.499 117.532 105.734 116.442 105.724L112.812 105.709V97.699H114.687V100.324L116.712 100.339ZM116.277 104.344C116.827 104.354 117.247 104.239 117.537 103.999C117.827 103.759 117.972 103.409 117.972 102.949C117.972 102.489 117.827 102.159 117.537 101.959C117.257 101.749 116.837 101.639 116.277 101.629L114.687 101.614V104.329L116.277 104.344ZM125.293 105.709V97.699H127.168V100.954H131.203V97.699H133.078V105.709H131.203V102.544H127.168V105.709H125.293ZM139.161 105.814C138.341 105.814 137.611 105.639 136.971 105.289C136.331 104.929 135.826 104.439 135.456 103.819C135.086 103.199 134.901 102.494 134.901 101.704C134.901 100.904 135.086 100.199 135.456 99.589C135.826 98.969 136.331 98.484 136.971 98.134C137.611 97.784 138.341 97.609 139.161 97.609C139.991 97.609 140.726 97.784 141.366 98.134C142.016 98.484 142.521 98.964 142.881 99.574C143.251 100.184 143.436 100.894 143.436 101.704C143.436 102.494 143.251 103.199 142.881 103.819C142.521 104.439 142.016 104.929 141.366 105.289C140.726 105.639 139.991 105.814 139.161 105.814ZM139.161 104.209C139.621 104.209 140.031 104.109 140.391 103.909C140.751 103.709 141.031 103.419 141.231 103.039C141.441 102.659 141.546 102.214 141.546 101.704C141.546 101.184 141.441 100.739 141.231 100.369C141.031 99.989 140.751 99.699 140.391 99.499C140.031 99.299 139.626 99.199 139.176 99.199C138.716 99.199 138.306 99.299 137.946 99.499C137.596 99.699 137.316 99.989 137.106 100.369C136.896 100.739 136.791 101.184 136.791 101.704C136.791 102.214 136.896 102.659 137.106 103.039C137.316 103.419 137.596 103.709 137.946 103.909C138.306 104.109 138.711 104.209 139.161 104.209ZM151.033 105.709L148.138 101.869L149.668 100.924L153.238 105.709H151.033ZM145.288 105.709V97.699H147.163V105.709H145.288ZM146.608 102.499V100.939H149.323V102.499H146.608ZM149.848 101.929L148.093 101.719L151.033 97.699H153.043L149.848 101.929Z" fill="#212121"/>
<g filter="url(#filter1_d_474_406)">
<rect x="54.1829" y="87.6807" width="110.431" height="25.4823" rx="12.7412" stroke="#212121" stroke-width="2.10794" shape-rendering="crispEdges"/>
</g>
<g filter="url(#filter2_d_474_406)">
<rect x="44" y="158" width="266" height="26.6721" rx="13.336" fill="url(#paint0_linear_474_406)"/>
<path d="M88.5843 177.229C87.7643 177.229 87.0093 177.094 86.3193 176.824C85.6293 176.554 85.0293 176.179 84.5193 175.699C84.0093 175.209 83.6143 174.639 83.3343 173.989C83.0543 173.329 82.9143 172.609 82.9143 171.829C82.9143 171.049 83.0543 170.334 83.3343 169.684C83.6143 169.024 84.0093 168.454 84.5193 167.974C85.0293 167.484 85.6293 167.104 86.3193 166.834C87.0093 166.564 87.7593 166.429 88.5693 166.429C89.3893 166.429 90.1393 166.564 90.8193 166.834C91.5093 167.104 92.1093 167.484 92.6193 167.974C93.1293 168.454 93.5243 169.024 93.8043 169.684C94.0843 170.334 94.2243 171.049 94.2243 171.829C94.2243 172.609 94.0843 173.329 93.8043 173.989C93.5243 174.649 93.1293 175.219 92.6193 175.699C92.1093 176.179 91.5093 176.554 90.8193 176.824C90.1393 177.094 89.3943 177.229 88.5843 177.229ZM88.5693 175.519C89.0993 175.519 89.5893 175.429 90.0393 175.249C90.4893 175.069 90.8793 174.814 91.2093 174.484C91.5393 174.144 91.7943 173.754 91.9743 173.314C92.1643 172.864 92.2593 172.369 92.2593 171.829C92.2593 171.289 92.1643 170.799 91.9743 170.359C91.7943 169.909 91.5393 169.519 91.2093 169.189C90.8793 168.849 90.4893 168.589 90.0393 168.409C89.5893 168.229 89.0993 168.139 88.5693 168.139C88.0393 168.139 87.5493 168.229 87.0993 168.409C86.6593 168.589 86.2693 168.849 85.9293 169.189C85.5993 169.519 85.3393 169.909 85.1493 170.359C84.9693 170.799 84.8793 171.289 84.8793 171.829C84.8793 172.359 84.9693 172.849 85.1493 173.299C85.3393 173.749 85.5993 174.144 85.9293 174.484C86.2593 174.814 86.6493 175.069 87.0993 175.249C87.5493 175.429 88.0393 175.519 88.5693 175.519ZM101.255 177.229C100.435 177.229 99.6802 177.094 98.9902 176.824C98.3002 176.554 97.7002 176.179 97.1902 175.699C96.6802 175.209 96.2852 174.639 96.0052 173.989C95.7252 173.329 95.5852 172.609 95.5852 171.829C95.5852 171.049 95.7252 170.334 96.0052 169.684C96.2852 169.024 96.6802 168.454 97.1902 167.974C97.7002 167.484 98.3002 167.104 98.9902 166.834C99.6802 166.564 100.43 166.429 101.24 166.429C102.06 166.429 102.81 166.564 103.49 166.834C104.18 167.104 104.78 167.484 105.29 167.974C105.8 168.454 106.195 169.024 106.475 169.684C106.755 170.334 106.895 171.049 106.895 171.829C106.895 172.609 106.755 173.329 106.475 173.989C106.195 174.649 105.8 175.219 105.29 175.699C104.78 176.179 104.18 176.554 103.49 176.824C102.81 177.094 102.065 177.229 101.255 177.229ZM101.24 175.519C101.77 175.519 102.26 175.429 102.71 175.249C103.16 175.069 103.55 174.814 103.88 174.484C104.21 174.144 104.465 173.754 104.645 173.314C104.835 172.864 104.93 172.369 104.93 171.829C104.93 171.289 104.835 170.799 104.645 170.359C104.465 169.909 104.21 169.519 103.88 169.189C103.55 168.849 103.16 168.589 102.71 168.409C102.26 168.229 101.77 168.139 101.24 168.139C100.71 168.139 100.22 168.229 99.7702 168.409C99.3302 168.589 98.9402 168.849 98.6002 169.189C98.2702 169.519 98.0102 169.909 97.8202 170.359C97.6402 170.799 97.5502 171.289 97.5502 171.829C97.5502 172.359 97.6402 172.849 97.8202 173.299C98.0102 173.749 98.2702 174.144 98.6002 174.484C98.9302 174.814 99.3202 175.069 99.7702 175.249C100.22 175.429 100.71 175.519 101.24 175.519ZM113.926 177.229C113.106 177.229 112.351 177.094 111.661 176.824C110.971 176.554 110.371 176.179 109.861 175.699C109.351 175.209 108.956 174.639 108.676 173.989C108.396 173.329 108.256 172.609 108.256 171.829C108.256 171.049 108.396 170.334 108.676 169.684C108.956 169.024 109.351 168.454 109.861 167.974C110.371 167.484 110.971 167.104 111.661 166.834C112.351 166.564 113.101 166.429 113.911 166.429C114.731 166.429 115.481 166.564 116.161 166.834C116.851 167.104 117.451 167.484 117.961 167.974C118.471 168.454 118.866 169.024 119.146 169.684C119.426 170.334 119.566 171.049 119.566 171.829C119.566 172.609 119.426 173.329 119.146 173.989C118.866 174.649 118.471 175.219 117.961 175.699C117.451 176.179 116.851 176.554 116.161 176.824C115.481 177.094 114.736 177.229 113.926 177.229ZM113.911 175.519C114.441 175.519 114.931 175.429 115.381 175.249C115.831 175.069 116.221 174.814 116.551 174.484C116.881 174.144 117.136 173.754 117.316 173.314C117.506 172.864 117.601 172.369 117.601 171.829C117.601 171.289 117.506 170.799 117.316 170.359C117.136 169.909 116.881 169.519 116.551 169.189C116.221 168.849 115.831 168.589 115.381 168.409C114.931 168.229 114.441 168.139 113.911 168.139C113.381 168.139 112.891 168.229 112.441 168.409C112.001 168.589 111.611 168.849 111.271 169.189C110.941 169.519 110.681 169.909 110.491 170.359C110.311 170.799 110.221 171.289 110.221 171.829C110.221 172.359 110.311 172.849 110.491 173.299C110.681 173.749 110.941 174.144 111.271 174.484C111.601 174.814 111.991 175.069 112.441 175.249C112.891 175.429 113.381 175.519 113.911 175.519ZM127.322 165.949L126.452 169.279L126.212 168.154C126.562 168.154 126.852 168.264 127.082 168.484C127.312 168.704 127.427 168.999 127.427 169.369C127.427 169.739 127.312 170.039 127.082 170.269C126.852 170.489 126.567 170.599 126.227 170.599C125.867 170.599 125.572 170.484 125.342 170.254C125.112 170.024 124.997 169.729 124.997 169.369C124.997 169.249 125.002 169.139 125.012 169.039C125.032 168.929 125.067 168.799 125.117 168.649C125.167 168.499 125.237 168.309 125.327 168.079L126.122 165.949H127.322ZM130.502 165.949L129.632 169.279L129.392 168.154C129.742 168.154 130.032 168.264 130.262 168.484C130.492 168.704 130.607 168.999 130.607 169.369C130.607 169.739 130.492 170.039 130.262 170.269C130.032 170.489 129.747 170.599 129.407 170.599C129.047 170.599 128.752 170.484 128.522 170.254C128.292 170.024 128.177 169.729 128.177 169.369C128.177 169.249 128.182 169.139 128.192 169.039C128.212 168.929 128.247 168.799 128.297 168.649C128.347 168.499 128.417 168.309 128.507 168.079L129.302 165.949H130.502ZM136.239 177.079V166.579H139.779V174.334H144.519V177.079H136.239ZM149.427 177.229C148.497 177.229 147.672 177.049 146.952 176.689C146.242 176.319 145.682 175.814 145.272 175.174C144.862 174.534 144.657 173.799 144.657 172.969C144.657 172.139 144.862 171.404 145.272 170.764C145.682 170.124 146.242 169.624 146.952 169.264C147.672 168.904 148.497 168.724 149.427 168.724C150.357 168.724 151.182 168.904 151.902 169.264C152.622 169.624 153.182 170.124 153.582 170.764C153.992 171.404 154.197 172.139 154.197 172.969C154.197 173.799 153.992 174.534 153.582 175.174C153.182 175.814 152.622 176.319 151.902 176.689C151.182 177.049 150.357 177.229 149.427 177.229ZM149.427 174.589C149.677 174.589 149.902 174.529 150.102 174.409C150.302 174.289 150.462 174.109 150.582 173.869C150.702 173.619 150.762 173.319 150.762 172.969C150.762 172.609 150.702 172.314 150.582 172.084C150.462 171.844 150.302 171.664 150.102 171.544C149.902 171.424 149.677 171.364 149.427 171.364C149.177 171.364 148.952 171.424 148.752 171.544C148.552 171.664 148.392 171.844 148.272 172.084C148.152 172.314 148.092 172.609 148.092 172.969C148.092 173.319 148.152 173.619 148.272 173.869C148.392 174.109 148.552 174.289 148.752 174.409C148.952 174.529 149.177 174.589 149.427 174.589ZM159.293 177.229C158.363 177.229 157.538 177.049 156.818 176.689C156.108 176.319 155.548 175.814 155.138 175.174C154.728 174.534 154.523 173.799 154.523 172.969C154.523 172.139 154.728 171.404 155.138 170.764C155.548 170.124 156.108 169.624 156.818 169.264C157.538 168.904 158.363 168.724 159.293 168.724C160.223 168.724 161.048 168.904 161.768 169.264C162.488 169.624 163.048 170.124 163.448 170.764C163.858 171.404 164.063 172.139 164.063 172.969C164.063 173.799 163.858 174.534 163.448 175.174C163.048 175.814 162.488 176.319 161.768 176.689C161.048 177.049 160.223 177.229 159.293 177.229ZM159.293 174.589C159.543 174.589 159.768 174.529 159.968 174.409C160.168 174.289 160.328 174.109 160.448 173.869C160.568 173.619 160.628 173.319 160.628 172.969C160.628 172.609 160.568 172.314 160.448 172.084C160.328 171.844 160.168 171.664 159.968 171.544C159.768 171.424 159.543 171.364 159.293 171.364C159.043 171.364 158.818 171.424 158.618 171.544C158.418 171.664 158.258 171.844 158.138 172.084C158.018 172.314 157.958 172.609 157.958 172.969C157.958 173.319 158.018 173.619 158.138 173.869C158.258 174.109 158.418 174.289 158.618 174.409C158.818 174.529 159.043 174.589 159.293 174.589ZM170.524 168.724C171.154 168.724 171.724 168.854 172.234 169.114C172.744 169.364 173.144 169.759 173.434 170.299C173.734 170.839 173.884 171.539 173.884 172.399V177.079H170.494V172.984C170.494 172.474 170.404 172.114 170.224 171.904C170.044 171.684 169.799 171.574 169.489 171.574C169.259 171.574 169.044 171.629 168.844 171.739C168.654 171.839 168.499 172.009 168.379 172.249C168.269 172.489 168.214 172.814 168.214 173.224V177.079H164.824V168.874H168.049V171.274L167.404 170.584C167.724 169.964 168.154 169.499 168.694 169.189C169.244 168.879 169.854 168.724 170.524 168.724ZM180.021 177.079V175.624L179.781 175.234V172.474C179.781 172.074 179.656 171.769 179.406 171.559C179.166 171.349 178.771 171.244 178.221 171.244C177.851 171.244 177.476 171.304 177.096 171.424C176.716 171.534 176.391 171.689 176.121 171.889L175.041 169.654C175.521 169.354 176.096 169.124 176.766 168.964C177.436 168.804 178.091 168.724 178.731 168.724C180.141 168.724 181.231 169.039 182.001 169.669C182.781 170.299 183.171 171.299 183.171 172.669V177.079H180.021ZM177.696 177.229C177.026 177.229 176.466 177.114 176.016 176.884C175.566 176.654 175.226 176.349 174.996 175.969C174.766 175.579 174.651 175.149 174.651 174.679C174.651 174.149 174.786 173.699 175.056 173.329C175.326 172.959 175.736 172.679 176.286 172.489C176.846 172.299 177.551 172.204 178.401 172.204H180.111V173.839H178.941C178.581 173.839 178.316 173.899 178.146 174.019C177.986 174.129 177.906 174.299 177.906 174.529C177.906 174.719 177.976 174.879 178.116 175.009C178.266 175.129 178.466 175.189 178.716 175.189C178.946 175.189 179.156 175.129 179.346 175.009C179.546 174.879 179.691 174.679 179.781 174.409L180.216 175.414C180.086 176.024 179.811 176.479 179.391 176.779C178.971 177.079 178.406 177.229 177.696 177.229ZM191.938 177.079L187.498 166.579H191.308L194.923 175.444H192.658L196.378 166.579H199.858L195.418 177.079H191.938ZM203.735 177.229C202.735 177.229 201.86 177.044 201.11 176.674C200.37 176.304 199.795 175.799 199.385 175.159C198.975 174.509 198.77 173.779 198.77 172.969C198.77 172.139 198.97 171.404 199.37 170.764C199.78 170.124 200.335 169.624 201.035 169.264C201.745 168.904 202.54 168.724 203.42 168.724C204.23 168.724 204.975 168.884 205.655 169.204C206.345 169.524 206.895 169.999 207.305 170.629C207.725 171.259 207.935 172.039 207.935 172.969C207.935 173.089 207.93 173.224 207.92 173.374C207.91 173.514 207.9 173.644 207.89 173.764H201.575V172.129H206.09L204.815 172.564C204.815 172.244 204.755 171.974 204.635 171.754C204.525 171.524 204.37 171.349 204.17 171.229C203.97 171.099 203.73 171.034 203.45 171.034C203.17 171.034 202.925 171.099 202.715 171.229C202.515 171.349 202.36 171.524 202.25 171.754C202.14 171.974 202.085 172.244 202.085 172.564V173.074C202.085 173.424 202.155 173.724 202.295 173.974C202.435 174.224 202.635 174.414 202.895 174.544C203.155 174.664 203.47 174.724 203.84 174.724C204.22 174.724 204.53 174.674 204.77 174.574C205.02 174.474 205.28 174.324 205.55 174.124L207.32 175.909C206.92 176.339 206.425 176.669 205.835 176.899C205.255 177.119 204.555 177.229 203.735 177.229ZM214.404 168.724C215.034 168.724 215.604 168.854 216.114 169.114C216.624 169.364 217.024 169.759 217.314 170.299C217.614 170.839 217.764 171.539 217.764 172.399V177.079H214.374V172.984C214.374 172.474 214.284 172.114 214.104 171.904C213.924 171.684 213.679 171.574 213.369 171.574C213.139 171.574 212.924 171.629 212.724 171.739C212.534 171.839 212.379 172.009 212.259 172.249C212.149 172.489 212.094 172.814 212.094 173.224V177.079H208.704V168.874H211.929V171.274L211.284 170.584C211.604 169.964 212.034 169.499 212.574 169.189C213.124 168.879 213.734 168.724 214.404 168.724ZM222.897 177.229C221.767 177.229 220.887 176.959 220.257 176.419C219.627 175.869 219.312 175.029 219.312 173.899V167.029H222.702V173.869C222.702 174.119 222.767 174.314 222.897 174.454C223.037 174.594 223.207 174.664 223.407 174.664C223.697 174.664 223.952 174.589 224.172 174.439L224.982 176.794C224.722 176.944 224.407 177.054 224.037 177.124C223.677 177.194 223.297 177.229 222.897 177.229ZM218.187 171.799V169.324H224.382V171.799H218.187ZM228.956 177.229C228.306 177.229 227.716 177.099 227.186 176.839C226.666 176.569 226.256 176.154 225.956 175.594C225.656 175.024 225.506 174.294 225.506 173.404V168.874H228.896V172.819C228.896 173.399 228.991 173.804 229.181 174.034C229.371 174.264 229.631 174.379 229.961 174.379C230.161 174.379 230.346 174.329 230.516 174.229C230.696 174.119 230.841 173.944 230.951 173.704C231.061 173.454 231.116 173.129 231.116 172.729V168.874H234.506V177.079H231.281V174.709L231.926 175.354C231.636 175.994 231.221 176.469 230.681 176.779C230.151 177.079 229.576 177.229 228.956 177.229ZM235.71 177.079V168.874H238.935V171.349L238.41 170.644C238.66 170.004 239.06 169.524 239.61 169.204C240.16 168.884 240.82 168.724 241.59 168.724V171.724C241.44 171.704 241.305 171.689 241.185 171.679C241.075 171.669 240.96 171.664 240.84 171.664C240.33 171.664 239.91 171.799 239.58 172.069C239.26 172.329 239.1 172.784 239.1 173.434V177.079H235.71ZM246.707 177.229C245.707 177.229 244.832 177.044 244.082 176.674C243.342 176.304 242.767 175.799 242.357 175.159C241.947 174.509 241.742 173.779 241.742 172.969C241.742 172.139 241.942 171.404 242.342 170.764C242.752 170.124 243.307 169.624 244.007 169.264C244.717 168.904 245.512 168.724 246.392 168.724C247.202 168.724 247.947 168.884 248.627 169.204C249.317 169.524 249.867 169.999 250.277 170.629C250.697 171.259 250.907 172.039 250.907 172.969C250.907 173.089 250.902 173.224 250.892 173.374C250.882 173.514 250.872 173.644 250.862 173.764H244.547V172.129H249.062L247.787 172.564C247.787 172.244 247.727 171.974 247.607 171.754C247.497 171.524 247.342 171.349 247.142 171.229C246.942 171.099 246.702 171.034 246.422 171.034C246.142 171.034 245.897 171.099 245.687 171.229C245.487 171.349 245.332 171.524 245.222 171.754C245.112 171.974 245.057 172.244 245.057 172.564V173.074C245.057 173.424 245.127 173.724 245.267 173.974C245.407 174.224 245.607 174.414 245.867 174.544C246.127 174.664 246.442 174.724 246.812 174.724C247.192 174.724 247.502 174.674 247.742 174.574C247.992 174.474 248.252 174.324 248.522 174.124L250.292 175.909C249.892 176.339 249.397 176.669 248.807 176.899C248.227 177.119 247.527 177.229 246.707 177.229ZM254.887 177.229C254.187 177.229 253.497 177.154 252.817 177.004C252.137 176.854 251.587 176.659 251.167 176.419L252.097 174.184C252.487 174.414 252.937 174.594 253.447 174.724C253.967 174.854 254.472 174.919 254.962 174.919C255.372 174.919 255.647 174.884 255.787 174.814C255.937 174.744 256.012 174.649 256.012 174.529C256.012 174.409 255.927 174.324 255.757 174.274C255.587 174.214 255.362 174.169 255.082 174.139C254.802 174.109 254.492 174.074 254.152 174.034C253.822 173.984 253.487 173.914 253.147 173.824C252.807 173.734 252.497 173.599 252.217 173.419C251.937 173.239 251.712 172.999 251.542 172.699C251.372 172.389 251.287 171.999 251.287 171.529C251.287 171.009 251.442 170.539 251.752 170.119C252.072 169.699 252.542 169.364 253.162 169.114C253.792 168.854 254.567 168.724 255.487 168.724C256.087 168.724 256.687 168.779 257.287 168.889C257.887 168.999 258.402 169.169 258.832 169.399L257.902 171.634C257.482 171.404 257.067 171.249 256.657 171.169C256.257 171.079 255.882 171.034 255.532 171.034C255.102 171.034 254.807 171.074 254.647 171.154C254.497 171.234 254.422 171.324 254.422 171.424C254.422 171.544 254.507 171.634 254.677 171.694C254.847 171.754 255.072 171.799 255.352 171.829C255.632 171.859 255.937 171.899 256.267 171.949C256.607 171.989 256.942 172.059 257.272 172.159C257.612 172.249 257.922 172.384 258.202 172.564C258.482 172.744 258.707 172.989 258.877 173.299C259.047 173.599 259.132 173.984 259.132 174.454C259.132 174.944 258.977 175.404 258.667 175.834C258.357 176.254 257.887 176.594 257.257 176.854C256.627 177.104 255.837 177.229 254.887 177.229ZM263.989 170.494L264.859 167.164L265.114 168.289C264.764 168.289 264.469 168.179 264.229 167.959C263.999 167.739 263.884 167.444 263.884 167.074C263.884 166.704 263.999 166.409 264.229 166.189C264.469 165.959 264.759 165.844 265.099 165.844C265.449 165.844 265.739 165.959 265.969 166.189C266.199 166.419 266.314 166.714 266.314 167.074C266.314 167.184 266.304 167.299 266.284 167.419C266.274 167.529 266.244 167.659 266.194 167.809C266.154 167.949 266.084 168.134 265.984 168.364L265.204 170.494H263.989ZM267.169 170.494L268.039 167.164L268.294 168.289C267.944 168.289 267.649 168.179 267.409 167.959C267.179 167.739 267.064 167.444 267.064 167.074C267.064 166.704 267.179 166.409 267.409 166.189C267.649 165.959 267.939 165.844 268.279 165.844C268.629 165.844 268.919 165.959 269.149 166.189C269.379 166.419 269.494 166.714 269.494 167.074C269.494 167.184 269.484 167.299 269.464 167.419C269.454 167.529 269.424 167.659 269.374 167.809C269.334 167.949 269.264 168.134 269.164 168.364L268.384 170.494H267.169Z" fill="white"/>
<path d="M189.837 179.196C195.266 167.127 196.623 164.11 196.623 164.11" stroke="#5E67A0" stroke-width="2"/>
</g>
<g filter="url(#filter3_d_474_406)">
<rect x="326.13" y="52.5017" width="25.4121" height="87.1271" rx="12.706" fill="white"/>
<rect x="327.184" y="53.5557" width="23.3041" height="85.0191" rx="11.6521" stroke="url(#paint1_linear_474_406)" stroke-width="2.10794"/>
</g>
<path d="M335.242 67.4062V59.3962H342.922V67.4062H341.062V60.5512L341.497 60.9862H336.682L337.117 60.5512V67.4062H335.242ZM339.682 80.5113C339.032 80.5113 338.437 80.3612 337.897 80.0612C337.367 79.7612 336.942 79.3112 336.622 78.7112C336.312 78.1012 336.157 77.3312 336.157 76.4012C336.157 75.4612 336.307 74.6912 336.607 74.0912C336.917 73.4912 337.337 73.0462 337.867 72.7562C338.397 72.4562 339.002 72.3062 339.682 72.3062C340.472 72.3062 341.167 72.4762 341.767 72.8162C342.377 73.1562 342.857 73.6312 343.207 74.2412C343.567 74.8512 343.747 75.5712 343.747 76.4012C343.747 77.2312 343.567 77.9562 343.207 78.5762C342.857 79.1862 342.377 79.6612 341.767 80.0012C341.167 80.3412 340.472 80.5113 339.682 80.5113ZM335.242 83.3163V72.3962H337.027V74.2862L336.967 76.4162L337.117 78.5462V83.3163H335.242ZM339.472 78.9062C339.922 78.9062 340.322 78.8062 340.672 78.6062C341.032 78.4062 341.317 78.1162 341.527 77.7362C341.737 77.3562 341.842 76.9112 341.842 76.4012C341.842 75.8812 341.737 75.4362 341.527 75.0662C341.317 74.6862 341.032 74.3962 340.672 74.1962C340.322 73.9962 339.922 73.8962 339.472 73.8962C339.022 73.8962 338.617 73.9962 338.257 74.1962C337.897 74.3962 337.612 74.6862 337.402 75.0662C337.192 75.4362 337.087 75.8812 337.087 76.4012C337.087 76.9112 337.192 77.3562 337.402 77.7362C337.612 78.1162 337.897 78.4062 338.257 78.6062C338.617 78.8062 339.022 78.9062 339.472 78.9062ZM338.812 93.5113C337.992 93.5113 337.262 93.3362 336.622 92.9862C335.982 92.6262 335.477 92.1362 335.107 91.5162C334.737 90.8962 334.552 90.1912 334.552 89.4012C334.552 88.6012 334.737 87.8962 335.107 87.2862C335.477 86.6662 335.982 86.1812 336.622 85.8313C337.262 85.4812 337.992 85.3062 338.812 85.3062C339.642 85.3062 340.377 85.4812 341.017 85.8313C341.667 86.1812 342.172 86.6612 342.532 87.2712C342.902 87.8812 343.087 88.5912 343.087 89.4012C343.087 90.1912 342.902 90.8962 342.532 91.5162C342.172 92.1362 341.667 92.6262 341.017 92.9862C340.377 93.3362 339.642 93.5113 338.812 93.5113ZM338.812 91.9062C339.272 91.9062 339.682 91.8062 340.042 91.6062C340.402 91.4062 340.682 91.1162 340.882 90.7362C341.092 90.3562 341.197 89.9112 341.197 89.4012C341.197 88.8812 341.092 88.4362 340.882 88.0662C340.682 87.6862 340.402 87.3962 340.042 87.1962C339.682 86.9962 339.277 86.8962 338.827 86.8962C338.367 86.8962 337.957 86.9962 337.597 87.1962C337.247 87.3962 336.967 87.6862 336.757 88.0662C336.547 88.4362 336.442 88.8812 336.442 89.4012C336.442 89.9112 336.547 90.3562 336.757 90.7362C336.967 91.1162 337.247 91.4062 337.597 91.6062C337.957 91.8062 338.362 91.9062 338.812 91.9062ZM338.977 106.511C338.087 106.511 337.307 106.336 336.637 105.986C335.977 105.626 335.462 105.136 335.092 104.516C334.732 103.896 334.552 103.191 334.552 102.401C334.552 101.601 334.727 100.896 335.077 100.286C335.437 99.6662 335.927 99.1812 336.547 98.8313C337.177 98.4812 337.892 98.3062 338.692 98.3062C339.472 98.3062 340.167 98.4762 340.777 98.8162C341.387 99.1562 341.867 99.6362 342.217 100.256C342.567 100.876 342.742 101.606 342.742 102.446C342.742 102.526 342.737 102.616 342.727 102.716C342.727 102.816 342.722 102.911 342.712 103.001H336.037V101.756H341.722L340.987 102.146C340.997 101.686 340.902 101.281 340.702 100.931C340.502 100.581 340.227 100.306 339.877 100.106C339.537 99.9062 339.142 99.8062 338.692 99.8062C338.232 99.8062 337.827 99.9062 337.477 100.106C337.137 100.306 336.867 100.586 336.667 100.946C336.477 101.296 336.382 101.711 336.382 102.191V102.491C336.382 102.971 336.492 103.396 336.712 103.766C336.932 104.136 337.242 104.421 337.642 104.621C338.042 104.821 338.502 104.921 339.022 104.921C339.472 104.921 339.877 104.851 340.237 104.711C340.597 104.571 340.917 104.351 341.197 104.051L342.202 105.206C341.842 105.626 341.387 105.951 340.837 106.181C340.297 106.401 339.677 106.511 338.977 106.511ZM340.987 119.406L338.092 115.566L339.622 114.621L343.192 119.406H340.987ZM335.242 119.406V111.396H337.117V119.406H335.242ZM336.562 116.196V114.636H339.277V116.196H336.562ZM339.802 115.626L338.047 115.416L340.987 111.396H342.997L339.802 115.626Z" fill="#212121"/>
<path d="M337.87 132V124.672L338.334 125.152H334.862V123.456H342.862V125.152H339.406L339.87 124.672V132H337.87Z" fill="#212121"/>
<g filter="url(#filter4_d_474_406)">
<rect x="44.7464" y="2.73146" width="265.808" height="24.7562" rx="12.3781" fill="white" stroke="#212121" stroke-width="2.10794"/>
</g>
<path d="M102.454 20.0337L98.8989 14.9187L100.474 13.9437L104.659 20.0337H102.454ZM95.5089 20.0337V9.53369H97.4289V20.0337H95.5089ZM96.8439 15.6087V13.9287H100.384V15.6087H96.8439ZM100.654 15.0087L98.8689 14.7687L102.454 9.53369H104.524L100.654 15.0087ZM110.418 20.1387C109.768 20.1387 109.173 19.9887 108.633 19.6887C108.103 19.3887 107.678 18.9387 107.358 18.3387C107.048 17.7287 106.893 16.9587 106.893 16.0287C106.893 15.0887 107.043 14.3187 107.343 13.7187C107.653 13.1187 108.073 12.6737 108.603 12.3837C109.133 12.0837 109.738 11.9337 110.418 11.9337C111.208 11.9337 111.903 12.1037 112.503 12.4437C113.113 12.7837 113.593 13.2587 113.943 13.8687C114.303 14.4787 114.483 15.1987 114.483 16.0287C114.483 16.8587 114.303 17.5837 113.943 18.2037C113.593 18.8137 113.113 19.2887 112.503 19.6287C111.903 19.9687 111.208 20.1387 110.418 20.1387ZM105.978 22.9437V12.0237H107.763V13.9137L107.703 16.0437L107.853 18.1737V22.9437H105.978ZM110.208 18.5337C110.658 18.5337 111.058 18.4337 111.408 18.2337C111.768 18.0337 112.053 17.7437 112.263 17.3637C112.473 16.9837 112.578 16.5387 112.578 16.0287C112.578 15.5087 112.473 15.0637 112.263 14.6937C112.053 14.3137 111.768 14.0237 111.408 13.8237C111.058 13.6237 110.658 13.5237 110.208 13.5237C109.758 13.5237 109.353 13.6237 108.993 13.8237C108.633 14.0237 108.348 14.3137 108.138 14.6937C107.928 15.0637 107.823 15.5087 107.823 16.0287C107.823 16.5387 107.928 16.9837 108.138 17.3637C108.348 17.7437 108.633 18.0337 108.993 18.2337C109.353 18.4337 109.758 18.5337 110.208 18.5337ZM116.849 23.0487C116.459 23.0487 116.069 22.9837 115.679 22.8537C115.289 22.7237 114.964 22.5437 114.704 22.3137L115.454 20.9337C115.644 21.1037 115.859 21.2387 116.099 21.3387C116.339 21.4387 116.584 21.4887 116.834 21.4887C117.174 21.4887 117.449 21.4037 117.659 21.2337C117.869 21.0637 118.064 20.7787 118.244 20.3787L118.709 19.3287L118.859 19.1037L121.889 12.0237H123.689L119.939 20.6787C119.689 21.2787 119.409 21.7537 119.099 22.1037C118.799 22.4537 118.459 22.6987 118.079 22.8387C117.709 22.9787 117.299 23.0487 116.849 23.0487ZM118.499 20.3187L114.884 12.0237H116.834L119.774 18.9387L118.499 20.3187ZM124.991 20.0337V12.0237H132.671V20.0337H130.811V13.1787L131.246 13.6137H126.431L126.866 13.1787V20.0337H124.991ZM135.201 20.0337V12.0237H137.076V15.2787H141.111V12.0237H142.986V20.0337H141.111V16.8687H137.076V20.0337H135.201ZM153.584 20.0337V12.0237H155.459V20.0337H153.584ZM149.399 14.6637C150.429 14.6637 151.209 14.8937 151.739 15.3537C152.279 15.8137 152.549 16.4637 152.549 17.3037C152.549 18.1737 152.249 18.8537 151.649 19.3437C151.059 19.8237 150.219 20.0587 149.129 20.0487L145.499 20.0337V12.0237H147.374V14.6487L149.399 14.6637ZM148.964 18.6687C149.514 18.6787 149.934 18.5637 150.224 18.3237C150.514 18.0837 150.659 17.7337 150.659 17.2737C150.659 16.8137 150.514 16.4837 150.224 16.2837C149.944 16.0737 149.524 15.9637 148.964 15.9537L147.374 15.9387V18.6537L148.964 18.6687ZM157.98 20.0337V12.0237H159.855V17.3037L164.28 12.0237H165.99V20.0337H164.115V14.7537L159.705 20.0337H157.98ZM161.865 11.0787C161.065 11.0787 160.45 10.8937 160.02 10.5237C159.59 10.1437 159.37 9.59369 159.36 8.87369H160.605C160.615 9.23369 160.725 9.51869 160.935 9.72869C161.155 9.93869 161.46 10.0437 161.85 10.0437C162.23 10.0437 162.53 9.93869 162.75 9.72869C162.98 9.51869 163.1 9.23369 163.11 8.87369H164.385C164.375 9.59369 164.15 10.1437 163.71 10.5237C163.28 10.8937 162.665 11.0787 161.865 11.0787ZM178.402 20.0337L175.507 16.1937L177.037 15.2487L180.607 20.0337H178.402ZM172.657 20.0337V12.0237H174.532V20.0337H172.657ZM173.977 16.8237V15.2637H176.692V16.8237H173.977ZM177.217 16.2537L175.462 16.0437L178.402 12.0237H180.412L177.217 16.2537ZM185.236 20.1387C184.416 20.1387 183.686 19.9637 183.046 19.6137C182.406 19.2537 181.901 18.7637 181.531 18.1437C181.161 17.5237 180.976 16.8187 180.976 16.0287C180.976 15.2287 181.161 14.5237 181.531 13.9137C181.901 13.2937 182.406 12.8087 183.046 12.4587C183.686 12.1087 184.416 11.9337 185.236 11.9337C186.066 11.9337 186.801 12.1087 187.441 12.4587C188.091 12.8087 188.596 13.2887 188.956 13.8987C189.326 14.5087 189.511 15.2187 189.511 16.0287C189.511 16.8187 189.326 17.5237 188.956 18.1437C188.596 18.7637 188.091 19.2537 187.441 19.6137C186.801 19.9637 186.066 20.1387 185.236 20.1387ZM185.236 18.5337C185.696 18.5337 186.106 18.4337 186.466 18.2337C186.826 18.0337 187.106 17.7437 187.306 17.3637C187.516 16.9837 187.621 16.5387 187.621 16.0287C187.621 15.5087 187.516 15.0637 187.306 14.6937C187.106 14.3137 186.826 14.0237 186.466 13.8237C186.106 13.6237 185.701 13.5237 185.251 13.5237C184.791 13.5237 184.381 13.6237 184.021 13.8237C183.671 14.0237 183.391 14.3137 183.181 14.6937C182.971 15.0637 182.866 15.5087 182.866 16.0287C182.866 16.5387 182.971 16.9837 183.181 17.3637C183.391 17.7437 183.671 18.0337 184.021 18.2337C184.381 18.4337 184.786 18.5337 185.236 18.5337ZM191.363 20.0337V12.0237H193.238V15.2787H197.273V12.0237H199.148V20.0337H197.273V16.8687H193.238V20.0337H191.363ZM203.326 20.0337V13.1637L203.761 13.6137H200.506V12.0237H208.006V13.6137H204.766L205.201 13.1637V20.0337H203.326ZM213.806 20.1387C213.156 20.1387 212.561 19.9887 212.021 19.6887C211.491 19.3887 211.066 18.9387 210.746 18.3387C210.436 17.7287 210.281 16.9587 210.281 16.0287C210.281 15.0887 210.431 14.3187 210.731 13.7187C211.041 13.1187 211.461 12.6737 211.991 12.3837C212.521 12.0837 213.126 11.9337 213.806 11.9337C214.596 11.9337 215.291 12.1037 215.891 12.4437C216.501 12.7837 216.981 13.2587 217.331 13.8687C217.691 14.4787 217.871 15.1987 217.871 16.0287C217.871 16.8587 217.691 17.5837 217.331 18.2037C216.981 18.8137 216.501 19.2887 215.891 19.6287C215.291 19.9687 214.596 20.1387 213.806 20.1387ZM209.366 22.9437V12.0237H211.151V13.9137L211.091 16.0437L211.241 18.1737V22.9437H209.366ZM213.596 18.5337C214.046 18.5337 214.446 18.4337 214.796 18.2337C215.156 18.0337 215.441 17.7437 215.651 17.3637C215.861 16.9837 215.966 16.5387 215.966 16.0287C215.966 15.5087 215.861 15.0637 215.651 14.6937C215.441 14.3137 215.156 14.0237 214.796 13.8237C214.446 13.6237 214.046 13.5237 213.596 13.5237C213.146 13.5237 212.741 13.6237 212.381 13.8237C212.021 14.0237 211.736 14.3137 211.526 14.6937C211.316 15.0637 211.211 15.5087 211.211 16.0287C211.211 16.5387 211.316 16.9837 211.526 17.3637C211.736 17.7437 212.021 18.0337 212.381 18.2337C212.741 18.4337 213.146 18.5337 213.596 18.5337ZM224.495 20.0337V18.4137L224.39 18.0687V15.2337C224.39 14.6837 224.225 14.2587 223.895 13.9587C223.565 13.6487 223.065 13.4937 222.395 13.4937C221.945 13.4937 221.5 13.5637 221.06 13.7037C220.63 13.8437 220.265 14.0387 219.965 14.2887L219.23 12.9237C219.66 12.5937 220.17 12.3487 220.76 12.1887C221.36 12.0187 221.98 11.9337 222.62 11.9337C223.78 11.9337 224.675 12.2137 225.305 12.7737C225.945 13.3237 226.265 14.1787 226.265 15.3387V20.0337H224.495ZM221.975 20.1387C221.375 20.1387 220.85 20.0387 220.4 19.8387C219.95 19.6287 219.6 19.3437 219.35 18.9837C219.11 18.6137 218.99 18.1987 218.99 17.7387C218.99 17.2887 219.095 16.8837 219.305 16.5237C219.525 16.1637 219.88 15.8787 220.37 15.6687C220.86 15.4587 221.51 15.3537 222.32 15.3537H224.645V16.5987H222.455C221.815 16.5987 221.385 16.7037 221.165 16.9137C220.945 17.1137 220.835 17.3637 220.835 17.6637C220.835 18.0037 220.97 18.2737 221.24 18.4737C221.51 18.6737 221.885 18.7737 222.365 18.7737C222.825 18.7737 223.235 18.6687 223.595 18.4587C223.965 18.2487 224.23 17.9387 224.39 17.5287L224.705 18.6537C224.525 19.1237 224.2 19.4887 223.73 19.7487C223.27 20.0087 222.685 20.1387 221.975 20.1387ZM228.585 20.0337V12.0237H234.735V13.6137H230.025L230.46 13.1937V20.0337H228.585ZM239.483 20.1387C238.593 20.1387 237.813 19.9637 237.143 19.6137C236.483 19.2537 235.968 18.7637 235.598 18.1437C235.238 17.5237 235.058 16.8187 235.058 16.0287C235.058 15.2287 235.233 14.5237 235.583 13.9137C235.943 13.2937 236.433 12.8087 237.053 12.4587C237.683 12.1087 238.398 11.9337 239.198 11.9337C239.978 11.9337 240.673 12.1037 241.283 12.4437C241.893 12.7837 242.373 13.2637 242.723 13.8837C243.073 14.5037 243.248 15.2337 243.248 16.0737C243.248 16.1537 243.243 16.2437 243.233 16.3437C243.233 16.4437 243.228 16.5387 243.218 16.6287H236.543V15.3837H242.228L241.493 15.7737C241.503 15.3137 241.408 14.9087 241.208 14.5587C241.008 14.2087 240.733 13.9337 240.383 13.7337C240.043 13.5337 239.648 13.4337 239.198 13.4337C238.738 13.4337 238.333 13.5337 237.983 13.7337C237.643 13.9337 237.373 14.2137 237.173 14.5737C236.983 14.9237 236.888 15.3387 236.888 15.8187V16.1187C236.888 16.5987 236.998 17.0237 237.218 17.3937C237.438 17.7637 237.748 18.0487 238.148 18.2487C238.548 18.4487 239.008 18.5487 239.528 18.5487C239.978 18.5487 240.383 18.4787 240.743 18.3387C241.103 18.1987 241.423 17.9787 241.703 17.6787L242.708 18.8337C242.348 19.2537 241.893 19.5787 241.343 19.8087C240.803 20.0287 240.183 20.1387 239.483 20.1387ZM245.299 20.0337V12.0237H247.174V15.2787H251.209V12.0237H253.084V20.0337H251.209V16.8687H247.174V20.0337H245.299ZM257.262 20.0337V13.1637L257.697 13.6137H254.442V12.0237H261.942V13.6137H258.702L259.137 13.1637V20.0337H257.262Z" fill="#212121"/>
<path d="M135.185 61.685V58.878H133.575L133.54 59.592C133.531 59.8253 133.514 60.0517 133.491 60.271C133.472 60.4857 133.44 60.684 133.393 60.866C133.351 61.048 133.288 61.1973 133.204 61.314C133.12 61.4307 133.008 61.503 132.868 61.531L132.203 61.412C132.348 61.4167 132.464 61.37 132.553 61.272C132.642 61.1693 132.709 61.0293 132.756 60.852C132.807 60.6747 132.845 60.474 132.868 60.25C132.891 60.0213 132.91 59.7857 132.924 59.543L132.98 58.29H135.857V61.685H135.185ZM132.056 62.861V61.412H136.424V62.861H135.794V62H132.693V62.861H132.056ZM138.951 62.042C138.555 62.042 138.205 61.9603 137.901 61.797C137.603 61.6337 137.369 61.4097 137.201 61.125C137.038 60.8403 136.956 60.5137 136.956 60.145C136.956 59.7763 137.036 59.4497 137.194 59.165C137.358 58.8803 137.579 58.6587 137.859 58.5C138.144 58.3367 138.464 58.255 138.818 58.255C139.178 58.255 139.495 58.3343 139.77 58.493C140.046 58.6517 140.26 58.8757 140.414 59.165C140.573 59.4497 140.652 59.7833 140.652 60.166C140.652 60.194 140.65 60.2267 140.645 60.264C140.645 60.3013 140.643 60.3363 140.638 60.369H137.481V59.886H140.288L140.015 60.054C140.02 59.816 139.971 59.6037 139.868 59.417C139.766 59.2303 139.623 59.0857 139.441 58.983C139.264 58.8757 139.056 58.822 138.818 58.822C138.585 58.822 138.377 58.8757 138.195 58.983C138.013 59.0857 137.871 59.2327 137.768 59.424C137.666 59.6107 137.614 59.8253 137.614 60.068V60.18C137.614 60.4273 137.67 60.649 137.782 60.845C137.899 61.0363 138.06 61.1857 138.265 61.293C138.471 61.4003 138.706 61.454 138.972 61.454C139.192 61.454 139.39 61.4167 139.567 61.342C139.749 61.2673 139.908 61.1553 140.043 61.006L140.414 61.44C140.246 61.636 140.036 61.7853 139.784 61.888C139.537 61.9907 139.259 62.042 138.951 62.042ZM141.695 62V58.29H142.367V59.865H144.481V58.29H145.153V62H144.481V60.446H142.367V62H141.695ZM148.175 59.55C148.646 59.5547 149.005 59.662 149.253 59.872C149.5 60.082 149.624 60.3783 149.624 60.761C149.624 61.1623 149.488 61.4727 149.218 61.692C148.947 61.9067 148.564 62.0117 148.07 62.007L146.46 62V58.29H147.132V59.543L148.175 59.55ZM148.014 61.496C148.317 61.5007 148.546 61.44 148.7 61.314C148.858 61.188 148.938 61.0013 148.938 60.754C148.938 60.5113 148.861 60.334 148.707 60.222C148.553 60.11 148.322 60.0517 148.014 60.047L147.132 60.033V61.489L148.014 61.496ZM150.486 62V58.29H153.216V58.878H150.997L151.158 58.724V62H150.486ZM153.904 62V58.29H154.576V60.992L156.851 58.29H157.46V62H156.788V59.298L154.52 62H153.904Z" fill="#212121"/>
<path d="M56.562 55.698C56.394 55.778 56.22 55.842 56.04 55.89C55.864 55.934 55.682 55.956 55.494 55.956C55.11 55.956 54.806 55.866 54.582 55.686C54.362 55.506 54.252 55.228 54.252 54.852V53.82H54.828V54.816C54.828 55.044 54.898 55.212 55.038 55.32C55.182 55.428 55.374 55.482 55.614 55.482C55.766 55.482 55.922 55.462 56.082 55.422C56.246 55.382 56.406 55.326 56.562 55.254V55.698ZM56.52 57V53.82H57.096V57H56.52ZM60.1643 57V56.328L60.1343 56.202V55.056C60.1343 54.812 60.0623 54.624 59.9183 54.492C59.7783 54.356 59.5663 54.288 59.2823 54.288C59.0943 54.288 58.9103 54.32 58.7303 54.384C58.5503 54.444 58.3983 54.526 58.2743 54.63L58.0343 54.198C58.1983 54.066 58.3943 53.966 58.6223 53.898C58.8543 53.826 59.0963 53.79 59.3483 53.79C59.7843 53.79 60.1203 53.896 60.3563 54.108C60.5923 54.32 60.7103 54.644 60.7103 55.08V57H60.1643ZM59.1203 57.036C58.8843 57.036 58.6763 56.996 58.4963 56.916C58.3203 56.836 58.1843 56.726 58.0883 56.586C57.9923 56.442 57.9443 56.28 57.9443 56.1C57.9443 55.928 57.9843 55.772 58.0643 55.632C58.1483 55.492 58.2823 55.38 58.4663 55.296C58.6543 55.212 58.9063 55.17 59.2223 55.17H60.2303V55.584H59.2463C58.9583 55.584 58.7643 55.632 58.6643 55.728C58.5643 55.824 58.5143 55.94 58.5143 56.076C58.5143 56.232 58.5763 56.358 58.7003 56.454C58.8243 56.546 58.9963 56.592 59.2163 56.592C59.4323 56.592 59.6203 56.544 59.7803 56.448C59.9443 56.352 60.0623 56.212 60.1343 56.028L60.2483 56.424C60.1723 56.612 60.0383 56.762 59.8463 56.874C59.6543 56.982 59.4123 57.036 59.1203 57.036ZM63.1335 57.036C62.8095 57.036 62.5195 56.966 62.2635 56.826C62.0115 56.686 61.8135 56.494 61.6695 56.25C61.5255 56.006 61.4535 55.726 61.4535 55.41C61.4535 55.094 61.5255 54.814 61.6695 54.57C61.8135 54.326 62.0115 54.136 62.2635 54C62.5195 53.86 62.8095 53.79 63.1335 53.79C63.4215 53.79 63.6775 53.848 63.9015 53.964C64.1295 54.076 64.3055 54.244 64.4295 54.468L63.9915 54.75C63.8875 54.594 63.7595 54.48 63.6075 54.408C63.4595 54.332 63.2995 54.294 63.1275 54.294C62.9195 54.294 62.7335 54.34 62.5695 54.432C62.4055 54.524 62.2755 54.654 62.1795 54.822C62.0835 54.986 62.0355 55.182 62.0355 55.41C62.0355 55.638 62.0835 55.836 62.1795 56.004C62.2755 56.172 62.4055 56.302 62.5695 56.394C62.7335 56.486 62.9195 56.532 63.1275 56.532C63.2995 56.532 63.4595 56.496 63.6075 56.424C63.7595 56.348 63.8875 56.232 63.9915 56.076L64.4295 56.352C64.3055 56.572 64.1295 56.742 63.9015 56.862C63.6775 56.978 63.4215 57.036 63.1335 57.036ZM65.7642 57V54.174L65.9082 54.324H64.6002V53.82H67.5042V54.324H66.2022L66.3402 54.174V57H65.7642ZM69.5632 54.9C69.9672 54.904 70.2752 54.996 70.4872 55.176C70.6992 55.356 70.8052 55.61 70.8052 55.938C70.8052 56.282 70.6892 56.548 70.4572 56.736C70.2252 56.92 69.8972 57.01 69.4732 57.006L68.0932 57V53.82H68.6692V54.894L69.5632 54.9ZM69.4252 56.568C69.6852 56.572 69.8812 56.52 70.0132 56.412C70.1492 56.304 70.2172 56.144 70.2172 55.932C70.2172 55.724 70.1512 55.572 70.0192 55.476C69.8872 55.38 69.6892 55.33 69.4252 55.326L68.6692 55.314V56.562L69.4252 56.568ZM73.7857 57V54.174L73.9297 54.324H72.6217V53.82H75.5257V54.324H74.2237L74.3617 54.174V57H73.7857ZM77.336 57.036C77.016 57.036 76.732 56.966 76.484 56.826C76.236 56.686 76.04 56.494 75.896 56.25C75.752 56.002 75.68 55.722 75.68 55.41C75.68 55.094 75.752 54.814 75.896 54.57C76.04 54.326 76.236 54.136 76.484 54C76.732 53.86 77.016 53.79 77.336 53.79C77.652 53.79 77.934 53.86 78.182 54C78.434 54.136 78.63 54.326 78.77 54.57C78.914 54.81 78.986 55.09 78.986 55.41C78.986 55.726 78.914 56.006 78.77 56.25C78.63 56.494 78.434 56.686 78.182 56.826C77.934 56.966 77.652 57.036 77.336 57.036ZM77.336 56.532C77.54 56.532 77.722 56.486 77.882 56.394C78.046 56.302 78.174 56.172 78.266 56.004C78.358 55.832 78.404 55.634 78.404 55.41C78.404 55.182 78.358 54.986 78.266 54.822C78.174 54.654 78.046 54.524 77.882 54.432C77.722 54.34 77.54 54.294 77.336 54.294C77.132 54.294 76.95 54.34 76.79 54.432C76.63 54.524 76.502 54.654 76.406 54.822C76.31 54.986 76.262 55.182 76.262 55.41C76.262 55.634 76.31 55.832 76.406 56.004C76.502 56.172 76.63 56.302 76.79 56.394C76.95 56.486 77.132 56.532 77.336 56.532ZM82.1218 57L80.8918 55.452L81.3658 55.164L82.7998 57H82.1218ZM79.8178 57V53.82H80.3938V57H79.8178ZM80.2198 55.656V55.164H81.2698V55.656H80.2198ZM81.4138 55.476L80.8798 55.404L82.0978 53.82H82.7158L81.4138 55.476ZM84.7142 57.036C84.3742 57.036 84.0742 56.966 83.8142 56.826C83.5582 56.686 83.3582 56.494 83.2142 56.25C83.0742 56.006 83.0042 55.726 83.0042 55.41C83.0042 55.094 83.0722 54.814 83.2082 54.57C83.3482 54.326 83.5382 54.136 83.7782 54C84.0222 53.86 84.2962 53.79 84.6002 53.79C84.9082 53.79 85.1802 53.858 85.4162 53.994C85.6522 54.13 85.8362 54.322 85.9682 54.57C86.1042 54.814 86.1722 55.1 86.1722 55.428C86.1722 55.452 86.1702 55.48 86.1662 55.512C86.1662 55.544 86.1642 55.574 86.1602 55.602H83.4542V55.188H85.8602L85.6262 55.332C85.6302 55.128 85.5882 54.946 85.5002 54.786C85.4122 54.626 85.2902 54.502 85.1342 54.414C84.9822 54.322 84.8042 54.276 84.6002 54.276C84.4002 54.276 84.2222 54.322 84.0662 54.414C83.9102 54.502 83.7882 54.628 83.7002 54.792C83.6122 54.952 83.5682 55.136 83.5682 55.344V55.44C83.5682 55.652 83.6162 55.842 83.7122 56.01C83.8122 56.174 83.9502 56.302 84.1262 56.394C84.3022 56.486 84.5042 56.532 84.7322 56.532C84.9202 56.532 85.0902 56.5 85.2422 56.436C85.3982 56.372 85.5342 56.276 85.6502 56.148L85.9682 56.52C85.8242 56.688 85.6442 56.816 85.4282 56.904C85.2162 56.992 84.9782 57.036 84.7142 57.036ZM87.0658 57V53.82H87.6418V55.17H89.4538V53.82H90.0298V57H89.4538V55.668H87.6418V57H87.0658ZM92.5118 57.036C92.1918 57.036 91.9078 56.966 91.6598 56.826C91.4118 56.686 91.2158 56.494 91.0718 56.25C90.9278 56.002 90.8558 55.722 90.8558 55.41C90.8558 55.094 90.9278 54.814 91.0718 54.57C91.2158 54.326 91.4118 54.136 91.6598 54C91.9078 53.86 92.1918 53.79 92.5118 53.79C92.8278 53.79 93.1098 53.86 93.3578 54C93.6098 54.136 93.8058 54.326 93.9458 54.57C94.0898 54.81 94.1618 55.09 94.1618 55.41C94.1618 55.726 94.0898 56.006 93.9458 56.25C93.8058 56.494 93.6098 56.686 93.3578 56.826C93.1098 56.966 92.8278 57.036 92.5118 57.036ZM92.5118 56.532C92.7158 56.532 92.8978 56.486 93.0578 56.394C93.2218 56.302 93.3498 56.172 93.4418 56.004C93.5338 55.832 93.5798 55.634 93.5798 55.41C93.5798 55.182 93.5338 54.986 93.4418 54.822C93.3498 54.654 93.2218 54.524 93.0578 54.432C92.8978 54.34 92.7158 54.294 92.5118 54.294C92.3078 54.294 92.1258 54.34 91.9658 54.432C91.8058 54.524 91.6778 54.654 91.5818 54.822C91.4858 54.986 91.4378 55.182 91.4378 55.41C91.4378 55.634 91.4858 55.832 91.5818 56.004C91.6778 56.172 91.8058 56.302 91.9658 56.394C92.1258 56.486 92.3078 56.532 92.5118 56.532ZM94.9935 57V53.82H96.4695C96.8415 53.82 97.1335 53.892 97.3455 54.036C97.5615 54.176 97.6695 54.376 97.6695 54.636C97.6695 54.896 97.5675 55.098 97.3635 55.242C97.1635 55.382 96.8975 55.452 96.5655 55.452L96.6555 55.296C97.0355 55.296 97.3175 55.366 97.5015 55.506C97.6855 55.646 97.7775 55.852 97.7775 56.124C97.7775 56.4 97.6735 56.616 97.4655 56.772C97.2615 56.924 96.9475 57 96.5235 57H94.9935ZM95.5575 56.556H96.4815C96.7215 56.556 96.9015 56.52 97.0215 56.448C97.1415 56.372 97.2015 56.252 97.2015 56.088C97.2015 55.92 97.1455 55.798 97.0335 55.722C96.9255 55.642 96.7535 55.602 96.5175 55.602H95.5575V56.556ZM95.5575 55.188H96.4215C96.6415 55.188 96.8075 55.148 96.9195 55.068C97.0355 54.984 97.0935 54.868 97.0935 54.72C97.0935 54.568 97.0355 54.454 96.9195 54.378C96.8075 54.302 96.6415 54.264 96.4215 54.264H95.5575V55.188ZM54.558 64V60.82H57.504V64H56.928V61.18L57.066 61.324H54.996L55.134 61.18V64H54.558ZM59.9805 64.036C59.6605 64.036 59.3765 63.966 59.1285 63.826C58.8805 63.686 58.6845 63.494 58.5405 63.25C58.3965 63.002 58.3245 62.722 58.3245 62.41C58.3245 62.094 58.3965 61.814 58.5405 61.57C58.6845 61.326 58.8805 61.136 59.1285 61C59.3765 60.86 59.6605 60.79 59.9805 60.79C60.2965 60.79 60.5785 60.86 60.8265 61C61.0785 61.136 61.2745 61.326 61.4145 61.57C61.5585 61.81 61.6305 62.09 61.6305 62.41C61.6305 62.726 61.5585 63.006 61.4145 63.25C61.2745 63.494 61.0785 63.686 60.8265 63.826C60.5785 63.966 60.2965 64.036 59.9805 64.036ZM59.9805 63.532C60.1845 63.532 60.3665 63.486 60.5265 63.394C60.6905 63.302 60.8185 63.172 60.9105 63.004C61.0025 62.832 61.0485 62.634 61.0485 62.41C61.0485 62.182 61.0025 61.986 60.9105 61.822C60.8185 61.654 60.6905 61.524 60.5265 61.432C60.3665 61.34 60.1845 61.294 59.9805 61.294C59.7765 61.294 59.5945 61.34 59.4345 61.432C59.2745 61.524 59.1465 61.654 59.0505 61.822C58.9545 61.986 58.9065 62.182 58.9065 62.41C58.9065 62.634 58.9545 62.832 59.0505 63.004C59.1465 63.172 59.2745 63.302 59.4345 63.394C59.5945 63.486 59.7765 63.532 59.9805 63.532ZM64.0736 64V60.82H64.6496V63.496H66.3896V60.82H66.9656V64H64.0736ZM66.9236 64.738V63.97L67.0676 64H66.3896V63.496H67.4696V64.738H66.9236ZM69.6322 64.036C69.2922 64.036 68.9922 63.966 68.7322 63.826C68.4762 63.686 68.2762 63.494 68.1322 63.25C67.9922 63.006 67.9222 62.726 67.9222 62.41C67.9222 62.094 67.9902 61.814 68.1262 61.57C68.2662 61.326 68.4562 61.136 68.6962 61C68.9402 60.86 69.2142 60.79 69.5182 60.79C69.8262 60.79 70.0982 60.858 70.3342 60.994C70.5702 61.13 70.7542 61.322 70.8862 61.57C71.0222 61.814 71.0902 62.1 71.0902 62.428C71.0902 62.452 71.0882 62.48 71.0842 62.512C71.0842 62.544 71.0822 62.574 71.0782 62.602H68.3722V62.188H70.7782L70.5442 62.332C70.5482 62.128 70.5062 61.946 70.4182 61.786C70.3302 61.626 70.2082 61.502 70.0522 61.414C69.9002 61.322 69.7222 61.276 69.5182 61.276C69.3182 61.276 69.1402 61.322 68.9842 61.414C68.8282 61.502 68.7062 61.628 68.6182 61.792C68.5302 61.952 68.4862 62.136 68.4862 62.344V62.44C68.4862 62.652 68.5342 62.842 68.6302 63.01C68.7302 63.174 68.8682 63.302 69.0442 63.394C69.2202 63.486 69.4222 63.532 69.6502 63.532C69.8382 63.532 70.0082 63.5 70.1602 63.436C70.3162 63.372 70.4522 63.276 70.5682 63.148L70.8862 63.52C70.7422 63.688 70.5622 63.816 70.3462 63.904C70.1342 63.992 69.8962 64.036 69.6322 64.036ZM71.9838 64V60.82H72.5598V62.17H74.3718V60.82H74.9478V64H74.3718V62.668H72.5598V64H71.9838ZM77.4838 64.036C77.1438 64.036 76.8438 63.966 76.5838 63.826C76.3278 63.686 76.1278 63.494 75.9838 63.25C75.8438 63.006 75.7738 62.726 75.7738 62.41C75.7738 62.094 75.8418 61.814 75.9778 61.57C76.1178 61.326 76.3078 61.136 76.5478 61C76.7918 60.86 77.0658 60.79 77.3698 60.79C77.6778 60.79 77.9498 60.858 78.1858 60.994C78.4218 61.13 78.6058 61.322 78.7378 61.57C78.8738 61.814 78.9418 62.1 78.9418 62.428C78.9418 62.452 78.9398 62.48 78.9358 62.512C78.9358 62.544 78.9338 62.574 78.9298 62.602H76.2238V62.188H78.6298L78.3958 62.332C78.3998 62.128 78.3578 61.946 78.2698 61.786C78.1818 61.626 78.0598 61.502 77.9038 61.414C77.7518 61.322 77.5738 61.276 77.3698 61.276C77.1698 61.276 76.9918 61.322 76.8358 61.414C76.6798 61.502 76.5578 61.628 76.4698 61.792C76.3818 61.952 76.3378 62.136 76.3378 62.344V62.44C76.3378 62.652 76.3858 62.842 76.4818 63.01C76.5818 63.174 76.7198 63.302 76.8958 63.394C77.0718 63.486 77.2738 63.532 77.5018 63.532C77.6898 63.532 77.8598 63.5 78.0118 63.436C78.1678 63.372 78.3038 63.276 78.4198 63.148L78.7378 63.52C78.5938 63.688 78.4138 63.816 78.1978 63.904C77.9858 63.992 77.7478 64.036 77.4838 64.036ZM81.4467 64V60.82H82.9227C83.2947 60.82 83.5867 60.892 83.7987 61.036C84.0147 61.176 84.1227 61.376 84.1227 61.636C84.1227 61.896 84.0207 62.098 83.8167 62.242C83.6167 62.382 83.3507 62.452 83.0187 62.452L83.1087 62.296C83.4887 62.296 83.7707 62.366 83.9547 62.506C84.1387 62.646 84.2307 62.852 84.2307 63.124C84.2307 63.4 84.1267 63.616 83.9187 63.772C83.7147 63.924 83.4007 64 82.9767 64H81.4467ZM82.0107 63.556H82.9347C83.1747 63.556 83.3547 63.52 83.4747 63.448C83.5947 63.372 83.6547 63.252 83.6547 63.088C83.6547 62.92 83.5987 62.798 83.4867 62.722C83.3787 62.642 83.2067 62.602 82.9707 62.602H82.0107V63.556ZM82.0107 62.188H82.8747C83.0947 62.188 83.2607 62.148 83.3727 62.068C83.4887 61.984 83.5467 61.868 83.5467 61.72C83.5467 61.568 83.4887 61.454 83.3727 61.378C83.2607 61.302 83.0947 61.264 82.8747 61.264H82.0107V62.188ZM88.2762 64V60.82H88.8522V64H88.2762ZM86.5662 61.9C86.9702 61.904 87.2762 61.996 87.4842 62.176C87.6962 62.356 87.8022 62.61 87.8022 62.938C87.8022 63.282 87.6862 63.548 87.4542 63.736C87.2262 63.92 86.8982 64.01 86.4702 64.006L85.1322 64V60.82H85.7082V61.894L86.5662 61.9ZM86.4282 63.568C86.6842 63.572 86.8802 63.52 87.0162 63.412C87.1522 63.304 87.2202 63.144 87.2202 62.932C87.2202 62.724 87.1522 62.572 87.0162 62.476C86.8842 62.38 86.6882 62.33 86.4282 62.326L85.7082 62.314V63.562L86.4282 63.568ZM92.0841 63.496L91.9521 63.646V60.82H92.5281V63.646L92.3841 63.496H94.0641L93.9261 63.646V60.82H94.5021V64H89.9721V60.82H90.5481V63.646L90.4101 63.496H92.0841ZM97.0365 64.036C96.6965 64.036 96.3965 63.966 96.1365 63.826C95.8805 63.686 95.6805 63.494 95.5365 63.25C95.3965 63.006 95.3265 62.726 95.3265 62.41C95.3265 62.094 95.3945 61.814 95.5305 61.57C95.6705 61.326 95.8605 61.136 96.1005 61C96.3445 60.86 96.6185 60.79 96.9225 60.79C97.2305 60.79 97.5025 60.858 97.7385 60.994C97.9745 61.13 98.1585 61.322 98.2905 61.57C98.4265 61.814 98.4945 62.1 98.4945 62.428C98.4945 62.452 98.4925 62.48 98.4885 62.512C98.4885 62.544 98.4865 62.574 98.4825 62.602H95.7765V62.188H98.1825L97.9485 62.332C97.9525 62.128 97.9105 61.946 97.8225 61.786C97.7345 61.626 97.6125 61.502 97.4565 61.414C97.3045 61.322 97.1265 61.276 96.9225 61.276C96.7225 61.276 96.5445 61.322 96.3885 61.414C96.2325 61.502 96.1105 61.628 96.0225 61.792C95.9345 61.952 95.8905 62.136 95.8905 62.344V62.44C95.8905 62.652 95.9385 62.842 96.0345 63.01C96.1345 63.174 96.2725 63.302 96.4485 63.394C96.6245 63.486 96.8265 63.532 97.0545 63.532C97.2425 63.532 97.4125 63.5 97.5645 63.436C97.7205 63.372 97.8565 63.276 97.9725 63.148L98.2905 63.52C98.1465 63.688 97.9665 63.816 97.7505 63.904C97.5385 63.992 97.3005 64.036 97.0365 64.036ZM55.92 71.036C55.6 71.036 55.316 70.966 55.068 70.826C54.82 70.686 54.624 70.494 54.48 70.25C54.336 70.002 54.264 69.722 54.264 69.41C54.264 69.094 54.336 68.814 54.48 68.57C54.624 68.326 54.82 68.136 55.068 68C55.316 67.86 55.6 67.79 55.92 67.79C56.236 67.79 56.518 67.86 56.766 68C57.018 68.136 57.214 68.326 57.354 68.57C57.498 68.81 57.57 69.09 57.57 69.41C57.57 69.726 57.498 70.006 57.354 70.25C57.214 70.494 57.018 70.686 56.766 70.826C56.518 70.966 56.236 71.036 55.92 71.036ZM55.92 70.532C56.124 70.532 56.306 70.486 56.466 70.394C56.63 70.302 56.758 70.172 56.85 70.004C56.942 69.832 56.988 69.634 56.988 69.41C56.988 69.182 56.942 68.986 56.85 68.822C56.758 68.654 56.63 68.524 56.466 68.432C56.306 68.34 56.124 68.294 55.92 68.294C55.716 68.294 55.534 68.34 55.374 68.432C55.214 68.524 55.086 68.654 54.99 68.822C54.894 68.986 54.846 69.182 54.846 69.41C54.846 69.634 54.894 69.832 54.99 70.004C55.086 70.172 55.214 70.302 55.374 70.394C55.534 70.486 55.716 70.532 55.92 70.532ZM58.4018 71V67.82H58.9778V70.496H60.7178V67.82H61.2938V71H58.4018ZM61.2518 71.738V70.97L61.3958 71H60.7178V70.496H61.7978V71.738H61.2518ZM63.9603 71.036C63.6203 71.036 63.3203 70.966 63.0603 70.826C62.8043 70.686 62.6043 70.494 62.4603 70.25C62.3203 70.006 62.2503 69.726 62.2503 69.41C62.2503 69.094 62.3183 68.814 62.4543 68.57C62.5943 68.326 62.7843 68.136 63.0243 68C63.2683 67.86 63.5423 67.79 63.8463 67.79C64.1543 67.79 64.4263 67.858 64.6623 67.994C64.8983 68.13 65.0823 68.322 65.2143 68.57C65.3503 68.814 65.4183 69.1 65.4183 69.428C65.4183 69.452 65.4163 69.48 65.4123 69.512C65.4123 69.544 65.4103 69.574 65.4063 69.602H62.7003V69.188H65.1063L64.8723 69.332C64.8763 69.128 64.8343 68.946 64.7463 68.786C64.6583 68.626 64.5363 68.502 64.3803 68.414C64.2283 68.322 64.0503 68.276 63.8463 68.276C63.6463 68.276 63.4683 68.322 63.3123 68.414C63.1563 68.502 63.0343 68.628 62.9463 68.792C62.8583 68.952 62.8143 69.136 62.8143 69.344V69.44C62.8143 69.652 62.8623 69.842 62.9583 70.01C63.0583 70.174 63.1963 70.302 63.3723 70.394C63.5483 70.486 63.7503 70.532 63.9783 70.532C64.1663 70.532 64.3363 70.5 64.4883 70.436C64.6443 70.372 64.7803 70.276 64.8963 70.148L65.2143 70.52C65.0703 70.688 64.8903 70.816 64.6743 70.904C64.4623 70.992 64.2243 71.036 63.9603 71.036ZM66.3119 71V67.82H66.8879V69.17H68.6999V67.82H69.2759V71H68.6999V69.668H66.8879V71H66.3119ZM72.6999 71L71.4699 69.452L71.9439 69.164L73.3779 71H72.6999ZM70.3959 71V67.82H70.9719V71H70.3959ZM70.7979 69.656V69.164H71.8479V69.656H70.7979ZM71.9919 69.476L71.4579 69.404L72.6759 67.82H73.2939L71.9919 69.476ZM73.9818 71V67.82H74.5578V70.136L76.5078 67.82H77.0298V71H76.4538V68.684L74.5098 71H73.9818ZM79.7592 71V67.82H81.2352C81.6072 67.82 81.8992 67.892 82.1112 68.036C82.3272 68.176 82.4352 68.376 82.4352 68.636C82.4352 68.896 82.3332 69.098 82.1292 69.242C81.9292 69.382 81.6632 69.452 81.3312 69.452L81.4212 69.296C81.8012 69.296 82.0832 69.366 82.2672 69.506C82.4512 69.646 82.5432 69.852 82.5432 70.124C82.5432 70.4 82.4392 70.616 82.2312 70.772C82.0272 70.924 81.7132 71 81.2892 71H79.7592ZM80.3232 70.556H81.2472C81.4872 70.556 81.6672 70.52 81.7872 70.448C81.9072 70.372 81.9672 70.252 81.9672 70.088C81.9672 69.92 81.9112 69.798 81.7992 69.722C81.6912 69.642 81.5192 69.602 81.2832 69.602H80.3232V70.556ZM80.3232 69.188H81.1872C81.4072 69.188 81.5732 69.148 81.6852 69.068C81.8012 68.984 81.8592 68.868 81.8592 68.72C81.8592 68.568 81.8012 68.454 81.6852 68.378C81.5732 68.302 81.4072 68.264 81.1872 68.264H80.3232V69.188ZM82.9407 71L84.3087 69.224L84.3027 69.518L83.0007 67.82H83.6427L84.6387 69.128H84.3927L85.3887 67.82H86.0187L84.6987 69.53L84.7047 69.224L86.0847 71H85.4307L84.3807 69.608L84.6147 69.644L83.5827 71H82.9407ZM87.9473 71.036C87.6273 71.036 87.3433 70.966 87.0953 70.826C86.8473 70.686 86.6513 70.494 86.5073 70.25C86.3633 70.002 86.2913 69.722 86.2913 69.41C86.2913 69.094 86.3633 68.814 86.5073 68.57C86.6513 68.326 86.8473 68.136 87.0953 68C87.3433 67.86 87.6273 67.79 87.9473 67.79C88.2633 67.79 88.5453 67.86 88.7933 68C89.0453 68.136 89.2413 68.326 89.3813 68.57C89.5253 68.81 89.5973 69.09 89.5973 69.41C89.5973 69.726 89.5253 70.006 89.3813 70.25C89.2413 70.494 89.0453 70.686 88.7933 70.826C88.5453 70.966 88.2633 71.036 87.9473 71.036ZM87.9473 70.532C88.1513 70.532 88.3333 70.486 88.4933 70.394C88.6573 70.302 88.7853 70.172 88.8773 70.004C88.9693 69.832 89.0153 69.634 89.0153 69.41C89.0153 69.182 88.9693 68.986 88.8773 68.822C88.7853 68.654 88.6573 68.524 88.4933 68.432C88.3333 68.34 88.1513 68.294 87.9473 68.294C87.7433 68.294 87.5613 68.34 87.4013 68.432C87.2413 68.524 87.1133 68.654 87.0173 68.822C86.9213 68.986 86.8733 69.182 86.8733 69.41C86.8733 69.634 86.9213 69.832 87.0173 70.004C87.1133 70.172 87.2413 70.302 87.4013 70.394C87.5613 70.486 87.7433 70.532 87.9473 70.532ZM92.5777 70.73V68.324H91.1977L91.1677 68.936C91.1597 69.136 91.1457 69.33 91.1257 69.518C91.1097 69.702 91.0817 69.872 91.0417 70.028C91.0057 70.184 90.9517 70.312 90.8797 70.412C90.8077 70.512 90.7117 70.574 90.5917 70.598L90.0217 70.496C90.1457 70.5 90.2457 70.46 90.3217 70.376C90.3977 70.288 90.4557 70.168 90.4957 70.016C90.5397 69.864 90.5717 69.692 90.5917 69.5C90.6117 69.304 90.6277 69.102 90.6397 68.894L90.6877 67.82H93.1537V70.73H92.5777ZM89.8957 71.738V70.496H93.6397V71.738H93.0997V71H90.4417V71.738H89.8957ZM96.34 71V70.328L96.31 70.202V69.056C96.31 68.812 96.238 68.624 96.094 68.492C95.954 68.356 95.742 68.288 95.458 68.288C95.27 68.288 95.086 68.32 94.906 68.384C94.726 68.444 94.574 68.526 94.45 68.63L94.21 68.198C94.374 68.066 94.57 67.966 94.798 67.898C95.03 67.826 95.272 67.79 95.524 67.79C95.96 67.79 96.296 67.896 96.532 68.108C96.768 68.32 96.886 68.644 96.886 69.08V71H96.34ZM95.296 71.036C95.06 71.036 94.852 70.996 94.672 70.916C94.496 70.836 94.36 70.726 94.264 70.586C94.168 70.442 94.12 70.28 94.12 70.1C94.12 69.928 94.16 69.772 94.24 69.632C94.324 69.492 94.458 69.38 94.642 69.296C94.83 69.212 95.082 69.17 95.398 69.17H96.406V69.584H95.422C95.134 69.584 94.94 69.632 94.84 69.728C94.74 69.824 94.69 69.94 94.69 70.076C94.69 70.232 94.752 70.358 94.876 70.454C95 70.546 95.172 70.592 95.392 70.592C95.608 70.592 95.796 70.544 95.956 70.448C96.12 70.352 96.238 70.212 96.31 70.028L96.424 70.424C96.348 70.612 96.214 70.762 96.022 70.874C95.83 70.982 95.588 71.036 95.296 71.036Z" fill="#212121"/>
<path d="M109.205 78.473C109.513 78.7817 110.014 78.7817 110.323 78.473L115.353 73.4424C115.662 73.1337 115.662 72.6332 115.353 72.3245C115.045 72.0158 114.544 72.0158 114.235 72.3245L109.764 76.7961L105.292 72.3245C104.983 72.0158 104.483 72.0158 104.174 72.3245C103.865 72.6332 103.865 73.1337 104.174 73.4424L109.205 78.473ZM108.973 40.1589L108.973 77.914L110.554 77.914L110.554 40.1589L108.973 40.1589Z" fill="#212121"/>
<path d="M122.664 39.5998C122.356 39.2911 121.855 39.2911 121.547 39.5998L116.516 44.6304C116.207 44.9391 116.207 45.4396 116.516 45.7483C116.825 46.057 117.325 46.057 117.634 45.7483L122.105 41.2767L126.577 45.7483C126.886 46.057 127.386 46.057 127.695 45.7483C128.004 45.4396 128.004 44.9391 127.695 44.6304L122.664 39.5998ZM122.896 78.6399L122.896 40.1588L121.315 40.1588L121.315 78.6399L122.896 78.6399Z" fill="#212121"/>
<path d="M128.185 134.685V131.878H126.575L126.54 132.592C126.531 132.825 126.514 133.052 126.491 133.271C126.472 133.486 126.44 133.684 126.393 133.866C126.351 134.048 126.288 134.197 126.204 134.314C126.12 134.431 126.008 134.503 125.868 134.531L125.203 134.412C125.348 134.417 125.464 134.37 125.553 134.272C125.642 134.169 125.709 134.029 125.756 133.852C125.807 133.675 125.845 133.474 125.868 133.25C125.891 133.021 125.91 132.786 125.924 132.543L125.98 131.29H128.857V134.685H128.185ZM125.056 135.861V134.412H129.424V135.861H128.794V135H125.693V135.861H125.056ZM131.951 135.042C131.555 135.042 131.205 134.96 130.901 134.797C130.603 134.634 130.369 134.41 130.201 134.125C130.038 133.84 129.956 133.514 129.956 133.145C129.956 132.776 130.036 132.45 130.194 132.165C130.358 131.88 130.579 131.659 130.859 131.5C131.144 131.337 131.464 131.255 131.818 131.255C132.178 131.255 132.495 131.334 132.77 131.493C133.046 131.652 133.26 131.876 133.414 132.165C133.573 132.45 133.652 132.783 133.652 133.166C133.652 133.194 133.65 133.227 133.645 133.264C133.645 133.301 133.643 133.336 133.638 133.369H130.481V132.886H133.288L133.015 133.054C133.02 132.816 132.971 132.604 132.868 132.417C132.766 132.23 132.623 132.086 132.441 131.983C132.264 131.876 132.056 131.822 131.818 131.822C131.585 131.822 131.377 131.876 131.195 131.983C131.013 132.086 130.871 132.233 130.768 132.424C130.666 132.611 130.614 132.825 130.614 133.068V133.18C130.614 133.427 130.67 133.649 130.782 133.845C130.899 134.036 131.06 134.186 131.265 134.293C131.471 134.4 131.706 134.454 131.972 134.454C132.192 134.454 132.39 134.417 132.567 134.342C132.749 134.267 132.908 134.155 133.043 134.006L133.414 134.44C133.246 134.636 133.036 134.785 132.784 134.888C132.537 134.991 132.259 135.042 131.951 135.042ZM134.695 135V131.29H135.367V132.865H137.481V131.29H138.153V135H137.481V133.446H135.367V135H134.695ZM141.175 132.55C141.646 132.555 142.005 132.662 142.253 132.872C142.5 133.082 142.624 133.378 142.624 133.761C142.624 134.162 142.488 134.473 142.218 134.692C141.947 134.907 141.564 135.012 141.07 135.007L139.46 135V131.29H140.132V132.543L141.175 132.55ZM141.014 134.496C141.317 134.501 141.546 134.44 141.7 134.314C141.858 134.188 141.938 134.001 141.938 133.754C141.938 133.511 141.861 133.334 141.707 133.222C141.553 133.11 141.322 133.052 141.014 133.047L140.132 133.033V134.489L141.014 134.496ZM143.486 135V131.29H146.216V131.878H143.997L144.158 131.724V135H143.486ZM146.904 135V131.29H147.576V133.992L149.851 131.29H150.46V135H149.788V132.298L147.52 135H146.904Z" fill="#212121"/>
<path d="M74.386 135V131.703L74.554 131.878H73.028V131.29H76.416V131.878H74.897L75.058 131.703V135H74.386ZM78.5281 135.042C78.1548 135.042 77.8234 134.96 77.5341 134.797C77.2448 134.634 77.0161 134.41 76.8481 134.125C76.6801 133.836 76.5961 133.509 76.5961 133.145C76.5961 132.776 76.6801 132.45 76.8481 132.165C77.0161 131.88 77.2448 131.659 77.5341 131.5C77.8234 131.337 78.1548 131.255 78.5281 131.255C78.8968 131.255 79.2258 131.337 79.5151 131.5C79.8091 131.659 80.0378 131.88 80.2011 132.165C80.3691 132.445 80.4531 132.772 80.4531 133.145C80.4531 133.514 80.3691 133.84 80.2011 134.125C80.0378 134.41 79.8091 134.634 79.5151 134.797C79.2258 134.96 78.8968 135.042 78.5281 135.042ZM78.5281 134.454C78.7661 134.454 78.9784 134.4 79.1651 134.293C79.3564 134.186 79.5058 134.034 79.6131 133.838C79.7204 133.637 79.7741 133.406 79.7741 133.145C79.7741 132.879 79.7204 132.65 79.6131 132.459C79.5058 132.263 79.3564 132.111 79.1651 132.004C78.9784 131.897 78.7661 131.843 78.5281 131.843C78.2901 131.843 78.0778 131.897 77.8911 132.004C77.7044 132.111 77.5551 132.263 77.4431 132.459C77.3311 132.65 77.2751 132.879 77.2751 133.145C77.2751 133.406 77.3311 133.637 77.4431 133.838C77.5551 134.034 77.7044 134.186 77.8911 134.293C78.0778 134.4 78.2901 134.454 78.5281 134.454ZM84.1115 135L82.6765 133.194L83.2295 132.858L84.9025 135H84.1115ZM81.4235 135V131.29H82.0955V135H81.4235ZM81.8925 133.432V132.858H83.1175V133.432H81.8925ZM83.2855 133.222L82.6625 133.138L84.0835 131.29H84.8045L83.2855 133.222ZM87.136 135.042C86.7393 135.042 86.3893 134.96 86.086 134.797C85.7873 134.634 85.554 134.41 85.386 134.125C85.2227 133.84 85.141 133.514 85.141 133.145C85.141 132.776 85.2203 132.45 85.379 132.165C85.5423 131.88 85.764 131.659 86.044 131.5C86.3287 131.337 86.6483 131.255 87.003 131.255C87.3623 131.255 87.6797 131.334 87.955 131.493C88.2303 131.652 88.445 131.876 88.599 132.165C88.7577 132.45 88.837 132.783 88.837 133.166C88.837 133.194 88.8347 133.227 88.83 133.264C88.83 133.301 88.8277 133.336 88.823 133.369H85.666V132.886H88.473L88.2 133.054C88.2047 132.816 88.1557 132.604 88.053 132.417C87.9503 132.23 87.808 132.086 87.626 131.983C87.4487 131.876 87.241 131.822 87.003 131.822C86.7697 131.822 86.562 131.876 86.38 131.983C86.198 132.086 86.0557 132.233 85.953 132.424C85.8503 132.611 85.799 132.825 85.799 133.068V133.18C85.799 133.427 85.855 133.649 85.967 133.845C86.0837 134.036 86.2447 134.186 86.45 134.293C86.6553 134.4 86.891 134.454 87.157 134.454C87.3763 134.454 87.5747 134.417 87.752 134.342C87.934 134.267 88.0927 134.155 88.228 134.006L88.599 134.44C88.431 134.636 88.221 134.785 87.969 134.888C87.7217 134.991 87.444 135.042 87.136 135.042ZM89.8795 135V131.29H90.5515V132.865H92.6655V131.29H93.3375V135H92.6655V133.446H90.5515V135H89.8795Z" fill="#212121"/>
<path d="M102.377 142.112C102.685 142.42 103.186 142.42 103.495 142.112L108.525 137.081C108.834 136.772 108.834 136.272 108.525 135.963C108.216 135.654 107.716 135.654 107.407 135.963L102.936 140.435L98.4639 135.963C98.1552 135.654 97.6547 135.654 97.346 135.963C97.0373 136.272 97.0373 136.772 97.346 137.081L102.377 142.112ZM102.145 122.929V141.553H103.726V122.929H102.145Z" fill="#212121"/>
<path d="M115.911 122.37C115.603 122.062 115.102 122.062 114.794 122.37L109.763 127.401C109.454 127.71 109.454 128.21 109.763 128.519C110.072 128.828 110.572 128.828 110.881 128.519L115.353 124.047L119.824 128.519C120.133 128.828 120.633 128.828 120.942 128.519C121.251 128.21 121.251 127.71 120.942 127.401L115.911 122.37ZM116.143 141.553V122.929H114.562V141.553H116.143Z" fill="#212121"/>
<path d="M314.575 19.6334C314.282 19.3405 314.282 18.8656 314.575 18.5727L319.348 13.7997C319.64 13.5068 320.115 13.5068 320.408 13.7997C320.701 14.0926 320.701 14.5675 320.408 14.8604L316.166 19.103L320.408 23.3457C320.701 23.6386 320.701 24.1134 320.408 24.4063C320.115 24.6992 319.64 24.6992 319.348 24.4063L314.575 19.6334ZM315.105 18.353H317.341V19.853H315.105V18.353ZM334.732 35.7447V49.5975H333.232V35.7447H334.732ZM317.341 18.353C326.946 18.353 334.732 26.1395 334.732 35.7447H333.232C333.232 26.968 326.117 19.853 317.341 19.853V18.353Z" fill="white"/>
<path d="M347.58 49.4018C347.287 49.6947 346.812 49.6947 346.519 49.4018L341.747 44.6289C341.454 44.336 341.454 43.8611 341.747 43.5682C342.039 43.2753 342.514 43.2753 342.807 43.5682L347.05 47.8109L351.292 43.5682C351.585 43.2753 352.06 43.2753 352.353 43.5682C352.646 43.8611 352.646 44.336 352.353 44.6289L347.58 49.4018ZM315.103 9.64038H330.408V11.1404H315.103V9.64038ZM347.8 27.032V48.8715H346.3V27.032H347.8ZM330.408 9.64038C340.013 9.64038 347.8 17.4269 347.8 27.032H346.3C346.3 18.2553 339.185 11.1404 330.408 11.1404V9.64038Z" fill="white"/>
<g filter="url(#filter5_d_474_406)">
<path d="M317.023 6.01552L317.012 3.44154L315.494 3.44832L315.461 4.15048C315.454 4.36251 315.441 4.57057 315.422 4.77466C315.407 4.97873 315.378 5.16686 315.334 5.33906C315.295 5.50723 315.238 5.64549 315.162 5.75383C315.087 5.85817 314.989 5.91861 314.869 5.93514L314.443 5.85905C314.567 5.86249 314.668 5.81804 314.748 5.72568C314.828 5.62932 314.889 5.49905 314.932 5.33485C314.976 5.17066 315.007 4.98452 315.026 4.77643C315.045 4.56434 315.06 4.34827 315.071 4.12822L315.108 3.07804L317.436 3.06764L317.449 6.01361L317.023 6.01552ZM314.316 6.99363L314.311 5.85964L317.941 5.84342L317.946 6.9774L317.544 6.9792L317.54 6.21721L314.714 6.22984L314.718 6.99183L314.316 6.99363Z" fill="white"/>
<path d="M320.399 6.2199C320.071 6.22368 319.782 6.15902 319.532 6.02589C319.283 5.88876 319.086 5.70102 318.944 5.46265C318.801 5.22028 318.728 4.94311 318.724 4.63113C318.72 4.31915 318.783 4.04241 318.913 3.8009C319.046 3.55934 319.228 3.36923 319.458 3.23056C319.692 3.08784 319.956 3.0148 320.247 3.01143C320.543 3.00801 320.806 3.07298 321.036 3.20633C321.269 3.33565 321.453 3.52153 321.588 3.76399C321.723 4.00245 321.792 4.27967 321.796 4.59565C321.796 4.61565 321.794 4.63767 321.791 4.66171C321.791 4.68171 321.791 4.70371 321.791 4.72771L319.05 4.75938L319.046 4.4414L321.56 4.41236L321.393 4.54029C321.391 4.31231 321.338 4.1109 321.236 3.93607C321.138 3.75719 321.005 3.61872 320.835 3.52067C320.666 3.42262 320.472 3.37486 320.252 3.3774C320.036 3.3799 319.842 3.43213 319.671 3.53411C319.501 3.63609 319.368 3.77763 319.274 3.95873C319.18 4.13983 319.135 4.34637 319.138 4.57835L319.138 4.64435C319.141 4.88433 319.196 5.09572 319.302 5.2785C319.412 5.45724 319.561 5.59752 319.751 5.69935C319.944 5.79712 320.162 5.8446 320.406 5.84178C320.598 5.83956 320.776 5.80351 320.939 5.73362C321.106 5.66368 321.249 5.55803 321.367 5.41665L321.611 5.68986C321.472 5.85947 321.298 5.98949 321.087 6.07993C320.88 6.17033 320.651 6.21698 320.399 6.2199Z" fill="white"/>
<path d="M322.841 6.15824L322.789 3.00866L323.215 3.0017L323.238 4.39351L325.224 4.36105L325.201 2.96924L325.627 2.96227L325.678 6.11185L325.252 6.11882L325.23 4.727L323.244 4.75946L323.267 6.15128L322.841 6.15824Z" fill="white"/>
<path d="M328.487 4.02519C328.883 4.02307 329.184 4.10643 329.391 4.27526C329.601 4.44403 329.709 4.69039 329.714 5.01435C329.719 5.35031 329.611 5.61001 329.39 5.79345C329.173 5.97682 328.854 6.06975 328.434 6.07224L327.162 6.08588L327.114 2.93625L327.54 2.92968L327.557 4.02754L328.487 4.02519ZM328.405 5.74865C328.697 5.74814 328.916 5.68675 329.063 5.56448C329.213 5.43815 329.286 5.257 329.282 5.02102C329.279 4.78505 329.202 4.61421 329.052 4.50851C328.903 4.39881 328.68 4.34424 328.384 4.34481L327.562 4.34551L327.583 5.74934L328.405 5.74865Z" fill="white"/>
<path d="M330.808 6.03305L330.788 2.88311L333.02 2.86949L333.023 3.24148L331.109 3.25316L331.216 3.14451L331.234 6.03045L330.808 6.03305Z" fill="white"/>
<path d="M333.788 6.0127L333.862 2.86359L334.288 2.8737L334.229 5.375L336.394 2.92371L336.772 2.93269L336.697 6.0818L336.271 6.07168L336.33 3.56439L334.171 6.02182L333.788 6.0127Z" fill="white"/>
<path d="M339.198 6.21358L339.731 3.10894L340.15 3.18097L339.915 4.55293L341.873 4.88873L342.108 3.51677L342.528 3.5888L341.995 6.69344L341.575 6.62141L341.811 5.24946L339.853 4.91366L339.618 6.28561L339.198 6.21358Z" fill="white"/>
<path d="M344.57 7.59254L344.808 6.93851L344.83 6.82523L345.228 5.73143C345.32 5.47959 345.319 5.26002 345.226 5.07272C345.136 4.88678 344.952 4.7432 344.674 4.64196C344.482 4.57219 344.288 4.53778 344.092 4.53875C343.896 4.53972 343.718 4.57093 343.56 4.6324L343.488 4.26791C343.685 4.19484 343.901 4.16278 344.136 4.17173C344.372 4.17693 344.607 4.22194 344.84 4.30676C345.224 4.4463 345.484 4.64954 345.621 4.91649C345.763 5.18104 345.764 5.50689 345.623 5.89404L344.954 7.73208L344.57 7.59254ZM343.539 7.24929C343.318 7.16858 343.137 7.06241 342.998 6.9308C342.863 6.7968 342.776 6.65016 342.736 6.4909C342.698 6.32788 342.709 6.16179 342.771 5.99265C342.827 5.83854 342.913 5.71246 343.03 5.61442C343.152 5.51398 343.309 5.45627 343.502 5.44129C343.699 5.42392 343.939 5.46654 344.221 5.56914L345.242 5.94058L345.133 6.2394L344.124 5.87207C343.838 5.7681 343.62 5.74633 343.471 5.80678C343.325 5.86859 343.224 5.97467 343.17 6.12502C343.108 6.29417 343.125 6.45342 343.219 6.60279C343.314 6.75216 343.48 6.86994 343.716 6.95613C343.942 7.03821 344.154 7.05793 344.353 7.01527C344.556 6.97022 344.731 6.86365 344.878 6.69555L344.867 7.00466C344.721 7.17275 344.533 7.28086 344.302 7.32897C344.076 7.37846 343.821 7.3519 343.539 7.24929Z" fill="white"/>
<path d="M348.154 9.46661C347.919 9.32953 347.738 9.152 347.611 8.93402C347.485 8.71258 347.425 8.46669 347.43 8.19632C347.44 7.92452 347.532 7.64006 347.705 7.34295C347.879 7.04583 348.08 6.82761 348.31 6.68829C348.541 6.54551 348.783 6.47601 349.036 6.47979C349.288 6.48357 349.534 6.55501 349.772 6.69411C350.031 6.84531 350.228 7.03911 350.364 7.27552C350.505 7.51049 350.572 7.76762 350.567 8.0469C350.563 8.32274 350.482 8.59712 350.323 8.87005C350.161 9.14644 349.961 9.354 349.723 9.49275C349.485 9.6315 349.227 9.69912 348.952 9.69563C348.679 9.69415 348.413 9.61781 348.154 9.46661ZM346.178 9.62656L348.353 5.90053L348.705 6.10616L348.227 6.92495L347.873 7.44792L347.605 8.02748L346.546 9.84126L346.178 9.62656ZM348.319 9.12501C348.512 9.23791 348.71 9.29552 348.913 9.29785C349.117 9.29673 349.311 9.24292 349.493 9.13641C349.678 9.02645 349.832 8.86609 349.955 8.65535C350.078 8.44461 350.14 8.23356 350.143 8.02223C350.146 7.81089 350.098 7.61596 349.998 7.43743C349.899 7.2589 349.752 7.11319 349.559 7.00029C349.365 6.8874 349.165 6.8305 348.957 6.82961C348.752 6.83073 348.559 6.88455 348.376 6.99105C348.197 7.09958 348.046 7.25921 347.923 7.46996C347.8 7.6807 347.734 7.89246 347.726 8.10524C347.723 8.31657 347.772 8.51151 347.871 8.69004C347.976 8.86713 348.125 9.01212 348.319 9.12501Z" fill="white"/>
<path d="M351.49 12.0327L351.961 11.5203L352.025 11.4242L352.812 10.5672C352.994 10.3699 353.077 10.1668 353.063 9.95796C353.051 9.75179 352.937 9.54854 352.719 9.34822C352.568 9.21017 352.403 9.10391 352.221 9.02945C352.04 8.95499 351.864 8.91568 351.694 8.91151L351.768 8.54746C351.978 8.55561 352.189 8.60898 352.403 8.70757C352.619 8.80321 352.819 8.93494 353.001 9.10278C353.302 9.37889 353.464 9.66648 353.488 9.96555C353.517 10.2644 353.393 10.5655 353.114 10.8688L351.79 12.3088L351.49 12.0327ZM350.67 11.3199C350.496 11.1601 350.37 10.9928 350.292 10.8177C350.22 10.6424 350.196 10.4736 350.22 10.3112C350.247 10.1458 350.321 9.99691 350.443 9.86439C350.554 9.74365 350.682 9.66041 350.827 9.61466C350.978 9.56868 351.146 9.57579 351.329 9.636C351.519 9.69597 351.724 9.82747 351.945 10.0305L352.744 10.7654L352.529 10.9996L351.738 10.2727C351.515 10.067 351.322 9.96329 351.161 9.96159C351.002 9.9626 350.869 10.022 350.76 10.1398C350.639 10.2723 350.593 10.4257 350.623 10.6C350.653 10.7742 350.76 10.9466 350.946 11.1171C351.123 11.2796 351.311 11.3792 351.511 11.4161C351.716 11.4528 351.918 11.4216 352.118 11.3226L351.99 11.604C351.79 11.703 351.575 11.7305 351.344 11.6864C351.115 11.6451 350.891 11.5229 350.67 11.3199Z" fill="white"/>
<path d="M352.776 13.572C352.655 13.3792 352.561 13.1709 352.496 12.9473C352.43 12.7237 352.408 12.504 352.428 12.2881L352.77 12.2352C352.757 12.4235 352.778 12.6182 352.834 12.8194C352.893 13.0184 352.975 13.2009 353.079 13.3667C353.187 13.5303 353.302 13.6592 353.423 13.7532C353.543 13.8473 353.664 13.9036 353.784 13.9222C353.905 13.9408 354.014 13.9192 354.112 13.8573C354.254 13.7677 354.324 13.6341 354.321 13.4564C354.321 13.2767 354.25 13.0751 354.11 12.8518L353.822 12.395L354.085 12.2286L354.358 12.66C354.441 12.792 354.531 12.898 354.629 12.9782C354.727 13.0584 354.825 13.1053 354.923 13.1189C355.024 13.1358 355.118 13.1166 355.206 13.0611C355.301 13.0014 355.361 12.9163 355.386 12.806C355.413 12.699 355.407 12.5774 355.369 12.441C355.33 12.3046 355.265 12.1637 355.173 12.0182C355.086 11.8884 354.98 11.7642 354.853 11.6455C354.729 11.5247 354.588 11.4174 354.43 11.3235L354.645 11.046C354.824 11.1504 354.982 11.2659 355.119 11.3926C355.261 11.5205 355.381 11.6623 355.479 11.8179C355.62 12.0268 355.716 12.234 355.765 12.4394C355.816 12.6482 355.82 12.8375 355.775 13.0073C355.734 13.175 355.64 13.3057 355.491 13.3996C355.359 13.4828 355.218 13.5148 355.069 13.4954C354.919 13.4761 354.775 13.4158 354.636 13.3146C354.496 13.2134 354.372 13.0765 354.263 12.904L354.369 12.8584C354.561 13.1629 354.651 13.4371 354.64 13.6809C354.63 13.9282 354.524 14.1158 354.321 14.2438C354.162 14.3441 353.988 14.3802 353.8 14.3521C353.616 14.3219 353.433 14.2385 353.252 14.1018C353.074 13.9685 352.915 13.792 352.776 13.572Z" fill="white"/>
<path d="M353.876 15.4332L356.899 14.5476L357.291 15.8835C357.391 16.2251 357.404 16.5129 357.331 16.7469C357.259 16.9848 357.096 17.1408 356.843 17.215C356.597 17.287 356.38 17.2486 356.19 17.0999C356.005 16.95 355.867 16.7216 355.777 16.4145L355.921 16.4597C356.027 16.8205 356.037 17.105 355.953 17.3133C355.868 17.5216 355.699 17.6628 355.445 17.737C355.184 17.8135 354.953 17.7771 354.751 17.6279C354.553 17.4814 354.396 17.2086 354.279 16.8094L353.876 15.4332ZM354.315 15.736L354.597 16.6976C354.672 16.9548 354.769 17.1369 354.888 17.2438C355.012 17.3534 355.166 17.3812 355.35 17.3272C355.534 17.2732 355.651 17.1744 355.701 17.0306C355.751 16.8869 355.738 16.6864 355.662 16.4292L355.369 15.4274L354.315 15.736ZM355.674 15.3379L355.94 16.2477C356.009 16.4819 356.106 16.6474 356.23 16.7444C356.355 16.8452 356.502 16.8709 356.671 16.8214C356.84 16.7719 356.948 16.6715 356.996 16.5201C357.044 16.3725 357.034 16.1816 356.965 15.9475L356.699 15.0377L355.674 15.3379Z" fill="white"/>
<path d="M354.711 18.5501L357.852 18.3067L357.885 18.7314L355.39 18.9248L358.048 20.8311L358.077 21.2079L354.936 21.4514L354.903 21.0267L357.404 20.8328L354.741 18.933L354.711 18.5501Z" fill="white"/>
<path d="M354.898 23.2294L357.789 23.3221L357.671 23.4264L357.713 22.1251L358.085 22.137L357.994 24.9495L357.623 24.9376L357.664 23.6363L357.775 23.7479L354.884 23.6552L354.898 23.2294Z" fill="white"/>
<path d="M354.802 25.4376L357.94 25.7107L357.903 26.1351L355.411 25.9182L357.721 28.2331L357.688 28.6097L354.55 28.3367L354.587 27.9123L357.085 28.1297L354.769 25.8202L354.802 25.4376Z" fill="white"/>
<path d="M354.268 31.2124C354.291 30.8852 354.379 30.6027 354.532 30.3648C354.689 30.1272 354.892 29.9469 355.141 29.8241C355.394 29.7015 355.677 29.6511 355.988 29.6729C356.299 29.6947 356.57 29.7798 356.8 29.9282C357.03 30.0807 357.204 30.2774 357.324 30.5183C357.447 30.7635 357.498 31.0318 357.478 31.323C357.457 31.6183 357.371 31.8749 357.22 32.0929C357.072 32.3151 356.872 32.4835 356.619 32.5981C356.37 32.713 356.088 32.7594 355.773 32.7373C355.753 32.7359 355.731 32.7324 355.708 32.7267C355.688 32.7254 355.666 32.7238 355.642 32.7221L355.833 29.9868L356.151 30.0091L355.975 32.5169L355.861 32.3405C356.088 32.3565 356.293 32.3207 356.476 32.2332C356.662 32.1501 356.811 32.0282 356.923 31.8676C357.034 31.707 357.098 31.5169 357.113 31.2975C357.128 31.082 357.092 30.885 357.004 30.7064C356.916 30.5278 356.786 30.3844 356.613 30.276C356.44 30.1677 356.238 30.1054 356.007 30.0892L355.941 30.0846C355.701 30.0678 355.486 30.1049 355.296 30.1958C355.108 30.2909 354.956 30.4286 354.84 30.6089C354.726 30.7934 354.661 31.0074 354.644 31.2508C354.631 31.4424 354.652 31.6223 354.709 31.7906C354.765 31.963 354.858 32.1139 354.99 32.2434L354.698 32.4635C354.54 32.3121 354.424 32.1276 354.351 31.91C354.278 31.6963 354.25 31.4638 354.268 31.2124Z" fill="white"/>
</g>
<g filter="url(#filter6_d_474_406)">
<path d="M328.362 44.7613H325.47L325.584 44.6533V45.9553H325.212V43.1413H325.584V44.4433L325.47 44.3353H328.362V44.7613ZM328.392 41.3758C328.392 41.6798 328.324 41.9538 328.188 42.1978C328.048 42.4378 327.858 42.6278 327.618 42.7678C327.374 42.9078 327.096 42.9778 326.784 42.9778C326.468 42.9778 326.19 42.9078 325.95 42.7678C325.71 42.6278 325.522 42.4378 325.386 42.1978C325.25 41.9578 325.182 41.6838 325.182 41.3758C325.182 41.0638 325.25 40.7878 325.386 40.5478C325.522 40.3038 325.71 40.1138 325.95 39.9778C326.19 39.8378 326.468 39.7678 326.784 39.7678C327.096 39.7678 327.374 39.8378 327.618 39.9778C327.858 40.1138 328.048 40.3038 328.188 40.5478C328.324 40.7918 328.392 41.0678 328.392 41.3758ZM328.014 41.3758C328.014 41.1478 327.964 40.9458 327.864 40.7698C327.76 40.5938 327.616 40.4558 327.432 40.3558C327.244 40.2518 327.028 40.1998 326.784 40.1998C326.536 40.1998 326.32 40.2518 326.136 40.3558C325.952 40.4558 325.81 40.5938 325.71 40.7698C325.606 40.9458 325.554 41.1458 325.554 41.3698C325.554 41.5938 325.606 41.7938 325.71 41.9698C325.81 42.1458 325.952 42.2858 326.136 42.3898C326.32 42.4938 326.536 42.5458 326.784 42.5458C327.028 42.5458 327.244 42.4938 327.432 42.3898C327.616 42.2858 327.76 42.1458 327.864 41.9698C327.964 41.7938 328.014 41.5958 328.014 41.3758ZM328.362 36.5474L326.802 37.8434L326.592 37.4894L328.362 36.0434V36.5474ZM328.362 38.8574H325.212V38.4314H328.362V38.8574ZM326.958 38.5634H326.592V37.5494H326.958V38.5634ZM326.832 37.4534L326.772 37.8494L325.212 36.5954V36.1334L326.832 37.4534ZM328.392 34.1324C328.392 34.4604 328.324 34.7484 328.188 34.9964C328.048 35.2444 327.858 35.4384 327.618 35.5784C327.374 35.7184 327.096 35.7884 326.784 35.7884C326.472 35.7884 326.196 35.7224 325.956 35.5904C325.716 35.4544 325.528 35.2704 325.392 35.0384C325.252 34.8024 325.182 34.5384 325.182 34.2464C325.182 33.9504 325.25 33.6884 325.386 33.4604C325.518 33.2284 325.706 33.0464 325.95 32.9144C326.19 32.7824 326.468 32.7164 326.784 32.7164C326.804 32.7164 326.826 32.7184 326.85 32.7224C326.87 32.7224 326.892 32.7224 326.916 32.7224V35.4644H326.598V32.9504L326.724 33.1184C326.496 33.1184 326.294 33.1684 326.118 33.2684C325.938 33.3644 325.798 33.4964 325.698 33.6644C325.598 33.8324 325.548 34.0264 325.548 34.2464C325.548 34.4624 325.598 34.6564 325.698 34.8284C325.798 35.0004 325.938 35.1344 326.118 35.2304C326.298 35.3264 326.504 35.3744 326.736 35.3744H326.802C327.042 35.3744 327.254 35.3224 327.438 35.2184C327.618 35.1104 327.76 34.9624 327.864 34.7744C327.964 34.5824 328.014 34.3644 328.014 34.1204C328.014 33.9284 327.98 33.7504 327.912 33.5864C327.844 33.4184 327.74 33.2744 327.6 33.1544L327.876 32.9144C328.044 33.0544 328.172 33.2304 328.26 33.4424C328.348 33.6504 328.392 33.8804 328.392 34.1324ZM328.362 31.7734H325.212V31.3474H326.604V29.3614H325.212V28.9354H328.362V29.3614H326.97V31.3474H328.362V31.7734Z" fill="white"/>
</g>
<defs>
<filter id="filter0_d_474_406" x="40.3669" y="34.8508" width="138.84" height="124.319" filterUnits="userSpaceOnUse" color-interpolation-filters="sRGB">
<feFlood flood-opacity="0" result="BackgroundImageFix"/>
<feColorMatrix in="SourceAlpha" type="matrix" values="0 0 0 0 0 0 0 0 0 0 0 0 0 0 0 0 0 0 127 0" result="hardAlpha"/>
<feOffset dy="4.43778"/>
<feGaussianBlur stdDeviation="2.21889"/>
<feComposite in2="hardAlpha" operator="out"/>
<feColorMatrix type="matrix" values="0 0 0 0 0 0 0 0 0 0 0 0 0 0 0 0 0 0 0.25 0"/>
<feBlend mode="normal" in2="BackgroundImageFix" result="effect1_dropShadow_474_406"/>
<feBlend mode="normal" in="SourceGraphic" in2="effect1_dropShadow_474_406" result="shape"/>
</filter>
<filter id="filter1_d_474_406" x="48.6911" y="86.6267" width="121.415" height="36.4659" filterUnits="userSpaceOnUse" color-interpolation-filters="sRGB">
<feFlood flood-opacity="0" result="BackgroundImageFix"/>
<feColorMatrix in="SourceAlpha" type="matrix" values="0 0 0 0 0 0 0 0 0 0 0 0 0 0 0 0 0 0 127 0" result="hardAlpha"/>
<feOffset dy="4.43778"/>
<feGaussianBlur stdDeviation="2.21889"/>
<feComposite in2="hardAlpha" operator="out"/>
<feColorMatrix type="matrix" values="0 0 0 0 0 0 0 0 0 0 0 0 0 0 0 0 0 0 0.25 0"/>
<feBlend mode="normal" in2="BackgroundImageFix" result="effect1_dropShadow_474_406"/>
<feBlend mode="normal" in="SourceGraphic" in2="effect1_dropShadow_474_406" result="shape"/>
</filter>
<filter id="filter2_d_474_406" x="39.7996" y="158" width="274.401" height="35.0729" filterUnits="userSpaceOnUse" color-interpolation-filters="sRGB">
<feFlood flood-opacity="0" result="BackgroundImageFix"/>
<feColorMatrix in="SourceAlpha" type="matrix" values="0 0 0 0 0 0 0 0 0 0 0 0 0 0 0 0 0 0 127 0" result="hardAlpha"/>
<feOffset dy="4.2004"/>
<feGaussianBlur stdDeviation="2.1002"/>
<feComposite in2="hardAlpha" operator="out"/>
<feColorMatrix type="matrix" values="0 0 0 0 0 0 0 0 0 0 0 0 0 0 0 0 0 0 0.25 0"/>
<feBlend mode="normal" in2="BackgroundImageFix" result="effect1_dropShadow_474_406"/>
<feBlend mode="normal" in="SourceGraphic" in2="effect1_dropShadow_474_406" result="shape"/>
</filter>
<filter id="filter3_d_474_406" x="321.692" y="52.5017" width="34.2877" height="96.0028" filterUnits="userSpaceOnUse" color-interpolation-filters="sRGB">
<feFlood flood-opacity="0" result="BackgroundImageFix"/>
<feColorMatrix in="SourceAlpha" type="matrix" values="0 0 0 0 0 0 0 0 0 0 0 0 0 0 0 0 0 0 127 0" result="hardAlpha"/>
<feOffset dy="4.43778"/>
<feGaussianBlur stdDeviation="2.21889"/>
<feComposite in2="hardAlpha" operator="out"/>
<feColorMatrix type="matrix" values="0 0 0 0 0 0 0 0 0 0 0 0 0 0 0 0 0 0 0.25 0"/>
<feBlend mode="normal" in2="BackgroundImageFix" result="effect1_dropShadow_474_406"/>
<feBlend mode="normal" in="SourceGraphic" in2="effect1_dropShadow_474_406" result="shape"/>
</filter>
<filter id="filter4_d_474_406" x="39.2546" y="1.67749" width="276.792" height="35.7398" filterUnits="userSpaceOnUse" color-interpolation-filters="sRGB">
<feFlood flood-opacity="0" result="BackgroundImageFix"/>
<feColorMatrix in="SourceAlpha" type="matrix" values="0 0 0 0 0 0 0 0 0 0 0 0 0 0 0 0 0 0 127 0" result="hardAlpha"/>
<feOffset dy="4.43778"/>
<feGaussianBlur stdDeviation="2.21889"/>
<feComposite in2="hardAlpha" operator="out"/>
<feColorMatrix type="matrix" values="0 0 0 0 0 0 0 0 0 0 0 0 0 0 0 0 0 0 0.25 0"/>
<feBlend mode="normal" in2="BackgroundImageFix" result="effect1_dropShadow_474_406"/>
<feBlend mode="normal" in="SourceGraphic" in2="effect1_dropShadow_474_406" result="shape"/>
</filter>
<filter id="filter5_d_474_406" x="309.829" y="2.86353" width="52.7248" height="38.9235" filterUnits="userSpaceOnUse" color-interpolation-filters="sRGB">
<feFlood flood-opacity="0" result="BackgroundImageFix"/>
<feColorMatrix in="SourceAlpha" type="matrix" values="0 0 0 0 0 0 0 0 0 0 0 0 0 0 0 0 0 0 127 0" result="hardAlpha"/>
<feOffset dy="4.46883"/>
<feGaussianBlur stdDeviation="2.23441"/>
<feComposite in2="hardAlpha" operator="out"/>
<feColorMatrix type="matrix" values="0 0 0 0 0 0 0 0 0 0 0 0 0 0 0 0 0 0 0.25 0"/>
<feBlend mode="normal" in2="BackgroundImageFix" result="effect1_dropShadow_474_406"/>
<feBlend mode="normal" in="SourceGraphic" in2="effect1_dropShadow_474_406" result="shape"/>
</filter>
<filter id="filter6_d_474_406" x="320.745" y="28.9353" width="12.0855" height="25.8956" filterUnits="userSpaceOnUse" color-interpolation-filters="sRGB">
<feFlood flood-opacity="0" result="BackgroundImageFix"/>
<feColorMatrix in="SourceAlpha" type="matrix" values="0 0 0 0 0 0 0 0 0 0 0 0 0 0 0 0 0 0 127 0" result="hardAlpha"/>
<feOffset dy="4.43778"/>
<feGaussianBlur stdDeviation="2.21889"/>
<feComposite in2="hardAlpha" operator="out"/>
<feColorMatrix type="matrix" values="0 0 0 0 0 0 0 0 0 0 0 0 0 0 0 0 0 0 0.25 0"/>
<feBlend mode="normal" in2="BackgroundImageFix" result="effect1_dropShadow_474_406"/>
<feBlend mode="normal" in="SourceGraphic" in2="effect1_dropShadow_474_406" result="shape"/>
</filter>
<linearGradient id="paint0_linear_474_406" x1="44" y1="171.336" x2="310" y2="171.336" gradientUnits="userSpaceOnUse">
<stop stop-color="#828DDB"/>
<stop offset="1" stop-color="#454B75"/>
</linearGradient>
<linearGradient id="paint1_linear_474_406" x1="326.13" y1="96.0653" x2="351.542" y2="96.0653" gradientUnits="userSpaceOnUse">
<stop stop-color="#828DDB"/>
<stop offset="1" stop-color="#454B75"/>
</linearGradient>
</defs>
</svg>
