<svg width="475" height="283" viewBox="0 0 475 283" fill="none" xmlns="http://www.w3.org/2000/svg">
<g filter="url(#filter0_d_447_16)">
<rect x="6.67383" y="52.1188" width="194.369" height="172.652" rx="18.4596" fill="white"/>
<rect x="6.67383" y="52.1188" width="194.369" height="172.652" rx="18.4596" fill="white"/>
<rect x="7.75969" y="53.2046" width="192.197" height="170.48" rx="17.3737" stroke="#8088C1" stroke-width="2.17172"/>
</g>
<path d="M47.7984 158.374C46.2493 158.374 44.8521 158.041 43.607 157.375C42.3619 156.695 41.3846 155.761 40.6752 154.574C39.9658 153.372 39.6111 152.033 39.6111 150.556C39.6111 149.079 39.9658 147.747 40.6752 146.56C41.3846 145.359 42.3619 144.425 43.607 143.759C44.8521 143.078 46.2493 142.738 47.7984 142.738C49.3476 142.738 50.7447 143.078 51.9899 143.759C53.235 144.425 54.2122 145.351 54.9217 146.539C55.6311 147.726 55.9858 149.065 55.9858 150.556C55.9858 152.047 55.6311 153.387 54.9217 154.574C54.2122 155.761 53.235 156.695 51.9899 157.375C50.7447 158.041 49.3476 158.374 47.7984 158.374ZM47.7984 155.899C48.8119 155.899 49.724 155.674 50.5348 155.225C51.3456 154.762 51.9826 154.125 52.4459 153.314C52.9092 152.489 53.1409 151.57 53.1409 150.556C53.1409 149.543 52.9092 148.631 52.4459 147.82C51.9826 146.995 51.3456 146.358 50.5348 145.909C49.724 145.445 48.8119 145.214 47.7984 145.214C46.785 145.214 45.8728 145.445 45.0621 145.909C44.2513 146.358 43.6143 146.995 43.151 147.82C42.6877 148.631 42.456 149.543 42.456 150.556C42.456 151.57 42.6877 152.489 43.151 153.314C43.6143 154.125 44.2513 154.762 45.0621 155.225C45.8728 155.674 46.785 155.899 47.7984 155.899ZM61.8501 145.344H56.8117V142.955H69.7117V145.344H64.6734V158.157H61.8501V145.344ZM78.6548 158.374C77.1201 158.374 75.7302 158.041 74.4851 157.375C73.2545 156.695 72.2844 155.761 71.575 154.574C70.8801 153.387 70.5326 152.047 70.5326 150.556C70.5326 149.065 70.8873 147.726 71.5967 146.539C72.3062 145.351 73.2762 144.425 74.5068 143.759C75.7519 143.078 77.1418 142.738 78.6765 142.738C79.9216 142.738 81.0582 142.955 82.0861 143.39C83.1141 143.824 83.9828 144.454 84.6922 145.279L82.8679 146.995C81.7676 145.807 80.4139 145.214 78.8068 145.214C77.7644 145.214 76.8306 145.445 76.0053 145.909C75.1801 146.358 74.5358 146.987 74.0725 147.798C73.6092 148.609 73.3775 149.528 73.3775 150.556C73.3775 151.584 73.6092 152.504 74.0725 153.314C74.5358 154.125 75.1801 154.762 76.0053 155.225C76.8306 155.674 77.7644 155.899 78.8068 155.899C80.4139 155.899 81.7676 155.298 82.8679 154.096L84.6922 155.833C83.9828 156.659 83.1068 157.289 82.0644 157.723C81.0365 158.157 79.8999 158.374 78.6548 158.374ZM99.6103 146.43C100.74 146.43 101.746 146.676 102.629 147.168C103.527 147.661 104.229 148.356 104.736 149.253C105.242 150.151 105.496 151.186 105.496 152.359C105.496 153.531 105.242 154.574 104.736 155.486C104.229 156.384 103.527 157.079 102.629 157.571C101.746 158.063 100.74 158.309 99.6103 158.309C98.0467 158.309 96.8088 157.788 95.8967 156.746V162.37H93.1821V146.56H95.7664V148.08C96.2152 147.53 96.7654 147.118 97.4169 146.843C98.0829 146.567 98.8141 146.43 99.6103 146.43ZM99.3063 155.986C100.305 155.986 101.123 155.653 101.76 154.987C102.412 154.321 102.738 153.445 102.738 152.359C102.738 151.273 102.412 150.397 101.76 149.731C101.123 149.065 100.305 148.732 99.3063 148.732C98.6548 148.732 98.0684 148.884 97.5472 149.188C97.026 149.478 96.6134 149.897 96.3093 150.448C96.0053 150.998 95.8533 151.635 95.8533 152.359C95.8533 153.083 96.0053 153.72 96.3093 154.27C96.6134 154.82 97.026 155.247 97.5472 155.551C98.0684 155.841 98.6548 155.986 99.3063 155.986ZM113.844 150.382C115.321 150.382 116.45 150.715 117.232 151.381C118.014 152.047 118.405 152.989 118.405 154.205C118.405 155.479 117.97 156.463 117.101 157.158C116.247 157.853 115.031 158.193 113.453 158.179L108.197 158.157V146.56H110.912V150.361L113.844 150.382ZM119.903 146.56H122.618V158.157H119.903V146.56ZM113.214 156.181C114.01 156.195 114.619 156.029 115.038 155.681C115.458 155.334 115.668 154.827 115.668 154.161C115.668 153.51 115.465 153.032 115.06 152.728C114.655 152.424 114.039 152.265 113.214 152.25L110.912 152.228V156.159L113.214 156.181ZM126.267 146.56H128.981V151.273H134.823V146.56H137.538V158.157H134.823V153.575H128.981V158.157H126.267V146.56ZM146.345 158.309C145.172 158.309 144.115 158.056 143.174 157.549C142.233 157.042 141.495 156.34 140.959 155.443C140.438 154.53 140.177 153.503 140.177 152.359C140.177 151.215 140.438 150.194 140.959 149.297C141.495 148.399 142.233 147.697 143.174 147.19C144.115 146.683 145.172 146.43 146.345 146.43C147.532 146.43 148.596 146.683 149.537 147.19C150.478 147.697 151.209 148.399 151.731 149.297C152.266 150.194 152.534 151.215 152.534 152.359C152.534 153.503 152.266 154.53 151.731 155.443C151.209 156.34 150.478 157.042 149.537 157.549C148.596 158.056 147.532 158.309 146.345 158.309ZM146.345 155.986C147.344 155.986 148.169 155.653 148.821 154.987C149.472 154.321 149.798 153.445 149.798 152.359C149.798 151.273 149.472 150.397 148.821 149.731C148.169 149.065 147.344 148.732 146.345 148.732C145.346 148.732 144.521 149.065 143.869 149.731C143.232 150.397 142.914 151.273 142.914 152.359C142.914 153.445 143.232 154.321 143.869 154.987C144.521 155.653 145.346 155.986 146.345 155.986ZM160.037 153.51H157.931V158.157H155.216V146.56H157.931V151.251H160.102L163.534 146.56H166.444L162.231 152.142L166.726 158.157H163.534L160.037 153.51Z" fill="#212121"/>
<g filter="url(#filter1_d_447_16)">
<rect x="20.1546" y="130.584" width="166.245" height="39.1995" rx="19.5997" stroke="#212121" stroke-width="2.06313" shape-rendering="crispEdges"/>
</g>
<g filter="url(#filter2_d_447_16)">
<rect x="5" y="235.145" width="401" height="38.8537" rx="19.4268" fill="url(#paint0_linear_447_16)"/>
<path d="M88.1133 262.21C86.9652 262.21 85.9081 262.021 84.942 261.643C83.9759 261.265 83.1359 260.74 82.4218 260.068C81.7077 259.382 81.1547 258.583 80.7626 257.673C80.3706 256.749 80.1746 255.741 80.1746 254.649C80.1746 253.557 80.3706 252.556 80.7626 251.646C81.1547 250.722 81.7077 249.924 82.4218 249.252C83.1359 248.565 83.9759 248.033 84.942 247.655C85.9081 247.277 86.9582 247.088 88.0923 247.088C89.2404 247.088 90.2905 247.277 91.2426 247.655C92.2087 248.033 93.0488 248.565 93.7629 249.252C94.4769 249.924 95.03 250.722 95.422 251.646C95.8141 252.556 96.0101 253.557 96.0101 254.649C96.0101 255.741 95.8141 256.749 95.422 257.673C95.03 258.597 94.4769 259.396 93.7629 260.068C93.0488 260.74 92.2087 261.265 91.2426 261.643C90.2905 262.021 89.2474 262.21 88.1133 262.21ZM88.0923 259.816C88.8344 259.816 89.5205 259.69 90.1505 259.438C90.7806 259.185 91.3266 258.828 91.7887 258.366C92.2507 257.89 92.6078 257.344 92.8598 256.728C93.1258 256.098 93.2588 255.405 93.2588 254.649C93.2588 253.893 93.1258 253.207 92.8598 252.591C92.6078 251.961 92.2507 251.415 91.7887 250.953C91.3266 250.477 90.7806 250.113 90.1505 249.861C89.5205 249.609 88.8344 249.483 88.0923 249.483C87.3503 249.483 86.6642 249.609 86.0341 249.861C85.4181 250.113 84.872 250.477 84.396 250.953C83.9339 251.415 83.5699 251.961 83.3039 252.591C83.0519 253.207 82.9258 253.893 82.9258 254.649C82.9258 255.391 83.0519 256.077 83.3039 256.707C83.5699 257.337 83.9339 257.89 84.396 258.366C84.858 258.828 85.4041 259.185 86.0341 259.438C86.6642 259.69 87.3503 259.816 88.0923 259.816ZM105.854 262.21C104.706 262.21 103.649 262.021 102.683 261.643C101.717 261.265 100.877 260.74 100.163 260.068C99.4487 259.382 98.8956 258.583 98.5036 257.673C98.1115 256.749 97.9155 255.741 97.9155 254.649C97.9155 253.557 98.1115 252.556 98.5036 251.646C98.8956 250.722 99.4487 249.924 100.163 249.252C100.877 248.565 101.717 248.033 102.683 247.655C103.649 247.277 104.699 247.088 105.833 247.088C106.981 247.088 108.031 247.277 108.984 247.655C109.95 248.033 110.79 248.565 111.504 249.252C112.218 249.924 112.771 250.722 113.163 251.646C113.555 252.556 113.751 253.557 113.751 254.649C113.751 255.741 113.555 256.749 113.163 257.673C112.771 258.597 112.218 259.396 111.504 260.068C110.79 260.74 109.95 261.265 108.984 261.643C108.031 262.021 106.988 262.21 105.854 262.21ZM105.833 259.816C106.575 259.816 107.261 259.69 107.891 259.438C108.522 259.185 109.068 258.828 109.53 258.366C109.992 257.89 110.349 257.344 110.601 256.728C110.867 256.098 111 255.405 111 254.649C111 253.893 110.867 253.207 110.601 252.591C110.349 251.961 109.992 251.415 109.53 250.953C109.068 250.477 108.522 250.113 107.891 249.861C107.261 249.609 106.575 249.483 105.833 249.483C105.091 249.483 104.405 249.609 103.775 249.861C103.159 250.113 102.613 250.477 102.137 250.953C101.675 251.415 101.311 251.961 101.045 252.591C100.793 253.207 100.667 253.893 100.667 254.649C100.667 255.391 100.793 256.077 101.045 256.707C101.311 257.337 101.675 257.89 102.137 258.366C102.599 258.828 103.145 259.185 103.775 259.438C104.405 259.69 105.091 259.816 105.833 259.816ZM123.595 262.21C122.447 262.21 121.39 262.021 120.424 261.643C119.458 261.265 118.618 260.74 117.904 260.068C117.19 259.382 116.637 258.583 116.245 257.673C115.852 256.749 115.656 255.741 115.656 254.649C115.656 253.557 115.852 252.556 116.245 251.646C116.637 250.722 117.19 249.924 117.904 249.252C118.618 248.565 119.458 248.033 120.424 247.655C121.39 247.277 122.44 247.088 123.574 247.088C124.722 247.088 125.772 247.277 126.724 247.655C127.691 248.033 128.531 248.565 129.245 249.252C129.959 249.924 130.512 250.722 130.904 251.646C131.296 252.556 131.492 253.557 131.492 254.649C131.492 255.741 131.296 256.749 130.904 257.673C130.512 258.597 129.959 259.396 129.245 260.068C128.531 260.74 127.691 261.265 126.724 261.643C125.772 262.021 124.729 262.21 123.595 262.21ZM123.574 259.816C124.316 259.816 125.002 259.69 125.632 259.438C126.262 259.185 126.809 258.828 127.271 258.366C127.733 257.89 128.09 257.344 128.342 256.728C128.608 256.098 128.741 255.405 128.741 254.649C128.741 253.893 128.608 253.207 128.342 252.591C128.09 251.961 127.733 251.415 127.271 250.953C126.809 250.477 126.262 250.113 125.632 249.861C125.002 249.609 124.316 249.483 123.574 249.483C122.832 249.483 122.146 249.609 121.516 249.861C120.9 250.113 120.354 250.477 119.878 250.953C119.416 251.415 119.052 251.961 118.786 252.591C118.534 253.207 118.408 253.893 118.408 254.649C118.408 255.391 118.534 256.077 118.786 256.707C119.052 257.337 119.416 257.89 119.878 258.366C120.34 258.828 120.886 259.185 121.516 259.438C122.146 259.69 122.832 259.816 123.574 259.816ZM142.352 246.416L141.134 251.079L140.798 249.504C141.288 249.504 141.694 249.658 142.016 249.966C142.338 250.274 142.499 250.687 142.499 251.205C142.499 251.723 142.338 252.143 142.016 252.465C141.694 252.773 141.295 252.927 140.819 252.927C140.315 252.927 139.902 252.766 139.58 252.444C139.258 252.122 139.097 251.709 139.097 251.205C139.097 251.037 139.104 250.883 139.118 250.743C139.146 250.589 139.195 250.407 139.265 250.197C139.335 249.987 139.433 249.721 139.559 249.399L140.672 246.416H142.352ZM146.804 246.416L145.586 251.079L145.25 249.504C145.74 249.504 146.146 249.658 146.468 249.966C146.79 250.274 146.951 250.687 146.951 251.205C146.951 251.723 146.79 252.143 146.468 252.465C146.146 252.773 145.747 252.927 145.271 252.927C144.767 252.927 144.354 252.766 144.032 252.444C143.71 252.122 143.549 251.709 143.549 251.205C143.549 251.037 143.556 250.883 143.57 250.743C143.598 250.589 143.647 250.407 143.717 250.197C143.787 249.987 143.885 249.721 144.011 249.399L145.124 246.416H146.804ZM154.836 262V247.3H159.792V258.157H166.428V262H154.836ZM173.299 262.21C171.997 262.21 170.842 261.958 169.834 261.454C168.84 260.936 168.056 260.229 167.482 259.333C166.908 258.437 166.621 257.408 166.621 256.246C166.621 255.084 166.908 254.055 167.482 253.159C168.056 252.263 168.84 251.563 169.834 251.059C170.842 250.555 171.997 250.303 173.299 250.303C174.601 250.303 175.756 250.555 176.764 251.059C177.772 251.563 178.556 252.263 179.116 253.159C179.69 254.055 179.977 255.084 179.977 256.246C179.977 257.408 179.69 258.437 179.116 259.333C178.556 260.229 177.772 260.936 176.764 261.454C175.756 261.958 174.601 262.21 173.299 262.21ZM173.299 258.514C173.649 258.514 173.964 258.43 174.244 258.262C174.524 258.094 174.748 257.842 174.916 257.506C175.084 257.156 175.168 256.736 175.168 256.246C175.168 255.742 175.084 255.329 174.916 255.007C174.748 254.671 174.524 254.419 174.244 254.251C173.964 254.083 173.649 253.999 173.299 253.999C172.949 253.999 172.634 254.083 172.354 254.251C172.074 254.419 171.85 254.671 171.682 255.007C171.514 255.329 171.43 255.742 171.43 256.246C171.43 256.736 171.514 257.156 171.682 257.506C171.85 257.842 172.074 258.094 172.354 258.262C172.634 258.43 172.949 258.514 173.299 258.514ZM187.111 262.21C185.809 262.21 184.654 261.958 183.646 261.454C182.652 260.936 181.868 260.229 181.294 259.333C180.72 258.437 180.433 257.408 180.433 256.246C180.433 255.084 180.72 254.055 181.294 253.159C181.868 252.263 182.652 251.563 183.646 251.059C184.654 250.555 185.809 250.303 187.111 250.303C188.413 250.303 189.568 250.555 190.576 251.059C191.584 251.563 192.368 252.263 192.928 253.159C193.502 254.055 193.789 255.084 193.789 256.246C193.789 257.408 193.502 258.437 192.928 259.333C192.368 260.229 191.584 260.936 190.576 261.454C189.568 261.958 188.413 262.21 187.111 262.21ZM187.111 258.514C187.461 258.514 187.776 258.43 188.056 258.262C188.336 258.094 188.56 257.842 188.728 257.506C188.896 257.156 188.98 256.736 188.98 256.246C188.98 255.742 188.896 255.329 188.728 255.007C188.56 254.671 188.336 254.419 188.056 254.251C187.776 254.083 187.461 253.999 187.111 253.999C186.761 253.999 186.446 254.083 186.166 254.251C185.886 254.419 185.662 254.671 185.494 255.007C185.326 255.329 185.242 255.742 185.242 256.246C185.242 256.736 185.326 257.156 185.494 257.506C185.662 257.842 185.886 258.094 186.166 258.262C186.446 258.43 186.761 258.514 187.111 258.514ZM202.835 250.303C203.717 250.303 204.515 250.485 205.229 250.849C205.943 251.199 206.503 251.752 206.909 252.508C207.329 253.264 207.539 254.244 207.539 255.448V262H202.793V256.267C202.793 255.553 202.667 255.049 202.415 254.755C202.163 254.447 201.82 254.293 201.386 254.293C201.064 254.293 200.763 254.37 200.483 254.524C200.217 254.664 200 254.902 199.832 255.238C199.678 255.574 199.601 256.029 199.601 256.603V262H194.855V250.513H199.37V253.873L198.467 252.907C198.915 252.039 199.517 251.388 200.273 250.954C201.043 250.52 201.897 250.303 202.835 250.303ZM216.131 262V259.963L215.795 259.417V255.553C215.795 254.993 215.62 254.566 215.27 254.272C214.934 253.978 214.381 253.831 213.611 253.831C213.093 253.831 212.568 253.915 212.036 254.083C211.504 254.237 211.049 254.454 210.671 254.734L209.159 251.605C209.831 251.185 210.636 250.863 211.574 250.639C212.512 250.415 213.429 250.303 214.325 250.303C216.299 250.303 217.825 250.744 218.903 251.626C219.995 252.508 220.541 253.908 220.541 255.826V262H216.131ZM212.876 262.21C211.938 262.21 211.154 262.049 210.524 261.727C209.894 261.405 209.418 260.978 209.096 260.446C208.774 259.9 208.613 259.298 208.613 258.64C208.613 257.898 208.802 257.268 209.18 256.75C209.558 256.232 210.132 255.84 210.902 255.574C211.686 255.308 212.673 255.175 213.863 255.175H216.257V257.464H214.619C214.115 257.464 213.744 257.548 213.506 257.716C213.282 257.87 213.17 258.108 213.17 258.43C213.17 258.696 213.268 258.92 213.464 259.102C213.674 259.27 213.954 259.354 214.304 259.354C214.626 259.354 214.92 259.27 215.186 259.102C215.466 258.92 215.669 258.64 215.795 258.262L216.404 259.669C216.222 260.523 215.837 261.16 215.249 261.58C214.661 262 213.87 262.21 212.876 262.21ZM232.815 262L226.599 247.3H231.933L236.994 259.711H233.823L239.031 247.3H243.903L237.687 262H232.815ZM249.33 262.21C247.93 262.21 246.705 261.951 245.655 261.433C244.619 260.915 243.814 260.208 243.24 259.312C242.666 258.402 242.379 257.38 242.379 256.246C242.379 255.084 242.659 254.055 243.219 253.159C243.793 252.263 244.57 251.563 245.55 251.059C246.544 250.555 247.657 250.303 248.889 250.303C250.023 250.303 251.066 250.527 252.018 250.975C252.984 251.423 253.754 252.088 254.328 252.97C254.916 253.852 255.21 254.944 255.21 256.246C255.21 256.414 255.203 256.603 255.189 256.813C255.175 257.009 255.161 257.191 255.147 257.359H246.306V255.07H252.627L250.842 255.679C250.842 255.231 250.758 254.853 250.59 254.545C250.436 254.223 250.219 253.978 249.939 253.81C249.659 253.628 249.323 253.537 248.931 253.537C248.539 253.537 248.196 253.628 247.902 253.81C247.622 253.978 247.405 254.223 247.251 254.545C247.097 254.853 247.02 255.231 247.02 255.679V256.393C247.02 256.883 247.118 257.303 247.314 257.653C247.51 258.003 247.79 258.269 248.154 258.451C248.518 258.619 248.959 258.703 249.477 258.703C250.009 258.703 250.443 258.633 250.779 258.493C251.129 258.353 251.493 258.143 251.871 257.863L254.349 260.362C253.789 260.964 253.096 261.426 252.27 261.748C251.458 262.056 250.478 262.21 249.33 262.21ZM264.268 250.303C265.15 250.303 265.948 250.485 266.662 250.849C267.376 251.199 267.936 251.752 268.342 252.508C268.762 253.264 268.972 254.244 268.972 255.448V262H264.226V256.267C264.226 255.553 264.1 255.049 263.848 254.755C263.596 254.447 263.253 254.293 262.819 254.293C262.497 254.293 262.196 254.37 261.916 254.524C261.65 254.664 261.433 254.902 261.265 255.238C261.111 255.574 261.034 256.029 261.034 256.603V262H256.288V250.513H260.803V253.873L259.9 252.907C260.348 252.039 260.95 251.388 261.706 250.954C262.476 250.52 263.33 250.303 264.268 250.303ZM276.157 262.21C274.575 262.21 273.343 261.832 272.461 261.076C271.579 260.306 271.138 259.13 271.138 257.548V247.93H275.884V257.506C275.884 257.856 275.975 258.129 276.157 258.325C276.353 258.521 276.591 258.619 276.871 258.619C277.277 258.619 277.634 258.514 277.942 258.304L279.076 261.601C278.712 261.811 278.271 261.965 277.753 262.063C277.249 262.161 276.717 262.21 276.157 262.21ZM269.563 254.608V251.143H278.236V254.608H269.563ZM284.64 262.21C283.73 262.21 282.904 262.028 282.162 261.664C281.434 261.286 280.86 260.705 280.44 259.921C280.02 259.123 279.81 258.101 279.81 256.855V250.513H284.556V256.036C284.556 256.848 284.689 257.415 284.955 257.737C285.221 258.059 285.585 258.22 286.047 258.22C286.327 258.22 286.586 258.15 286.824 258.01C287.076 257.856 287.279 257.611 287.433 257.275C287.587 256.925 287.664 256.47 287.664 255.91V250.513H292.41V262H287.895V258.682L288.798 259.585C288.392 260.481 287.811 261.146 287.055 261.58C286.313 262 285.508 262.21 284.64 262.21ZM294.095 262V250.513H298.61V253.978L297.875 252.991C298.225 252.095 298.785 251.423 299.555 250.975C300.325 250.527 301.249 250.303 302.327 250.303V254.503C302.117 254.475 301.928 254.454 301.76 254.44C301.606 254.426 301.445 254.419 301.277 254.419C300.563 254.419 299.975 254.608 299.513 254.986C299.065 255.35 298.841 255.987 298.841 256.897V262H294.095ZM309.492 262.21C308.092 262.21 306.867 261.951 305.817 261.433C304.781 260.915 303.976 260.208 303.402 259.312C302.828 258.402 302.541 257.38 302.541 256.246C302.541 255.084 302.821 254.055 303.381 253.159C303.955 252.263 304.732 251.563 305.712 251.059C306.706 250.555 307.819 250.303 309.051 250.303C310.185 250.303 311.228 250.527 312.18 250.975C313.146 251.423 313.916 252.088 314.49 252.97C315.078 253.852 315.372 254.944 315.372 256.246C315.372 256.414 315.365 256.603 315.351 256.813C315.337 257.009 315.323 257.191 315.309 257.359H306.468V255.07H312.789L311.004 255.679C311.004 255.231 310.92 254.853 310.752 254.545C310.598 254.223 310.381 253.978 310.101 253.81C309.821 253.628 309.485 253.537 309.093 253.537C308.701 253.537 308.358 253.628 308.064 253.81C307.784 253.978 307.567 254.223 307.413 254.545C307.259 254.853 307.182 255.231 307.182 255.679V256.393C307.182 256.883 307.28 257.303 307.476 257.653C307.672 258.003 307.952 258.269 308.316 258.451C308.68 258.619 309.121 258.703 309.639 258.703C310.171 258.703 310.605 258.633 310.941 258.493C311.291 258.353 311.655 258.143 312.033 257.863L314.511 260.362C313.951 260.964 313.258 261.426 312.432 261.748C311.62 262.056 310.64 262.21 309.492 262.21ZM320.944 262.21C319.964 262.21 318.998 262.105 318.046 261.895C317.094 261.685 316.324 261.412 315.736 261.076L317.038 257.947C317.584 258.269 318.214 258.521 318.928 258.703C319.656 258.885 320.363 258.976 321.049 258.976C321.623 258.976 322.008 258.927 322.204 258.829C322.414 258.731 322.519 258.598 322.519 258.43C322.519 258.262 322.4 258.143 322.162 258.073C321.924 257.989 321.609 257.926 321.217 257.884C320.825 257.842 320.391 257.793 319.915 257.737C319.453 257.667 318.984 257.569 318.508 257.443C318.032 257.317 317.598 257.128 317.206 256.876C316.814 256.624 316.499 256.288 316.261 255.868C316.023 255.434 315.904 254.888 315.904 254.23C315.904 253.502 316.121 252.844 316.555 252.256C317.003 251.668 317.661 251.199 318.529 250.849C319.411 250.485 320.496 250.303 321.784 250.303C322.624 250.303 323.464 250.38 324.304 250.534C325.144 250.688 325.865 250.926 326.467 251.248L325.165 254.377C324.577 254.055 323.996 253.838 323.422 253.726C322.862 253.6 322.337 253.537 321.847 253.537C321.245 253.537 320.832 253.593 320.608 253.705C320.398 253.817 320.293 253.943 320.293 254.083C320.293 254.251 320.412 254.377 320.65 254.461C320.888 254.545 321.203 254.608 321.595 254.65C321.987 254.692 322.414 254.748 322.876 254.818C323.352 254.874 323.821 254.972 324.283 255.112C324.759 255.238 325.193 255.427 325.585 255.679C325.977 255.931 326.292 256.274 326.53 256.708C326.768 257.128 326.887 257.667 326.887 258.325C326.887 259.011 326.67 259.655 326.236 260.257C325.802 260.845 325.144 261.321 324.262 261.685C323.38 262.035 322.274 262.21 320.944 262.21ZM333.687 252.78L334.905 248.117L335.262 249.693C334.772 249.693 334.359 249.539 334.023 249.231C333.701 248.923 333.54 248.509 333.54 247.991C333.54 247.473 333.701 247.06 334.023 246.752C334.359 246.43 334.765 246.269 335.241 246.269C335.731 246.269 336.137 246.43 336.459 246.752C336.781 247.074 336.942 247.487 336.942 247.991C336.942 248.145 336.928 248.306 336.9 248.474C336.886 248.628 336.844 248.811 336.774 249.021C336.718 249.217 336.62 249.476 336.48 249.798L335.388 252.78H333.687ZM338.139 252.78L339.357 248.117L339.715 249.693C339.224 249.693 338.811 249.539 338.475 249.231C338.153 248.923 337.992 248.509 337.992 247.991C337.992 247.473 338.153 247.06 338.475 246.752C338.811 246.43 339.217 246.269 339.694 246.269C340.184 246.269 340.59 246.43 340.912 246.752C341.234 247.074 341.395 247.487 341.395 247.991C341.395 248.145 341.381 248.306 341.353 248.474C341.339 248.628 341.297 248.811 341.227 249.021C341.171 249.217 341.073 249.476 340.933 249.798L339.841 252.78H338.139Z" fill="white"/>
<path d="M229.289 266.021C237.14 248.467 239.102 244.078 239.102 244.078" stroke="#5E67A0" stroke-width="3"/>
</g>
<g filter="url(#filter3_d_447_16)">
<rect x="427.402" y="78.516" width="38.0051" height="130.303" rx="19.0025" fill="white"/>
<rect x="428.434" y="79.5476" width="35.9419" height="128.24" rx="17.971" stroke="url(#paint1_linear_447_16)" stroke-width="2.06313"/>
</g>
<path d="M452.096 89.2623V100.859H449.403V91.5643H443.691V100.859H440.977V89.2623H452.096ZM447.405 108.132C448.534 108.132 449.54 108.378 450.424 108.87C451.321 109.363 452.023 110.058 452.53 110.955C453.037 111.853 453.29 112.888 453.29 114.061C453.29 115.233 453.037 116.276 452.53 117.188C452.023 118.086 451.321 118.781 450.424 119.273C449.54 119.765 448.534 120.011 447.405 120.011C445.841 120.011 444.603 119.49 443.691 118.448V124.072H440.977V108.262H443.561V109.782C444.01 109.232 444.56 108.82 445.211 108.545C445.877 108.27 446.609 108.132 447.405 108.132ZM447.101 117.688C448.1 117.688 448.918 117.355 449.555 116.689C450.206 116.023 450.532 115.147 450.532 114.061C450.532 112.975 450.206 112.099 449.555 111.433C448.918 110.767 448.1 110.434 447.101 110.434C446.449 110.434 445.863 110.586 445.342 110.89C444.821 111.18 444.408 111.599 444.104 112.15C443.8 112.7 443.648 113.337 443.648 114.061C443.648 114.785 443.8 115.422 444.104 115.972C444.408 116.522 444.821 116.949 445.342 117.253C445.863 117.543 446.449 117.688 447.101 117.688ZM446.145 140.011C444.973 140.011 443.916 139.758 442.975 139.251C442.033 138.744 441.295 138.042 440.759 137.145C440.238 136.232 439.978 135.205 439.978 134.061C439.978 132.917 440.238 131.896 440.759 130.999C441.295 130.101 442.033 129.399 442.975 128.892C443.916 128.385 444.973 128.132 446.145 128.132C447.332 128.132 448.397 128.385 449.338 128.892C450.279 129.399 451.01 130.101 451.531 130.999C452.067 131.896 452.335 132.917 452.335 134.061C452.335 135.205 452.067 136.232 451.531 137.145C451.01 138.042 450.279 138.744 449.338 139.251C448.397 139.758 447.332 140.011 446.145 140.011ZM446.145 137.688C447.144 137.688 447.97 137.355 448.621 136.689C449.273 136.023 449.598 135.147 449.598 134.061C449.598 132.975 449.273 132.099 448.621 131.433C447.97 130.767 447.144 130.434 446.145 130.434C445.146 130.434 444.321 130.767 443.67 131.433C443.032 132.099 442.714 132.975 442.714 134.061C442.714 135.147 443.032 136.023 443.67 136.689C444.321 137.355 445.146 137.688 446.145 137.688ZM451.835 153.126C451.835 153.314 451.821 153.582 451.792 153.929H442.692C442.852 154.784 443.264 155.464 443.93 155.971C444.611 156.463 445.45 156.709 446.449 156.709C447.723 156.709 448.773 156.289 449.598 155.45L451.053 157.122C450.532 157.744 449.873 158.215 449.077 158.533C448.281 158.852 447.383 159.011 446.384 159.011C445.11 159.011 443.988 158.758 443.018 158.251C442.048 157.744 441.295 157.042 440.759 156.145C440.238 155.232 439.978 154.205 439.978 153.061C439.978 151.931 440.231 150.918 440.738 150.02C441.259 149.108 441.976 148.399 442.888 147.892C443.8 147.385 444.828 147.132 445.972 147.132C447.101 147.132 448.107 147.385 448.99 147.892C449.888 148.384 450.583 149.087 451.075 149.999C451.582 150.896 451.835 151.939 451.835 153.126ZM445.972 149.304C445.103 149.304 444.364 149.564 443.756 150.086C443.163 150.592 442.801 151.273 442.671 152.127H449.251C449.135 151.287 448.78 150.607 448.187 150.086C447.593 149.564 446.855 149.304 445.972 149.304ZM445.798 174.212H443.691V178.859H440.977V167.262H443.691V171.953H445.863L449.294 167.262H452.204L447.991 172.844L452.487 178.859H449.294L445.798 174.212Z" fill="#212121"/>
<path d="M451.233 189.291H447.172V198.586H444.458V189.291H440.375V186.989H451.233V189.291Z" fill="#212121"/>
<g filter="url(#filter4_d_447_16)">
<rect x="6.03157" y="3.54646" width="398.619" height="38.1136" rx="19.0568" fill="white" stroke="#212121" stroke-width="2.06313"/>
</g>
<path d="M92.0388 23.6292H89.2155V30.0358H86.4357V14.8337H89.2155V21.1969H92.1256L96.4908 14.8337H99.4877L94.2973 22.1959L99.6832 30.0358H96.4908L92.0388 23.6292ZM108.021 18.3085C109.15 18.3085 110.156 18.5546 111.039 19.0469C111.937 19.5391 112.639 20.2341 113.146 21.1317C113.653 22.0294 113.906 23.0646 113.906 24.2373C113.906 25.41 113.653 26.4524 113.146 27.3646C112.639 28.2622 111.937 28.9571 111.039 29.4494C110.156 29.9417 109.15 30.1878 108.021 30.1878C106.457 30.1878 105.219 29.6666 104.307 28.6242V34.2489H101.592V18.4388H104.177V19.959C104.626 19.4088 105.176 18.9962 105.827 18.7211C106.493 18.446 107.224 18.3085 108.021 18.3085ZM107.717 27.864C108.716 27.864 109.534 27.5311 110.171 26.8651C110.822 26.1991 111.148 25.3231 111.148 24.2373C111.148 23.1514 110.822 22.2755 110.171 21.6095C109.534 20.9435 108.716 20.6105 107.717 20.6105C107.065 20.6105 106.479 20.7625 105.958 21.0666C105.436 21.3561 105.024 21.776 104.72 22.3262C104.416 22.8763 104.264 23.5134 104.264 24.2373C104.264 24.9612 104.416 25.5982 104.72 26.1484C105.024 26.6986 105.436 27.1257 105.958 27.4297C106.479 27.7193 107.065 27.864 107.717 27.864ZM127.235 18.4388L121.806 30.9696C121.299 32.2292 120.684 33.1124 119.96 33.6191C119.236 34.1403 118.36 34.4009 117.332 34.4009C116.753 34.4009 116.181 34.3068 115.616 34.1186C115.052 33.9304 114.589 33.6698 114.227 33.3368L115.312 31.3388C115.573 31.5849 115.877 31.7804 116.225 31.9252C116.587 32.0699 116.948 32.1423 117.31 32.1423C117.788 32.1423 118.179 32.0193 118.483 31.7731C118.802 31.527 119.091 31.1144 119.352 30.5353L119.547 30.0792L114.487 18.4388H117.31L120.959 27.0171L124.629 18.4388H127.235ZM140.24 18.4388V30.0358H137.547V20.7408H131.835V30.0358H129.121V18.4388H140.24ZM143.903 18.4388H146.617V23.1514H152.459V18.4388H155.174V30.0358H152.459V25.4534H146.617V30.0358H143.903V18.4388ZM164.459 22.261C165.935 22.261 167.065 22.594 167.846 23.26C168.628 23.926 169.019 24.8671 169.019 26.0832C169.019 27.3573 168.585 28.3418 167.716 29.0368C166.862 29.7317 165.646 30.072 164.068 30.0575L158.812 30.0358V18.4388H161.527V22.2393L164.459 22.261ZM170.518 18.4388H173.232V30.0358H170.518V18.4388ZM163.829 28.0595C164.625 28.074 165.233 27.9075 165.653 27.56C166.073 27.2125 166.283 26.7058 166.283 26.0398C166.283 25.3883 166.08 24.9105 165.675 24.6065C165.269 24.3024 164.654 24.1432 163.829 24.1287L161.527 24.107V28.0378L163.829 28.0595ZM176.881 18.4388H179.596V26.0832L186.003 18.4388H188.478V30.0358H185.764V22.3913L179.379 30.0358H176.881V18.4388ZM182.506 17.0706C181.333 17.0706 180.436 16.8028 179.813 16.2671C179.205 15.7169 178.894 14.9206 178.879 13.8782H180.682C180.696 14.3994 180.856 14.812 181.16 15.1161C181.478 15.4201 181.92 15.5721 182.484 15.5721C183.035 15.5721 183.469 15.4201 183.788 15.1161C184.121 14.812 184.294 14.3994 184.309 13.8782H186.155C186.14 14.9206 185.822 15.7169 185.199 16.2671C184.577 16.8028 183.679 17.0706 182.506 17.0706ZM202.953 25.3883H200.847V30.0358H198.132V18.4388H200.847V23.1297H203.018L206.45 18.4388H209.36L205.147 24.0201L209.642 30.0358H206.45L202.953 25.3883ZM216.344 30.1878C215.171 30.1878 214.114 29.9344 213.173 29.4277C212.232 28.921 211.494 28.2188 210.958 27.3211C210.437 26.409 210.176 25.3811 210.176 24.2373C210.176 23.0935 210.437 22.0728 210.958 21.1752C211.494 20.2775 212.232 19.5753 213.173 19.0686C214.114 18.5619 215.171 18.3085 216.344 18.3085C217.531 18.3085 218.595 18.5619 219.536 19.0686C220.477 19.5753 221.208 20.2775 221.73 21.1752C222.265 22.0728 222.533 23.0935 222.533 24.2373C222.533 25.3811 222.265 26.409 221.73 27.3211C221.208 28.2188 220.477 28.921 219.536 29.4277C218.595 29.9344 217.531 30.1878 216.344 30.1878ZM216.344 27.864C217.343 27.864 218.168 27.5311 218.82 26.8651C219.471 26.1991 219.797 25.3231 219.797 24.2373C219.797 23.1514 219.471 22.2755 218.82 21.6095C218.168 20.9435 217.343 20.6105 216.344 20.6105C215.345 20.6105 214.52 20.9435 213.868 21.6095C213.231 22.2755 212.912 23.1514 212.912 24.2373C212.912 25.3231 213.231 26.1991 213.868 26.8651C214.52 27.5311 215.345 27.864 216.344 27.864ZM225.215 18.4388H227.93V23.1514H233.771V18.4388H236.486V30.0358H233.771V25.4534H227.93V30.0358H225.215V18.4388ZM249.311 20.7408H245.249V30.0358H242.535V20.7408H238.452V18.4388H249.311V20.7408ZM257.708 18.3085C258.837 18.3085 259.844 18.5546 260.727 19.0469C261.624 19.5391 262.327 20.2341 262.833 21.1317C263.34 22.0294 263.593 23.0646 263.593 24.2373C263.593 25.41 263.34 26.4524 262.833 27.3646C262.327 28.2622 261.624 28.9571 260.727 29.4494C259.844 29.9417 258.837 30.1878 257.708 30.1878C256.144 30.1878 254.907 29.6666 253.994 28.6242V34.2489H251.28V18.4388H253.864V19.959C254.313 19.4088 254.863 18.9962 255.515 18.7211C256.181 18.446 256.912 18.3085 257.708 18.3085ZM257.404 27.864C258.403 27.864 259.221 27.5311 259.858 26.8651C260.51 26.1991 260.835 25.3231 260.835 24.2373C260.835 23.1514 260.51 22.2755 259.858 21.6095C259.221 20.9435 258.403 20.6105 257.404 20.6105C256.752 20.6105 256.166 20.7625 255.645 21.0666C255.124 21.3561 254.711 21.776 254.407 22.3262C254.103 22.8763 253.951 23.5134 253.951 24.2373C253.951 24.9612 254.103 25.5982 254.407 26.1484C254.711 26.6986 255.124 27.1257 255.645 27.4297C256.166 27.7193 256.752 27.864 257.404 27.864ZM270.468 18.3085C272.177 18.3085 273.48 18.7211 274.377 19.5464C275.29 20.3571 275.746 21.5878 275.746 23.2383V30.0358H273.183V28.6242C272.85 29.1309 272.372 29.5218 271.75 29.7969C271.142 30.0575 270.403 30.1878 269.535 30.1878C268.666 30.1878 267.906 30.043 267.254 29.7534C266.603 29.4494 266.096 29.0368 265.734 28.5156C265.387 27.9799 265.213 27.379 265.213 26.713C265.213 25.6706 265.596 24.8381 266.364 24.2156C267.146 23.5785 268.369 23.26 270.034 23.26H273.031V23.0863C273.031 22.2755 272.785 21.6529 272.293 21.2186C271.815 20.7843 271.098 20.5671 270.143 20.5671C269.491 20.5671 268.847 20.6684 268.21 20.8711C267.587 21.0738 267.059 21.3561 266.624 21.7181L265.56 19.7418C266.168 19.2785 266.9 18.9238 267.754 18.6777C268.608 18.4316 269.513 18.3085 270.468 18.3085ZM270.099 28.2115C270.78 28.2115 271.38 28.0595 271.902 27.7555C272.437 27.4369 272.814 26.9881 273.031 26.409V25.0625H270.229C268.666 25.0625 267.884 25.5765 267.884 26.6045C267.884 27.0967 268.079 27.4876 268.47 27.7772C268.861 28.0667 269.404 28.2115 270.099 28.2115ZM288.009 20.7408H281.819V30.0358H279.105V18.4388H288.009V20.7408ZM300.334 24.3024C300.334 24.4906 300.32 24.7585 300.291 25.106H291.191C291.351 25.9602 291.763 26.6406 292.429 27.1474C293.11 27.6396 293.949 27.8858 294.948 27.8858C296.222 27.8858 297.272 27.4659 298.097 26.6262L299.552 28.2984C299.031 28.921 298.372 29.3915 297.576 29.71C296.78 30.0285 295.882 30.1878 294.883 30.1878C293.609 30.1878 292.487 29.9344 291.517 29.4277C290.547 28.921 289.794 28.2188 289.258 27.3211C288.737 26.409 288.477 25.3811 288.477 24.2373C288.477 23.108 288.73 22.0945 289.237 21.1969C289.758 20.2848 290.475 19.5753 291.387 19.0686C292.299 18.5619 293.327 18.3085 294.471 18.3085C295.6 18.3085 296.606 18.5619 297.489 19.0686C298.387 19.5609 299.082 20.263 299.574 21.1752C300.081 22.0728 300.334 23.1152 300.334 24.3024ZM294.471 20.4802C293.602 20.4802 292.864 20.7408 292.255 21.262C291.662 21.7688 291.3 22.4492 291.17 23.3034H297.75C297.634 22.4637 297.279 21.7832 296.686 21.262C296.092 20.7408 295.354 20.4802 294.471 20.4802ZM303.303 18.4388H306.018V23.1514H311.86V18.4388H314.575V30.0358H311.86V25.4534H306.018V30.0358H303.303V18.4388ZM327.399 20.7408H323.338V30.0358H320.623V20.7408H316.541V18.4388H327.399V20.7408Z" fill="#212121"/>
<path d="M142.724 91.1453V93.095H142.033V91.7849H137.175V93.095H136.483V91.1453H136.793C137.157 91.1247 137.405 90.8565 137.536 90.3407C137.666 89.8249 137.756 89.1028 137.804 88.1744L137.876 86.3589H141.879V91.1453H142.724ZM138.474 88.2157C138.44 88.9859 138.375 89.6221 138.278 90.1241C138.182 90.6192 138.01 90.9597 137.763 91.1453H141.146V87.0088H138.536L138.474 88.2157ZM148.897 89.2988H144.358C144.399 89.8628 144.616 90.3201 145.008 90.6708C145.4 91.0147 145.895 91.1866 146.493 91.1866C146.83 91.1866 147.14 91.1281 147.422 91.0112C147.704 90.8874 147.948 90.7086 148.154 90.4748L148.567 90.9493C148.326 91.2382 148.024 91.4582 147.659 91.6095C147.302 91.7608 146.906 91.8365 146.473 91.8365C145.916 91.8365 145.421 91.7196 144.987 91.4858C144.561 91.2451 144.227 90.915 143.987 90.4955C143.746 90.076 143.626 89.6014 143.626 89.0719C143.626 88.5424 143.739 88.0678 143.966 87.6483C144.2 87.2288 144.516 86.9022 144.915 86.6683C145.321 86.4345 145.775 86.3176 146.277 86.3176C146.779 86.3176 147.229 86.4345 147.628 86.6683C148.027 86.9022 148.34 87.2288 148.567 87.6483C148.794 88.061 148.907 88.5355 148.907 89.0719L148.897 89.2988ZM146.277 86.9469C145.754 86.9469 145.314 87.1154 144.956 87.4523C144.606 87.7824 144.406 88.2157 144.358 88.7521H148.206C148.158 88.2157 147.955 87.7824 147.597 87.4523C147.246 87.1154 146.806 86.9469 146.277 86.9469ZM150.529 86.3589H151.261V88.7624H154.675V86.3589H155.408V91.7849H154.675V89.3917H151.261V91.7849H150.529V86.3589ZM159.821 88.2776C160.502 88.2845 161.018 88.4358 161.368 88.7315C161.726 89.0272 161.905 89.4536 161.905 90.0106C161.905 90.5883 161.712 91.0319 161.327 91.3413C160.949 91.6508 160.399 91.8021 159.677 91.7952L157.49 91.7849V86.3589H158.222V88.257L159.821 88.2776ZM159.635 91.2382C160.137 91.2451 160.516 91.1453 160.77 90.939C161.031 90.7258 161.162 90.4164 161.162 90.0106C161.162 89.6117 161.035 89.316 160.78 89.1235C160.526 88.9309 160.144 88.8312 159.635 88.8243L158.222 88.8037V91.2176L159.635 91.2382ZM167.14 87.0088H164.035V91.7849H163.302V86.3589H167.14V87.0088ZM168.198 86.3589H168.931V90.6708L172.551 86.3589H173.201V91.7849H172.469V87.473L168.858 91.7849H168.198V86.3589Z" fill="#212121"/>
<path d="M20.9995 73.3291V78.7551H20.2671V76.496C19.6413 76.7711 19.0258 76.9086 18.4206 76.9086C17.7673 76.9086 17.2584 76.7608 16.8939 76.4651C16.5294 76.1625 16.3471 75.712 16.3471 75.1137V73.3291H17.0796V75.0724C17.0796 75.4782 17.2102 75.7877 17.4715 76.0008C17.7329 76.2072 18.0939 76.3103 18.5547 76.3103C19.0636 76.3103 19.6344 76.1762 20.2671 75.908V73.3291H20.9995ZM24.9466 73.2878C25.655 73.2878 26.1982 73.4666 26.5765 73.8242C26.9547 74.175 27.1438 74.6976 27.1438 75.3922V78.7551H26.4424V77.9092C26.2773 78.1912 26.0332 78.4113 25.71 78.5694C25.3936 78.7276 25.0154 78.8067 24.5752 78.8067C23.9701 78.8067 23.4887 78.6623 23.1311 78.3734C22.7734 78.0846 22.5946 77.7029 22.5946 77.2284C22.5946 76.7676 22.7597 76.3963 23.0898 76.1143C23.4268 75.8324 23.9597 75.6914 24.6887 75.6914H26.4114V75.3613C26.4114 74.8936 26.2808 74.5395 26.0194 74.2988C25.7581 74.0512 25.3764 73.9274 24.8744 73.9274C24.5305 73.9274 24.2004 73.9859 23.8841 74.1028C23.5678 74.2128 23.2961 74.3675 23.0692 74.567L22.7391 74.0202C23.0141 73.7864 23.3442 73.6076 23.7294 73.4838C24.1145 73.3532 24.5202 73.2878 24.9466 73.2878ZM24.6887 78.229C25.1013 78.229 25.4555 78.1362 25.7512 77.9505C26.0469 77.7579 26.267 77.4829 26.4114 77.1253V76.2381H24.7094C23.7809 76.2381 23.3167 76.5613 23.3167 77.2078C23.3167 77.5241 23.4371 77.7751 23.6778 77.9608C23.9185 78.1396 24.2555 78.229 24.6887 78.229ZM31.363 78.8067C30.8266 78.8067 30.3452 78.6898 29.9188 78.456C29.4993 78.2222 29.1692 77.8955 28.9285 77.476C28.6878 77.0496 28.5675 76.5716 28.5675 76.0421C28.5675 75.5126 28.6878 75.0381 28.9285 74.6185C29.1692 74.199 29.4993 73.8724 29.9188 73.6386C30.3452 73.4047 30.8266 73.2878 31.363 73.2878C31.8307 73.2878 32.2467 73.3807 32.6112 73.5664C32.9826 73.7452 33.2749 74.0099 33.4881 74.3607L32.9413 74.732C32.7625 74.4638 32.5356 74.2644 32.2605 74.1337C31.9854 73.9962 31.6863 73.9274 31.363 73.9274C30.971 73.9274 30.6169 74.0168 30.3005 74.1956C29.991 74.3675 29.7469 74.6151 29.5681 74.9383C29.3962 75.2616 29.3102 75.6295 29.3102 76.0421C29.3102 76.4616 29.3962 76.833 29.5681 77.1562C29.7469 77.4725 29.991 77.7201 30.3005 77.8989C30.6169 78.0709 30.971 78.1568 31.363 78.1568C31.6863 78.1568 31.9854 78.0915 32.2605 77.9608C32.5356 77.8302 32.7625 77.6307 32.9413 77.3625L33.4881 77.7339C33.2749 78.0846 32.9826 78.3528 32.6112 78.5385C32.2399 78.7173 31.8238 78.8067 31.363 78.8067ZM38.6223 73.979H36.5695V78.7551H35.837V73.979H33.7842V73.3291H38.6223V73.979ZM42.0126 75.2478C42.6934 75.2547 43.2092 75.406 43.5599 75.7017C43.9175 75.9974 44.0963 76.4238 44.0963 76.9808C44.0963 77.5585 43.9038 78.0021 43.5187 78.3116C43.1404 78.621 42.5903 78.7723 41.8682 78.7654L39.6812 78.7551V73.3291H40.4137V75.2272L42.0126 75.2478ZM41.8269 78.2084C42.3289 78.2153 42.7072 78.1156 42.9616 77.9092C43.2229 77.6961 43.3536 77.3866 43.3536 76.9808C43.3536 76.582 43.2264 76.2862 42.9719 76.0937C42.7175 75.9011 42.3358 75.8014 41.8269 75.7945L40.4137 75.7739V78.1878L41.8269 78.2084ZM52.0105 73.979H49.9576V78.7551H49.2252V73.979H47.1724V73.3291H52.0105V73.979ZM55.0561 78.8067C54.5334 78.8067 54.0623 78.6898 53.6428 78.456C53.2233 78.2153 52.8932 77.8852 52.6525 77.4657C52.4118 77.0462 52.2915 76.5716 52.2915 76.0421C52.2915 75.5126 52.4118 75.0381 52.6525 74.6185C52.8932 74.199 53.2233 73.8724 53.6428 73.6386C54.0623 73.4047 54.5334 73.2878 55.0561 73.2878C55.5787 73.2878 56.0498 73.4047 56.4693 73.6386C56.8888 73.8724 57.2155 74.199 57.4493 74.6185C57.69 75.0381 57.8104 75.5126 57.8104 76.0421C57.8104 76.5716 57.69 77.0462 57.4493 77.4657C57.2155 77.8852 56.8888 78.2153 56.4693 78.456C56.0498 78.6898 55.5787 78.8067 55.0561 78.8067ZM55.0561 78.1568C55.4412 78.1568 55.7851 78.0709 56.0876 77.8989C56.3971 77.7201 56.6378 77.4691 56.8097 77.1459C56.9817 76.8227 57.0676 76.4547 57.0676 76.0421C57.0676 75.6295 56.9817 75.2616 56.8097 74.9383C56.6378 74.6151 56.3971 74.3675 56.0876 74.1956C55.7851 74.0168 55.4412 73.9274 55.0561 73.9274C54.671 73.9274 54.3237 74.0168 54.0142 74.1956C53.7116 74.3675 53.4709 74.6151 53.2921 74.9383C53.1202 75.2616 53.0342 75.6295 53.0342 76.0421C53.0342 76.4547 53.1202 76.8227 53.2921 77.1459C53.4709 77.4691 53.7116 77.7201 54.0142 77.8989C54.3237 78.0709 54.671 78.1568 55.0561 78.1568ZM61.346 76.3413H60.1081V78.7551H59.3757V73.3291H60.1081V75.712H61.3563L63.2647 73.3291H64.059L61.9237 75.9596L64.2137 78.7551H63.3472L61.346 76.3413ZM69.9234 76.2691H65.3846C65.4258 76.833 65.6424 77.2903 66.0344 77.641C66.4264 77.9849 66.9216 78.1568 67.5199 78.1568C67.8569 78.1568 68.1663 78.0984 68.4483 77.9815C68.7303 77.8577 68.9744 77.6789 69.1807 77.445L69.5933 77.9196C69.3526 78.2084 69.0501 78.4285 68.6856 78.5798C68.328 78.7311 67.9325 78.8067 67.4993 78.8067C66.9422 78.8067 66.4471 78.6898 66.0138 78.456C65.5874 78.2153 65.2539 77.8852 65.0132 77.4657C64.7725 77.0462 64.6521 76.5716 64.6521 76.0421C64.6521 75.5126 64.7656 75.0381 64.9926 74.6185C65.2264 74.199 65.5427 73.8724 65.9416 73.6386C66.3473 73.4047 66.8012 73.2878 67.3033 73.2878C67.8053 73.2878 68.2557 73.4047 68.6546 73.6386C69.0535 73.8724 69.3664 74.199 69.5933 74.6185C69.8203 75.0312 69.9338 75.5057 69.9338 76.0421L69.9234 76.2691ZM67.3033 73.9171C66.7806 73.9171 66.3405 74.0856 65.9829 74.4226C65.6321 74.7527 65.4327 75.1859 65.3846 75.7223H69.2323C69.1842 75.1859 68.9813 74.7527 68.6237 74.4226C68.2729 74.0856 67.8328 73.9171 67.3033 73.9171ZM71.555 73.3291H72.2874V75.7326H75.7019V73.3291H76.4343V78.7551H75.7019V76.3619H72.2874V78.7551H71.555V73.3291ZM80.7546 78.8067C80.2319 78.8067 79.7608 78.6898 79.3413 78.456C78.9218 78.2153 78.5917 77.8852 78.351 77.4657C78.1103 77.0462 77.99 76.5716 77.99 76.0421C77.99 75.5126 78.1103 75.0381 78.351 74.6185C78.5917 74.199 78.9218 73.8724 79.3413 73.6386C79.7608 73.4047 80.2319 73.2878 80.7546 73.2878C81.2772 73.2878 81.7483 73.4047 82.1678 73.6386C82.5873 73.8724 82.914 74.199 83.1478 74.6185C83.3885 75.0381 83.5088 75.5126 83.5088 76.0421C83.5088 76.5716 83.3885 77.0462 83.1478 77.4657C82.914 77.8852 82.5873 78.2153 82.1678 78.456C81.7483 78.6898 81.2772 78.8067 80.7546 78.8067ZM80.7546 78.1568C81.1397 78.1568 81.4835 78.0709 81.7861 77.8989C82.0956 77.7201 82.3363 77.4691 82.5082 77.1459C82.6802 76.8227 82.7661 76.4547 82.7661 76.0421C82.7661 75.6295 82.6802 75.2616 82.5082 74.9383C82.3363 74.6151 82.0956 74.3675 81.7861 74.1956C81.4835 74.0168 81.1397 73.9274 80.7546 73.9274C80.3694 73.9274 80.0221 74.0168 79.7127 74.1956C79.4101 74.3675 79.1694 74.6151 78.9906 74.9383C78.8187 75.2616 78.7327 75.6295 78.7327 76.0421C78.7327 76.4547 78.8187 76.8227 78.9906 77.1459C79.1694 77.4691 79.4101 77.7201 79.7127 77.8989C80.0221 78.0709 80.3694 78.1568 80.7546 78.1568ZM88.5299 75.9493C89.2658 76.1212 89.6337 76.5648 89.6337 77.28C89.6337 77.7545 89.4583 78.119 89.1076 78.3734C88.7569 78.6279 88.2342 78.7551 87.5396 78.7551H85.0742V73.3291H87.4674C88.0863 73.3291 88.5712 73.4494 88.9219 73.6901C89.2726 73.9308 89.448 74.2747 89.448 74.7217C89.448 75.0174 89.3655 75.2719 89.2004 75.4851C89.0423 75.6914 88.8187 75.8461 88.5299 75.9493ZM85.7859 75.743H87.4158C87.8353 75.743 88.1551 75.6639 88.3752 75.5057C88.6021 75.3475 88.7156 75.1171 88.7156 74.8145C88.7156 74.512 88.6021 74.285 88.3752 74.1337C88.1551 73.9824 87.8353 73.9068 87.4158 73.9068H85.7859V75.743ZM87.5087 78.1775C87.9763 78.1775 88.327 78.1018 88.5609 77.9505C88.7947 77.7992 88.9116 77.5619 88.9116 77.2387C88.9116 76.9155 88.805 76.6782 88.5918 76.5269C88.3786 76.3688 88.0416 76.2897 87.5809 76.2897H85.7859V78.1775H87.5087ZM21.7732 86.3291V91.7551H21.0408V86.979H17.6366V91.7551H16.9042V86.3291H21.7732ZM26.0937 91.8067C25.571 91.8067 25.0999 91.6898 24.6804 91.456C24.2609 91.2153 23.9308 90.8852 23.6901 90.4657C23.4494 90.0462 23.3291 89.5716 23.3291 89.0421C23.3291 88.5126 23.4494 88.0381 23.6901 87.6185C23.9308 87.199 24.2609 86.8724 24.6804 86.6386C25.0999 86.4047 25.571 86.2878 26.0937 86.2878C26.6163 86.2878 27.0874 86.4047 27.5069 86.6386C27.9264 86.8724 28.2531 87.199 28.4869 87.6185C28.7276 88.0381 28.8479 88.5126 28.8479 89.0421C28.8479 89.5716 28.7276 90.0462 28.4869 90.4657C28.2531 90.8852 27.9264 91.2153 27.5069 91.456C27.0874 91.6898 26.6163 91.8067 26.0937 91.8067ZM26.0937 91.1568C26.4788 91.1568 26.8226 91.0709 27.1252 90.8989C27.4347 90.7201 27.6754 90.4691 27.8473 90.1459C28.0193 89.8227 28.1052 89.4547 28.1052 89.0421C28.1052 88.6295 28.0193 88.2616 27.8473 87.9383C27.6754 87.6151 27.4347 87.3675 27.1252 87.1956C26.8226 87.0168 26.4788 86.9274 26.0937 86.9274C25.7085 86.9274 25.3613 87.0168 25.0518 87.1956C24.7492 87.3675 24.5085 87.6151 24.3297 87.9383C24.1578 88.2616 24.0718 88.6295 24.0718 89.0421C24.0718 89.4547 24.1578 89.8227 24.3297 90.1459C24.5085 90.4691 24.7492 90.7201 25.0518 90.8989C25.3613 91.0709 25.7085 91.1568 26.0937 91.1568ZM38.766 91.1156V93.1168H38.0749V91.7551H33.1131V86.3291H33.8455V91.1156H37.1568V86.3291H37.8892V91.1156H38.766ZM44.91 89.2691H40.3711C40.4124 89.833 40.629 90.2903 41.021 90.641C41.413 90.9849 41.9081 91.1568 42.5064 91.1568C42.8434 91.1568 43.1529 91.0984 43.4348 90.9815C43.7168 90.8577 43.9609 90.6789 44.1673 90.445L44.5799 90.9196C44.3392 91.2084 44.0366 91.4285 43.6721 91.5798C43.3145 91.7311 42.9191 91.8067 42.4858 91.8067C41.9288 91.8067 41.4336 91.6898 41.0004 91.456C40.574 91.2153 40.2404 90.8852 39.9997 90.4657C39.759 90.0462 39.6387 89.5716 39.6387 89.0421C39.6387 88.5126 39.7522 88.0381 39.9791 87.6185C40.2129 87.199 40.5293 86.8724 40.9281 86.6386C41.3339 86.4047 41.7878 86.2878 42.2898 86.2878C42.7918 86.2878 43.2423 86.4047 43.6412 86.6386C44.04 86.8724 44.3529 87.199 44.5799 87.6185C44.8068 88.0312 44.9203 88.5057 44.9203 89.0421L44.91 89.2691ZM42.2898 86.9171C41.7672 86.9171 41.327 87.0856 40.9694 87.4226C40.6187 87.7527 40.4192 88.1859 40.3711 88.7223H44.2188C44.1707 88.1859 43.9678 87.7527 43.6102 87.4226C43.2595 87.0856 42.8193 86.9171 42.2898 86.9171ZM46.5416 86.3291H47.274V88.7326H50.6884V86.3291H51.4209V91.7551H50.6884V89.3619H47.274V91.7551H46.5416V86.3291ZM58.2478 89.2691H53.7089C53.7502 89.833 53.9668 90.2903 54.3588 90.641C54.7508 90.9849 55.246 91.1568 55.8443 91.1568C56.1812 91.1568 56.4907 91.0984 56.7727 90.9815C57.0546 90.8577 57.2988 90.6789 57.5051 90.445L57.9177 90.9196C57.677 91.2084 57.3744 91.4285 57.0099 91.5798C56.6523 91.7311 56.2569 91.8067 55.8236 91.8067C55.2666 91.8067 54.7714 91.6898 54.3382 91.456C53.9118 91.2153 53.5783 90.8852 53.3376 90.4657C53.0969 90.0462 52.9765 89.5716 52.9765 89.0421C52.9765 88.5126 53.09 88.0381 53.3169 87.6185C53.5507 87.199 53.8671 86.8724 54.266 86.6386C54.6717 86.4047 55.1256 86.2878 55.6276 86.2878C56.1297 86.2878 56.5801 86.4047 56.979 86.6386C57.3779 86.8724 57.6908 87.199 57.9177 87.6185C58.1447 88.0312 58.2581 88.5057 58.2581 89.0421L58.2478 89.2691ZM55.6276 86.9171C55.105 86.9171 54.6648 87.0856 54.3072 87.4226C53.9565 87.7527 53.7571 88.1859 53.7089 88.7223H57.5567C57.5085 88.1859 57.3056 87.7527 56.948 87.4226C56.5973 87.0856 56.1572 86.9171 55.6276 86.9171ZM66.0349 88.9493C66.7708 89.1212 67.1387 89.5648 67.1387 90.28C67.1387 90.7545 66.9633 91.119 66.6126 91.3734C66.2619 91.6279 65.7392 91.7551 65.0446 91.7551H62.5792V86.3291H64.9724C65.5913 86.3291 66.0762 86.4494 66.4269 86.6901C66.7777 86.9308 66.953 87.2747 66.953 87.7217C66.953 88.0174 66.8705 88.2719 66.7054 88.4851C66.5473 88.6914 66.3238 88.8461 66.0349 88.9493ZM63.291 88.743H64.9208C65.3403 88.743 65.6601 88.6639 65.8802 88.5057C66.1071 88.3475 66.2206 88.1171 66.2206 87.8145C66.2206 87.512 66.1071 87.285 65.8802 87.1337C65.6601 86.9824 65.3403 86.9068 64.9208 86.9068H63.291V88.743ZM65.0137 91.1775C65.4813 91.1775 65.832 91.1018 66.0659 90.9505C66.2997 90.7992 66.4166 90.5619 66.4166 90.2387C66.4166 89.9155 66.31 89.6782 66.0968 89.5269C65.8836 89.3688 65.5466 89.2897 65.0859 89.2897H63.291V91.1775H65.0137ZM71.135 88.2478C71.8158 88.2547 72.335 88.406 72.6926 88.7017C73.0502 88.9974 73.229 89.4238 73.229 89.9808C73.229 90.5585 73.0365 91.0021 72.6514 91.3116C72.2663 91.621 71.7161 91.7723 71.0009 91.7654L68.8552 91.7551V86.3291H69.5876V88.2272L71.135 88.2478ZM74.1368 86.3291H74.8692V91.7551H74.1368V86.3291ZM70.9596 91.2084C71.4616 91.2153 71.8399 91.1156 72.0943 90.9092C72.3557 90.6961 72.4863 90.3866 72.4863 89.9808C72.4863 89.582 72.3591 89.2862 72.1046 89.0937C71.8502 88.9011 71.4685 88.8014 70.9596 88.7945L69.5876 88.7739V91.1878L70.9596 91.2084ZM84.4438 86.3291V91.7551H76.9546V86.3291H77.687V91.1156H80.3485V86.3291H81.0809V91.1156H83.7114V86.3291H84.4438ZM91.2801 89.2691H86.7412C86.7825 89.833 86.9991 90.2903 87.3911 90.641C87.7831 90.9849 88.2782 91.1568 88.8765 91.1568C89.2135 91.1568 89.523 91.0984 89.8049 90.9815C90.0869 90.8577 90.331 90.6789 90.5374 90.445L90.95 90.9196C90.7093 91.2084 90.4067 91.4285 90.0422 91.5798C89.6846 91.7311 89.2892 91.8067 88.8559 91.8067C88.2989 91.8067 87.8037 91.6898 87.3704 91.456C86.9441 91.2153 86.6105 90.8852 86.3698 90.4657C86.1291 90.0462 86.0088 89.5716 86.0088 89.0421C86.0088 88.5126 86.1223 88.0381 86.3492 87.6185C86.583 87.199 86.8994 86.8724 87.2982 86.6386C87.704 86.4047 88.1579 86.2878 88.6599 86.2878C89.1619 86.2878 89.6124 86.4047 90.0113 86.6386C90.4101 86.8724 90.723 87.199 90.95 87.6185C91.1769 88.0312 91.2904 88.5057 91.2904 89.0421L91.2801 89.2691ZM88.6599 86.9171C88.1372 86.9171 87.6971 87.0856 87.3395 87.4226C86.9888 87.7527 86.7893 88.1859 86.7412 88.7223H90.5889C90.5408 88.1859 90.3379 87.7527 89.9803 87.4226C89.6296 87.0856 89.1894 86.9171 88.6599 86.9171ZM19.1427 104.807C18.62 104.807 18.1489 104.69 17.7294 104.456C17.3099 104.215 16.9798 103.885 16.7391 103.466C16.4984 103.046 16.3781 102.572 16.3781 102.042C16.3781 101.513 16.4984 101.038 16.7391 100.619C16.9798 100.199 17.3099 99.8724 17.7294 99.6386C18.1489 99.4047 18.62 99.2878 19.1427 99.2878C19.6653 99.2878 20.1364 99.4047 20.5559 99.6386C20.9754 99.8724 21.3021 100.199 21.5359 100.619C21.7766 101.038 21.897 101.513 21.897 102.042C21.897 102.572 21.7766 103.046 21.5359 103.466C21.3021 103.885 20.9754 104.215 20.5559 104.456C20.1364 104.69 19.6653 104.807 19.1427 104.807ZM19.1427 104.157C19.5278 104.157 19.8717 104.071 20.1742 103.899C20.4837 103.72 20.7244 103.469 20.8963 103.146C21.0683 102.823 21.1542 102.455 21.1542 102.042C21.1542 101.629 21.0683 101.262 20.8963 100.938C20.7244 100.615 20.4837 100.368 20.1742 100.196C19.8717 100.017 19.5278 99.9274 19.1427 99.9274C18.7576 99.9274 18.4103 100.017 18.1008 100.196C17.7982 100.368 17.5575 100.615 17.3787 100.938C17.2068 101.262 17.1208 101.629 17.1208 102.042C17.1208 102.455 17.2068 102.823 17.3787 103.146C17.5575 103.469 17.7982 103.72 18.1008 103.899C18.4103 104.071 18.7576 104.157 19.1427 104.157ZM29.1153 104.116V106.117H28.4241V104.755H23.4623V99.3291H24.1947V104.116H27.506V99.3291H28.2384V104.116H29.1153ZM35.2592 102.269H30.7203C30.7616 102.833 30.9782 103.29 31.3702 103.641C31.7622 103.985 32.2573 104.157 32.8557 104.157C33.1926 104.157 33.5021 104.098 33.7841 103.981C34.066 103.858 34.3102 103.679 34.5165 103.445L34.9291 103.92C34.6884 104.208 34.3858 104.428 34.0213 104.58C33.6637 104.731 33.2683 104.807 32.835 104.807C32.278 104.807 31.7828 104.69 31.3496 104.456C30.9232 104.215 30.5897 103.885 30.349 103.466C30.1083 103.046 29.9879 102.572 29.9879 102.042C29.9879 101.513 30.1014 101.038 30.3283 100.619C30.5621 100.199 30.8785 99.8724 31.2774 99.6386C31.6831 99.4047 32.137 99.2878 32.639 99.2878C33.1411 99.2878 33.5915 99.4047 33.9904 99.6386C34.3893 99.8724 34.7022 100.199 34.9291 100.619C35.156 101.031 35.2695 101.506 35.2695 102.042L35.2592 102.269ZM32.639 99.9171C32.1164 99.9171 31.6762 100.086 31.3186 100.423C30.9679 100.753 30.7685 101.186 30.7203 101.722H34.5681C34.5199 101.186 34.317 100.753 33.9594 100.423C33.6087 100.086 33.1686 99.9171 32.639 99.9171ZM36.8908 99.3291H37.6232V101.733H41.0377V99.3291H41.7701V104.755H41.0377V102.362H37.6232V104.755H36.8908V99.3291ZM45.8221 102.341H44.5842V104.755H43.8518V99.3291H44.5842V101.712H45.8324L47.7408 99.3291H48.5351L46.3998 101.96L48.6899 104.755H47.8234L45.8221 102.341ZM49.8458 99.3291H50.5782V103.641L54.199 99.3291H54.8489V104.755H54.1165V100.443L50.506 104.755H49.8458V99.3291ZM63.1034 101.949C63.8393 102.121 64.2072 102.565 64.2072 103.28C64.2072 103.755 64.0318 104.119 63.6811 104.373C63.3304 104.628 62.8077 104.755 62.1131 104.755H59.6477V99.3291H62.0409C62.6599 99.3291 63.1447 99.4494 63.4954 99.6901C63.8462 99.9308 64.0215 100.275 64.0215 100.722C64.0215 101.017 63.939 101.272 63.7739 101.485C63.6158 101.691 63.3923 101.846 63.1034 101.949ZM60.3595 101.743H61.9893C62.4088 101.743 62.7286 101.664 62.9487 101.506C63.1756 101.348 63.2891 101.117 63.2891 100.815C63.2891 100.512 63.1756 100.285 62.9487 100.134C62.7286 99.9824 62.4088 99.9068 61.9893 99.9068H60.3595V101.743ZM62.0822 104.177C62.5498 104.177 62.9005 104.102 63.1344 103.951C63.3682 103.799 63.4851 103.562 63.4851 103.239C63.4851 102.916 63.3785 102.678 63.1653 102.527C62.9521 102.369 62.6151 102.29 62.1544 102.29H60.3595V104.177H62.0822ZM69.3176 104.755L67.5948 102.486L65.8618 104.755H65.0366L67.1822 101.97L65.1397 99.3291H65.965L67.5948 101.454L69.2247 99.3291H70.0293L67.9868 101.97L70.1531 104.755H69.3176ZM73.4006 104.807C72.878 104.807 72.4069 104.69 71.9874 104.456C71.5679 104.215 71.2378 103.885 70.9971 103.466C70.7564 103.046 70.636 102.572 70.636 102.042C70.636 101.513 70.7564 101.038 70.9971 100.619C71.2378 100.199 71.5679 99.8724 71.9874 99.6386C72.4069 99.4047 72.878 99.2878 73.4006 99.2878C73.9233 99.2878 74.3944 99.4047 74.8139 99.6386C75.2334 99.8724 75.56 100.199 75.7939 100.619C76.0346 101.038 76.1549 101.513 76.1549 102.042C76.1549 102.572 76.0346 103.046 75.7939 103.466C75.56 103.885 75.2334 104.215 74.8139 104.456C74.3944 104.69 73.9233 104.807 73.4006 104.807ZM73.4006 104.157C73.7857 104.157 74.1296 104.071 74.4322 103.899C74.7417 103.72 74.9824 103.469 75.1543 103.146C75.3262 102.823 75.4122 102.455 75.4122 102.042C75.4122 101.629 75.3262 101.262 75.1543 100.938C74.9824 100.615 74.7417 100.368 74.4322 100.196C74.1296 100.017 73.7857 99.9274 73.4006 99.9274C73.0155 99.9274 72.6682 100.017 72.3587 100.196C72.0562 100.368 71.8155 100.615 71.6366 100.938C71.4647 101.262 71.3788 101.629 71.3788 102.042C71.3788 102.455 71.4647 102.823 71.6366 103.146C71.8155 103.469 72.0562 103.72 72.3587 103.899C72.6682 104.071 73.0155 104.157 73.4006 104.157ZM82.9819 104.116V106.065H82.2908V104.755H77.4321V106.065H76.741V104.116H77.0504C77.4149 104.095 77.6625 103.827 77.7932 103.311C77.9238 102.795 78.0132 102.073 78.0614 101.145L78.1336 99.3291H82.1361V104.116H82.9819ZM78.7319 101.186C78.6975 101.956 78.6322 102.592 78.5359 103.094C78.4396 103.589 78.2677 103.93 78.0201 104.116H81.4036V99.979H78.7938L78.7319 101.186ZM86.2764 99.2878C86.9848 99.2878 87.528 99.4666 87.9063 99.8242C88.2845 100.175 88.4737 100.698 88.4737 101.392V104.755H87.7722V103.909C87.6071 104.191 87.363 104.411 87.0398 104.569C86.7234 104.728 86.3452 104.807 85.9051 104.807C85.2999 104.807 84.8185 104.662 84.4609 104.373C84.1033 104.085 83.9244 103.703 83.9244 103.228C83.9244 102.768 84.0895 102.396 84.4196 102.114C84.7566 101.832 85.2896 101.691 86.0185 101.691H87.7412V101.361C87.7412 100.894 87.6106 100.539 87.3492 100.299C87.0879 100.051 86.7062 99.9274 86.2042 99.9274C85.8604 99.9274 85.5303 99.9859 85.2139 100.103C84.8976 100.213 84.6259 100.368 84.399 100.567L84.0689 100.02C84.344 99.7864 84.6741 99.6076 85.0592 99.4838C85.4443 99.3532 85.85 99.2878 86.2764 99.2878ZM86.0185 104.229C86.4312 104.229 86.7853 104.136 87.081 103.951C87.3768 103.758 87.5968 103.483 87.7412 103.125V102.238H86.0392C85.1107 102.238 84.6465 102.561 84.6465 103.208C84.6465 103.524 84.7669 103.775 85.0076 103.961C85.2483 104.14 85.5853 104.229 86.0185 104.229Z" fill="#212121"/>
<path d="M103.269 117.077C103.571 117.379 104.061 117.379 104.363 117.077L109.287 112.153C109.589 111.851 109.589 111.361 109.287 111.059C108.985 110.757 108.495 110.757 108.193 111.059L103.816 115.435L99.4398 111.059C99.1377 110.757 98.6478 110.757 98.3457 111.059C98.0436 111.361 98.0436 111.851 98.3457 112.153L103.269 117.077ZM103.043 60.0649L103.043 116.53L104.59 116.53L104.59 60.0649L103.043 60.0649Z" fill="#212121"/>
<path d="M122.823 59.5113C122.521 59.2092 122.031 59.2092 121.729 59.5113L116.806 64.4349C116.504 64.7371 116.504 65.2269 116.806 65.5291C117.108 65.8312 117.598 65.8312 117.9 65.5291L122.276 61.1525L126.653 65.5291C126.955 65.8312 127.445 65.8312 127.747 65.5291C128.049 65.2269 128.049 64.7371 127.747 64.4349L122.823 59.5113ZM123.05 117.609L123.05 60.0584L121.503 60.0584L121.503 117.609L123.05 117.609Z" fill="#212121"/>
<path d="M132.753 200.812V202.762H132.062V201.451H127.203V202.762H126.512V200.812H126.821C127.186 200.791 127.433 200.523 127.564 200.007C127.695 199.491 127.784 198.769 127.832 197.841L127.904 196.025H131.907V200.812H132.753ZM128.503 197.882C128.468 198.652 128.403 199.289 128.307 199.791C128.21 200.286 128.039 200.626 127.791 200.812H131.174V196.675H128.565L128.503 197.882ZM138.925 198.965H134.386C134.428 199.529 134.644 199.987 135.036 200.337C135.428 200.681 135.923 200.853 136.522 200.853C136.859 200.853 137.168 200.795 137.45 200.678C137.732 200.554 137.976 200.375 138.183 200.141L138.595 200.616C138.355 200.905 138.052 201.125 137.687 201.276C137.33 201.427 136.934 201.503 136.501 201.503C135.944 201.503 135.449 201.386 135.016 201.152C134.589 200.912 134.256 200.581 134.015 200.162C133.774 199.742 133.654 199.268 133.654 198.738C133.654 198.209 133.767 197.734 133.994 197.315C134.228 196.895 134.545 196.569 134.943 196.335C135.349 196.101 135.803 195.984 136.305 195.984C136.807 195.984 137.258 196.101 137.656 196.335C138.055 196.569 138.368 196.895 138.595 197.315C138.822 197.727 138.936 198.202 138.936 198.738L138.925 198.965ZM136.305 196.613C135.782 196.613 135.342 196.782 134.985 197.119C134.634 197.449 134.435 197.882 134.386 198.419H138.234C138.186 197.882 137.983 197.449 137.626 197.119C137.275 196.782 136.835 196.613 136.305 196.613ZM140.557 196.025H141.289V198.429H144.704V196.025H145.436V201.451H144.704V199.058H141.289V201.451H140.557V196.025ZM149.849 197.944C150.53 197.951 151.046 198.102 151.397 198.398C151.754 198.694 151.933 199.12 151.933 199.677C151.933 200.255 151.74 200.698 151.355 201.008C150.977 201.317 150.427 201.469 149.705 201.462L147.518 201.451V196.025H148.25V197.923L149.849 197.944ZM149.664 200.905C150.166 200.912 150.544 200.812 150.798 200.606C151.06 200.392 151.19 200.083 151.19 199.677C151.19 199.278 151.063 198.983 150.809 198.79C150.554 198.597 150.172 198.498 149.664 198.491L148.25 198.47V200.884L149.664 200.905ZM157.168 196.675H154.063V201.451H153.331V196.025H157.168V196.675ZM158.226 196.025H158.959V200.337L162.58 196.025H163.23V201.451H162.497V197.139L158.887 201.451H158.226V196.025Z" fill="#212121"/>
<path d="M50.3176 201.451V196.479L50.5033 196.675H48.2648V196.036H53.1028V196.675H50.8643L51.05 196.479V201.451H50.3176ZM56.1381 201.503C55.6155 201.503 55.1444 201.386 54.7249 201.152C54.3122 200.912 53.9856 200.585 53.7449 200.172C53.5042 199.753 53.3838 199.275 53.3838 198.738C53.3838 198.195 53.5042 197.717 53.7449 197.305C53.9856 196.892 54.3122 196.569 54.7249 196.335C55.1375 196.101 55.6086 195.984 56.1381 195.984C56.6745 195.984 57.1491 196.101 57.5617 196.335C57.9812 196.569 58.3078 196.892 58.5417 197.305C58.7824 197.717 58.9027 198.195 58.9027 198.738C58.9027 199.275 58.7824 199.753 58.5417 200.172C58.3078 200.585 57.9812 200.912 57.5617 201.152C57.1422 201.386 56.6677 201.503 56.1381 201.503ZM56.1381 200.853C56.5301 200.853 56.8774 200.767 57.18 200.595C57.4826 200.416 57.7199 200.169 57.8918 199.852C58.0706 199.529 58.16 199.158 58.16 198.738C58.16 198.312 58.0706 197.941 57.8918 197.624C57.7199 197.308 57.4826 197.064 57.18 196.892C56.8774 196.713 56.5336 196.624 56.1484 196.624C55.7633 196.624 55.4195 196.713 55.1169 196.892C54.8143 197.064 54.5736 197.308 54.3948 197.624C54.216 197.941 54.1266 198.312 54.1266 198.738C54.1266 199.158 54.216 199.529 54.3948 199.852C54.5736 200.169 54.8143 200.416 55.1169 200.595C55.4195 200.767 55.7599 200.853 56.1381 200.853ZM64.4396 201.451L62.2114 198.769L62.82 198.408L65.3061 201.451H64.4396ZM60.468 201.451V196.036H61.2004V201.451H60.468ZM60.9735 199.038V198.408H62.7168V199.038H60.9735ZM62.8819 198.821L62.2011 198.718L64.357 196.036H65.1513L62.8819 198.821ZM68.5916 201.503C68.0277 201.503 67.5325 201.386 67.1062 201.152C66.6798 200.912 66.3462 200.585 66.1055 200.172C65.8648 199.753 65.7445 199.275 65.7445 198.738C65.7445 198.202 65.858 197.727 66.0849 197.315C66.3187 196.902 66.6351 196.579 67.034 196.345C67.4397 196.104 67.8936 195.984 68.3956 195.984C68.9045 195.984 69.355 196.101 69.747 196.335C70.1458 196.562 70.4587 196.885 70.6857 197.305C70.9126 197.717 71.0261 198.195 71.0261 198.738C71.0261 198.773 71.0227 198.811 71.0158 198.852C71.0158 198.886 71.0158 198.924 71.0158 198.965H66.3015V198.419H70.6238L70.335 198.635C70.335 198.243 70.249 197.896 70.0771 197.593C69.912 197.284 69.6851 197.043 69.3962 196.871C69.1074 196.699 68.7739 196.613 68.3956 196.613C68.0243 196.613 67.6907 196.699 67.395 196.871C67.0993 197.043 66.8689 197.284 66.7038 197.593C66.5388 197.903 66.4563 198.257 66.4563 198.656V198.769C66.4563 199.182 66.5457 199.546 66.7245 199.863C66.9102 200.172 67.1646 200.416 67.4878 200.595C67.8179 200.767 68.1927 200.853 68.6122 200.853C68.9423 200.853 69.2484 200.795 69.5303 200.678C69.8192 200.561 70.0668 200.382 70.2731 200.141L70.6857 200.616C70.445 200.905 70.1424 201.125 69.7779 201.276C69.4203 201.427 69.0249 201.503 68.5916 201.503ZM72.6474 201.451V196.036H73.3798V198.429H76.7943V196.036H77.5267V201.451H76.7943V199.058H73.3798V201.451H72.6474Z" fill="#212121"/>
<path d="M93.0584 212.246C93.3605 212.548 93.8504 212.548 94.1525 212.246L99.0762 207.323C99.3783 207.02 99.3783 206.531 99.0762 206.228C98.774 205.926 98.2842 205.926 97.982 206.228L93.6055 210.605L89.2289 206.228C88.9268 205.926 88.4369 205.926 88.1348 206.228C87.8326 206.531 87.8326 207.02 88.1348 207.323L93.0584 212.246ZM92.8318 183.847V211.699H94.3791V183.847H92.8318Z" fill="#212121"/>
<path d="M112.719 183.303C112.417 183.001 111.927 183.001 111.625 183.303L106.701 188.226C106.399 188.529 106.399 189.018 106.701 189.321C107.003 189.623 107.493 189.623 107.795 189.321L112.172 184.944L116.548 189.321C116.851 189.623 117.34 189.623 117.643 189.321C117.945 189.018 117.945 188.529 117.643 188.226L112.719 183.303ZM112.946 211.702V183.85H111.398V211.702H112.946Z" fill="#212121"/>
<path d="M410.152 29.3291C409.728 28.905 409.728 28.2175 410.152 27.7935L417.063 20.8831C417.487 20.459 418.174 20.459 418.598 20.8831C419.022 21.3072 419.022 21.9947 418.598 22.4187L412.456 28.5613L418.598 34.7038C419.022 35.1279 419.022 35.8154 418.598 36.2395C418.174 36.6635 417.487 36.6635 417.063 36.2395L410.152 29.3291ZM410.92 27.4754H422.864V29.6471H410.92V27.4754ZM440.238 44.8492V74.1673H438.066V44.8492H440.238ZM422.864 27.4754C432.46 27.4754 440.238 35.2539 440.238 44.8492H438.066C438.066 36.4533 431.26 29.6471 422.864 29.6471V27.4754Z" fill="white"/>
<path d="M459.449 73.8575C459.025 74.2816 458.338 74.2816 457.914 73.8575L451.003 66.9471C450.579 66.5231 450.579 65.8356 451.003 65.4115C451.428 64.9875 452.115 64.9875 452.539 65.4115L458.682 71.5541L464.824 65.4115C465.248 64.9875 465.936 64.9875 466.36 65.4115C466.784 65.8356 466.784 66.5231 466.36 66.9471L459.449 73.8575ZM410.904 14.4533H442.394V16.625H410.904V14.4533ZM459.767 31.8271V73.0897H457.596V31.8271H459.767ZM442.394 14.4533C451.989 14.4533 459.767 22.2318 459.767 31.8271H457.596C457.596 23.4312 450.79 16.625 442.394 16.625V14.4533Z" fill="white"/>
<g filter="url(#filter5_d_447_16)">
<path d="M414.624 8.77965L414.632 10.4214L414.05 10.424L414.045 9.32077L409.953 9.33869L409.958 10.4419L409.376 10.4445L409.369 8.80266L409.629 8.80152C409.936 8.7828 410.144 8.55603 410.252 8.12121C410.36 7.68639 410.432 7.07798 410.469 6.296L410.523 4.76686L413.894 4.7521L413.912 8.78276L414.624 8.77965ZM411.034 6.32827C411.008 6.97701 410.955 7.51294 410.876 7.93605C410.797 8.35337 410.654 8.64067 410.446 8.79794L413.295 8.78547L413.279 5.30207L411.082 5.31169L411.034 6.32827Z" fill="white"/>
<path d="M420.359 7.17247L416.537 7.21662C416.577 7.69107 416.764 8.07405 417.098 8.36557C417.431 8.6513 417.85 8.79126 418.353 8.78544C418.637 8.78216 418.897 8.72993 419.134 8.62874C419.37 8.52176 419.574 8.36883 419.745 8.16993L420.097 8.56548C419.897 8.81104 419.645 8.99929 419.339 9.13024C419.04 9.26111 418.707 9.32866 418.342 9.33287C417.873 9.33829 417.455 9.24466 417.088 9.05199C416.727 8.85346 416.443 8.57874 416.236 8.22784C416.029 7.87694 415.923 7.47854 415.918 7.03264C415.913 6.58675 416.004 6.18607 416.191 5.83062C416.384 5.47511 416.647 5.19696 416.981 4.99619C417.32 4.79536 417.701 4.6925 418.124 4.68762C418.546 4.68273 418.927 4.7768 419.265 4.96981C419.603 5.16281 419.87 5.43484 420.065 5.78587C420.26 6.13112 420.36 6.52958 420.366 6.98127L420.359 7.17247ZM418.13 5.21748C417.69 5.22256 417.321 5.36872 417.023 5.65595C416.731 5.93732 416.567 6.30409 416.532 6.75624L419.772 6.71882C419.726 6.2676 419.551 5.90475 419.247 5.63026C418.948 5.34992 418.576 5.21233 418.13 5.21748Z" fill="white"/>
<path d="M421.948 4.67017L422.564 4.66009L422.597 6.68386L425.472 6.63686L425.439 4.61309L426.056 4.60301L426.131 9.1717L425.514 9.18178L425.481 7.16669L422.606 7.21369L422.639 9.22877L422.022 9.23885L421.948 4.67017Z" fill="white"/>
<path d="M430.359 6.14239C430.933 6.13933 431.369 6.26002 431.668 6.50445C431.973 6.7488 432.129 7.10549 432.136 7.57452C432.144 8.06093 431.988 8.43692 431.667 8.70251C431.353 8.968 430.892 9.10254 430.284 9.10614L428.442 9.12589L428.371 4.55714L428.988 4.54761L429.013 6.14581L430.359 6.14239ZM430.242 8.63764C430.664 8.6369 430.982 8.54802 431.193 8.371C431.41 8.18809 431.516 7.92582 431.511 7.58418C431.506 7.24833 431.395 7.00099 431.178 6.84216C430.961 6.68333 430.639 6.60433 430.21 6.60516L429.02 6.60616L429.051 8.63864L430.242 8.63764Z" fill="white"/>
<path d="M437.059 5.0059L434.444 5.02187L434.469 9.04381L433.852 9.04758L433.824 4.47837L437.056 4.45864L437.059 5.0059Z" fill="white"/>
<path d="M438.38 4.45029L438.997 4.46494L438.911 8.09503L442.045 4.53734L442.592 4.55034L442.484 9.11834L441.867 9.1037L441.953 5.47361L438.828 9.0315L438.272 9.0183L438.38 4.45029Z" fill="white"/>
<path d="M447.063 4.81897L447.671 4.92326L447.057 8.50209L450.676 5.43881L451.215 5.53134L450.443 10.0348L449.835 9.93056L450.449 6.35173L446.838 9.41648L446.29 9.32248L447.063 4.81897Z" fill="white"/>
<path d="M457.971 8.13996C458.341 8.35595 458.627 8.63654 458.828 8.98173C459.031 9.32192 459.129 9.69419 459.121 10.0985C459.113 10.5029 458.996 10.9002 458.768 11.2903C458.537 11.6855 458.248 11.986 457.9 12.1919C457.552 12.3977 457.178 12.4982 456.779 12.4931C456.387 12.486 456.004 12.3729 455.629 12.154C455.309 11.9672 455.056 11.7329 454.872 11.4511C454.696 11.1672 454.6 10.8495 454.583 10.4981L453.301 12.6964L452.768 12.3856L455.92 6.9835L456.43 7.28121L455.975 8.06152C456.287 7.89482 456.614 7.81733 456.956 7.82905C457.302 7.84369 457.641 7.94733 457.971 8.13996ZM455.867 11.6594C456.142 11.82 456.429 11.9034 456.727 11.9097C457.028 11.911 457.309 11.8306 457.572 11.6684C457.839 11.5092 458.06 11.2796 458.235 10.9795C458.41 10.6793 458.5 10.3763 458.504 10.0703C458.516 9.76226 458.448 9.47754 458.299 9.21614C458.149 8.95475 457.937 8.74378 457.662 8.58325C457.382 8.4198 457.091 8.33743 456.79 8.33614C456.494 8.33776 456.213 8.41818 455.946 8.57738C455.686 8.7345 455.469 8.96312 455.294 9.26324C455.119 9.56335 455.025 9.86744 455.013 10.1755C455.006 10.4865 455.075 10.7712 455.219 11.0297C455.371 11.2861 455.587 11.496 455.867 11.6594Z" fill="white"/>
<path d="M462.758 11.69C463.197 12.0937 463.432 12.5141 463.463 12.9514C463.498 13.3844 463.317 13.8162 462.921 14.2468L461.005 16.3317L460.57 15.932L461.052 15.4075C460.789 15.4883 460.512 15.4856 460.222 15.3995C459.935 15.3172 459.656 15.1507 459.383 14.8999C459.008 14.555 458.791 14.1911 458.734 13.8082C458.677 13.4254 458.784 13.0868 459.054 12.7927C459.317 12.507 459.631 12.3708 459.996 12.3841C460.366 12.4014 460.777 12.6177 461.229 13.0331L462.297 14.0149L462.485 13.8102C462.751 13.5203 462.872 13.2263 462.847 12.9281C462.826 12.6257 462.66 12.3314 462.349 12.0453C462.136 11.8494 461.898 11.6975 461.635 11.5897C461.376 11.4776 461.12 11.4188 460.865 11.4131L460.972 10.886C461.276 10.8978 461.583 10.9751 461.892 11.1178C462.205 11.2563 462.494 11.447 462.758 11.69ZM459.782 14.6064C460.038 14.8416 460.311 14.9858 460.6 15.0392C460.893 15.0884 461.186 15.0433 461.479 14.9039L461.985 14.3539L460.93 13.3838C460.354 12.8548 459.882 12.7906 459.514 13.1914C459.334 13.3875 459.265 13.6117 459.309 13.864C459.356 14.112 459.514 14.3595 459.782 14.6064Z" fill="white"/>
<path d="M465.102 17.7563C465.211 18.0708 465.233 18.351 465.169 18.5968C465.108 18.8475 464.965 19.0439 464.74 19.186C464.515 19.3281 464.264 19.3763 463.989 19.3308C463.717 19.2901 463.449 19.1684 463.184 18.9657C462.924 18.7599 462.694 18.4977 462.493 18.1793C462.317 17.9001 462.183 17.6011 462.091 17.2822C462.005 16.9603 461.976 16.6495 462.007 16.3498L462.507 16.2805C462.486 16.5403 462.513 16.8109 462.588 17.0924C462.663 17.3738 462.776 17.6346 462.927 17.8746C463.153 18.2322 463.403 18.482 463.677 18.6239C463.959 18.7677 464.215 18.767 464.446 18.6218C464.651 18.492 464.752 18.2986 464.747 18.0414C464.747 17.7811 464.646 17.4893 464.442 17.166L464.025 16.5047L464.407 16.2637L464.805 16.8956C464.988 17.1847 465.188 17.3834 465.407 17.4918C465.631 17.5971 465.836 17.591 466.022 17.4736C466.228 17.3439 466.326 17.1415 466.317 16.8666C466.311 16.5965 466.208 16.3022 466.007 15.9838C465.744 15.5674 465.38 15.2224 464.913 14.9486L465.224 14.5468C465.754 14.8559 466.176 15.2579 466.488 15.7526C466.673 16.0465 466.796 16.3389 466.856 16.6296C466.924 16.9221 466.921 17.184 466.848 17.4151C466.778 17.6511 466.64 17.834 466.434 17.9637C466.238 18.0873 466.021 18.1283 465.782 18.0869C465.547 18.0504 465.32 17.9402 465.102 17.7563Z" fill="white"/>
<path d="M467.235 23.109C467.271 23.7444 466.999 24.1467 466.421 24.316C466.038 24.4284 465.702 24.373 465.413 24.1498C465.124 23.9266 464.898 23.5343 464.733 22.973L464.15 20.9805L468.535 19.6959L469.101 21.63C469.248 22.1302 469.265 22.5505 469.154 22.8909C469.042 23.2313 468.806 23.4545 468.445 23.5603C468.206 23.6303 467.981 23.6239 467.769 23.541C467.565 23.462 467.387 23.318 467.235 23.109ZM466.752 20.8426L467.138 22.1598C467.238 22.4988 467.377 22.7385 467.557 22.8789C467.739 23.0249 467.952 23.062 468.196 22.9904C468.441 22.9188 468.597 22.7733 468.666 22.5541C468.736 22.3404 468.722 22.0641 468.622 21.7251L468.236 20.4079L466.752 20.8426ZM465.193 22.8112C465.304 23.1891 465.448 23.4546 465.625 23.6078C465.803 23.7609 466.022 23.7992 466.284 23.7227C466.545 23.6462 466.711 23.5039 466.783 23.2958C466.861 23.086 466.845 22.795 466.736 22.4226L466.311 20.9721L464.785 21.419L465.193 22.8112Z" fill="white"/>
<path d="M469.956 25.2416L470.004 25.8566L466.383 26.1372L470.239 28.8965L470.282 29.4422L465.726 29.7953L465.678 29.1804L469.299 28.8998L465.443 26.1491L465.4 25.5948L469.956 25.2416Z" fill="white"/>
<path d="M469.62 34.9779L469.675 33.2501L465.655 33.1212L465.675 32.5047L469.695 32.6336L469.751 30.9058L470.298 30.9234L470.167 34.9954L469.62 34.9779Z" fill="white"/>
<path d="M470.077 36.204L470.024 36.8184L466.406 36.5037L469.76 39.8561L469.712 40.4013L465.16 40.0052L465.213 39.3907L468.831 39.7055L465.477 36.3618L465.525 35.8079L470.077 36.204Z" fill="white"/>
<path d="M466.734 46.5202L467.001 42.7074C466.525 42.7088 466.128 42.8639 465.81 43.1726C465.498 43.4816 465.325 43.8875 465.289 44.3901C465.27 44.6731 465.3 44.9365 465.382 45.1803C465.469 45.4244 465.605 45.64 465.79 45.8271L465.367 46.1458C465.138 45.9266 464.971 45.6595 464.865 45.3444C464.759 45.0351 464.719 44.6984 464.745 44.3345C464.777 43.8665 464.905 43.4575 465.127 43.1073C465.354 42.7633 465.651 42.5025 466.017 42.325C466.384 42.1475 466.79 42.0743 467.235 42.1055C467.679 42.1366 468.071 42.2599 468.41 42.4752C468.749 42.6963 469.005 42.9813 469.178 43.3301C469.35 43.6847 469.422 44.0729 469.392 44.4946C469.363 44.9163 469.238 45.2879 469.018 45.6092C468.798 45.9305 468.505 46.1741 468.14 46.3401C467.78 46.5064 467.374 46.5738 466.924 46.5423L466.734 46.5202ZM468.864 44.4576C468.894 44.0185 468.779 43.6389 468.517 43.3186C468.26 43.0046 467.908 42.8116 467.46 42.7395L467.234 45.9718C467.687 45.963 468.063 45.818 468.361 45.537C468.665 45.2622 468.833 44.9024 468.864 44.4576Z" fill="white"/>
</g>
<g filter="url(#filter6_d_447_16)">
<path d="M426.999 63.8965V65.9493H431.775V66.6817H426.999V68.7345H426.349V63.8965H426.999ZM431.827 60.8508C431.827 61.3735 431.71 61.8446 431.476 62.2641C431.236 62.6836 430.905 63.0137 430.486 63.2544C430.066 63.4951 429.592 63.6154 429.062 63.6154C428.533 63.6154 428.058 63.4951 427.639 63.2544C427.219 63.0137 426.893 62.6836 426.659 62.2641C426.425 61.8446 426.308 61.3735 426.308 60.8508C426.308 60.3282 426.425 59.8571 426.659 59.4376C426.893 59.0181 427.219 58.6914 427.639 58.4576C428.058 58.2169 428.533 58.0966 429.062 58.0966C429.592 58.0966 430.066 58.2169 430.486 58.4576C430.905 58.6914 431.236 59.0181 431.476 59.4376C431.71 59.8571 431.827 60.3282 431.827 60.8508ZM431.177 60.8508C431.177 60.4657 431.091 60.1219 430.919 59.8193C430.74 59.5098 430.489 59.2691 430.166 59.0972C429.843 58.9252 429.475 58.8393 429.062 58.8393C428.65 58.8393 428.282 58.9252 427.959 59.0972C427.635 59.2691 427.388 59.5098 427.216 59.8193C427.037 60.1219 426.948 60.4657 426.948 60.8508C426.948 61.236 427.037 61.5832 427.216 61.8927C427.388 62.1953 427.635 62.436 427.959 62.6148C428.282 62.7867 428.65 62.8727 429.062 62.8727C429.475 62.8727 429.843 62.7867 430.166 62.6148C430.489 62.436 430.74 62.1953 430.919 61.8927C431.091 61.5832 431.177 61.236 431.177 60.8508ZM429.362 54.5609V55.7988H431.775V56.5312H426.349V55.7988H428.732V54.5506L426.349 52.6422V51.8479L428.98 53.9833L431.775 51.6932V52.5597L429.362 54.5609ZM429.289 45.9835V50.5224C429.853 50.4811 430.311 50.2645 430.661 49.8725C431.005 49.4805 431.177 48.9853 431.177 48.387C431.177 48.05 431.119 47.7406 431.002 47.4586C430.878 47.1767 430.699 46.9325 430.465 46.7262L430.94 46.3136C431.229 46.5543 431.449 46.8569 431.6 47.2214C431.751 47.579 431.827 47.9744 431.827 48.4077C431.827 48.9647 431.71 49.4599 431.476 49.8931C431.236 50.3195 430.905 50.653 430.486 50.8937C430.066 51.1344 429.592 51.2548 429.062 51.2548C428.533 51.2548 428.058 51.1413 427.639 50.9144C427.219 50.6805 426.893 50.3642 426.659 49.9653C426.425 49.5596 426.308 49.1057 426.308 48.6037C426.308 48.1016 426.425 47.6512 426.659 47.2523C426.893 46.8534 427.219 46.5405 427.639 46.3136C428.051 46.0866 428.526 45.9732 429.062 45.9732L429.289 45.9835ZM426.937 48.6037C426.937 49.1263 427.106 49.5664 427.443 49.9241C427.773 50.2748 428.206 50.4742 428.743 50.5224V46.6746C428.206 46.7228 427.773 46.9256 427.443 47.2832C427.106 47.634 426.937 48.0741 426.937 48.6037ZM426.349 44.3519V43.6195H428.753V40.205H426.349V39.4726H431.775V40.205H429.382V43.6195H431.775V44.3519H426.349Z" fill="white"/>
</g>
<defs>
<filter id="filter0_d_447_16" x="2.33039" y="52.1188" width="203.056" height="181.338" filterUnits="userSpaceOnUse" color-interpolation-filters="sRGB">
<feFlood flood-opacity="0" result="BackgroundImageFix"/>
<feColorMatrix in="SourceAlpha" type="matrix" values="0 0 0 0 0 0 0 0 0 0 0 0 0 0 0 0 0 0 127 0" result="hardAlpha"/>
<feOffset dy="4.34343"/>
<feGaussianBlur stdDeviation="2.17172"/>
<feComposite in2="hardAlpha" operator="out"/>
<feColorMatrix type="matrix" values="0 0 0 0 0 0 0 0 0 0 0 0 0 0 0 0 0 0 0.25 0"/>
<feBlend mode="normal" in2="BackgroundImageFix" result="effect1_dropShadow_447_16"/>
<feBlend mode="normal" in="SourceGraphic" in2="effect1_dropShadow_447_16" result="shape"/>
</filter>
<filter id="filter1_d_447_16" x="14.7796" y="129.553" width="176.995" height="49.9494" filterUnits="userSpaceOnUse" color-interpolation-filters="sRGB">
<feFlood flood-opacity="0" result="BackgroundImageFix"/>
<feColorMatrix in="SourceAlpha" type="matrix" values="0 0 0 0 0 0 0 0 0 0 0 0 0 0 0 0 0 0 127 0" result="hardAlpha"/>
<feOffset dy="4.34343"/>
<feGaussianBlur stdDeviation="2.17172"/>
<feComposite in2="hardAlpha" operator="out"/>
<feColorMatrix type="matrix" values="0 0 0 0 0 0 0 0 0 0 0 0 0 0 0 0 0 0 0.25 0"/>
<feBlend mode="normal" in2="BackgroundImageFix" result="effect1_dropShadow_447_16"/>
<feBlend mode="normal" in="SourceGraphic" in2="effect1_dropShadow_447_16" result="shape"/>
</filter>
<filter id="filter2_d_447_16" x="0.799603" y="235.145" width="409.401" height="47.2544" filterUnits="userSpaceOnUse" color-interpolation-filters="sRGB">
<feFlood flood-opacity="0" result="BackgroundImageFix"/>
<feColorMatrix in="SourceAlpha" type="matrix" values="0 0 0 0 0 0 0 0 0 0 0 0 0 0 0 0 0 0 127 0" result="hardAlpha"/>
<feOffset dy="4.2004"/>
<feGaussianBlur stdDeviation="2.1002"/>
<feComposite in2="hardAlpha" operator="out"/>
<feColorMatrix type="matrix" values="0 0 0 0 0 0 0 0 0 0 0 0 0 0 0 0 0 0 0.25 0"/>
<feBlend mode="normal" in2="BackgroundImageFix" result="effect1_dropShadow_447_16"/>
<feBlend mode="normal" in="SourceGraphic" in2="effect1_dropShadow_447_16" result="shape"/>
</filter>
<filter id="filter3_d_447_16" x="423.059" y="78.516" width="46.6918" height="138.99" filterUnits="userSpaceOnUse" color-interpolation-filters="sRGB">
<feFlood flood-opacity="0" result="BackgroundImageFix"/>
<feColorMatrix in="SourceAlpha" type="matrix" values="0 0 0 0 0 0 0 0 0 0 0 0 0 0 0 0 0 0 127 0" result="hardAlpha"/>
<feOffset dy="4.34343"/>
<feGaussianBlur stdDeviation="2.17172"/>
<feComposite in2="hardAlpha" operator="out"/>
<feColorMatrix type="matrix" values="0 0 0 0 0 0 0 0 0 0 0 0 0 0 0 0 0 0 0.25 0"/>
<feBlend mode="normal" in2="BackgroundImageFix" result="effect1_dropShadow_447_16"/>
<feBlend mode="normal" in="SourceGraphic" in2="effect1_dropShadow_447_16" result="shape"/>
</filter>
<filter id="filter4_d_447_16" x="0.656565" y="2.51489" width="409.369" height="48.8636" filterUnits="userSpaceOnUse" color-interpolation-filters="sRGB">
<feFlood flood-opacity="0" result="BackgroundImageFix"/>
<feColorMatrix in="SourceAlpha" type="matrix" values="0 0 0 0 0 0 0 0 0 0 0 0 0 0 0 0 0 0 127 0" result="hardAlpha"/>
<feOffset dy="4.34343"/>
<feGaussianBlur stdDeviation="2.17172"/>
<feComposite in2="hardAlpha" operator="out"/>
<feColorMatrix type="matrix" values="0 0 0 0 0 0 0 0 0 0 0 0 0 0 0 0 0 0 0.25 0"/>
<feBlend mode="normal" in2="BackgroundImageFix" result="effect1_dropShadow_447_16"/>
<feBlend mode="normal" in="SourceGraphic" in2="effect1_dropShadow_447_16" result="shape"/>
</filter>
<filter id="filter5_d_447_16" x="405.007" y="4.45032" width="69.6341" height="50.9409" filterUnits="userSpaceOnUse" color-interpolation-filters="sRGB">
<feFlood flood-opacity="0" result="BackgroundImageFix"/>
<feColorMatrix in="SourceAlpha" type="matrix" values="0 0 0 0 0 0 0 0 0 0 0 0 0 0 0 0 0 0 127 0" result="hardAlpha"/>
<feOffset dy="4.34343"/>
<feGaussianBlur stdDeviation="2.17172"/>
<feComposite in2="hardAlpha" operator="out"/>
<feColorMatrix type="matrix" values="0 0 0 0 0 0 0 0 0 0 0 0 0 0 0 0 0 0 0.25 0"/>
<feBlend mode="normal" in2="BackgroundImageFix" result="effect1_dropShadow_447_16"/>
<feBlend mode="normal" in="SourceGraphic" in2="effect1_dropShadow_447_16" result="shape"/>
</filter>
<filter id="filter6_d_447_16" x="421.964" y="39.4727" width="14.2064" height="37.9487" filterUnits="userSpaceOnUse" color-interpolation-filters="sRGB">
<feFlood flood-opacity="0" result="BackgroundImageFix"/>
<feColorMatrix in="SourceAlpha" type="matrix" values="0 0 0 0 0 0 0 0 0 0 0 0 0 0 0 0 0 0 127 0" result="hardAlpha"/>
<feOffset dy="4.34343"/>
<feGaussianBlur stdDeviation="2.17172"/>
<feComposite in2="hardAlpha" operator="out"/>
<feColorMatrix type="matrix" values="0 0 0 0 0 0 0 0 0 0 0 0 0 0 0 0 0 0 0.25 0"/>
<feBlend mode="normal" in2="BackgroundImageFix" result="effect1_dropShadow_447_16"/>
<feBlend mode="normal" in="SourceGraphic" in2="effect1_dropShadow_447_16" result="shape"/>
</filter>
<linearGradient id="paint0_linear_447_16" x1="5" y1="254.572" x2="406" y2="254.572" gradientUnits="userSpaceOnUse">
<stop stop-color="#828DDB"/>
<stop offset="1" stop-color="#454B75"/>
</linearGradient>
<linearGradient id="paint1_linear_447_16" x1="427.402" y1="143.668" x2="465.407" y2="143.668" gradientUnits="userSpaceOnUse">
<stop stop-color="#828DDB"/>
<stop offset="1" stop-color="#454B75"/>
</linearGradient>
</defs>
</svg>
