<svg width="518" height="275" viewBox="0 0 518 275" fill="none" xmlns="http://www.w3.org/2000/svg">
<g filter="url(#filter0_d_369_906)">
<rect x="62.2725" y="227.145" width="387.487" height="38.8537" rx="19.4268" fill="url(#paint0_linear_369_906)"/>
<path d="M142.884 254.21C141.736 254.21 140.679 254.021 139.713 253.643C138.746 253.265 137.906 252.74 137.192 252.068C136.478 251.382 135.925 250.583 135.533 249.673C135.141 248.749 134.945 247.741 134.945 246.649C134.945 245.557 135.141 244.556 135.533 243.646C135.925 242.722 136.478 241.924 137.192 241.252C137.906 240.565 138.746 240.033 139.713 239.655C140.679 239.277 141.729 239.088 142.863 239.088C144.011 239.088 145.061 239.277 146.013 239.655C146.979 240.033 147.819 240.565 148.533 241.252C149.247 241.924 149.8 242.722 150.193 243.646C150.585 244.556 150.781 245.557 150.781 246.649C150.781 247.741 150.585 248.749 150.193 249.673C149.8 250.597 149.247 251.396 148.533 252.068C147.819 252.74 146.979 253.265 146.013 253.643C145.061 254.021 144.018 254.21 142.884 254.21ZM142.863 251.816C143.605 251.816 144.291 251.69 144.921 251.438C145.551 251.185 146.097 250.828 146.559 250.366C147.021 249.89 147.378 249.344 147.63 248.728C147.896 248.098 148.029 247.405 148.029 246.649C148.029 245.893 147.896 245.207 147.63 244.591C147.378 243.961 147.021 243.415 146.559 242.953C146.097 242.477 145.551 242.113 144.921 241.861C144.291 241.609 143.605 241.483 142.863 241.483C142.121 241.483 141.435 241.609 140.805 241.861C140.189 242.113 139.643 242.477 139.166 242.953C138.704 243.415 138.34 243.961 138.074 244.591C137.822 245.207 137.696 245.893 137.696 246.649C137.696 247.391 137.822 248.077 138.074 248.707C138.34 249.337 138.704 249.89 139.166 250.366C139.629 250.828 140.175 251.185 140.805 251.438C141.435 251.69 142.121 251.816 142.863 251.816ZM160.625 254.21C159.477 254.21 158.42 254.021 157.453 253.643C156.487 253.265 155.647 252.74 154.933 252.068C154.219 251.382 153.666 250.583 153.274 249.673C152.882 248.749 152.686 247.741 152.686 246.649C152.686 245.557 152.882 244.556 153.274 243.646C153.666 242.722 154.219 241.924 154.933 241.252C155.647 240.565 156.487 240.033 157.453 239.655C158.42 239.277 159.47 239.088 160.604 239.088C161.752 239.088 162.802 239.277 163.754 239.655C164.72 240.033 165.56 240.565 166.274 241.252C166.988 241.924 167.541 242.722 167.933 243.646C168.326 244.556 168.522 245.557 168.522 246.649C168.522 247.741 168.326 248.749 167.933 249.673C167.541 250.597 166.988 251.396 166.274 252.068C165.56 252.74 164.72 253.265 163.754 253.643C162.802 254.021 161.759 254.21 160.625 254.21ZM160.604 251.816C161.346 251.816 162.032 251.69 162.662 251.438C163.292 251.185 163.838 250.828 164.3 250.366C164.762 249.89 165.119 249.344 165.371 248.728C165.637 248.098 165.77 247.405 165.77 246.649C165.77 245.893 165.637 245.207 165.371 244.591C165.119 243.961 164.762 243.415 164.3 242.953C163.838 242.477 163.292 242.113 162.662 241.861C162.032 241.609 161.346 241.483 160.604 241.483C159.862 241.483 159.176 241.609 158.546 241.861C157.93 242.113 157.383 242.477 156.907 242.953C156.445 243.415 156.081 243.961 155.815 244.591C155.563 245.207 155.437 245.893 155.437 246.649C155.437 247.391 155.563 248.077 155.815 248.707C156.081 249.337 156.445 249.89 156.907 250.366C157.369 250.828 157.916 251.185 158.546 251.438C159.176 251.69 159.862 251.816 160.604 251.816ZM178.366 254.21C177.218 254.21 176.16 254.021 175.194 253.643C174.228 253.265 173.388 252.74 172.674 252.068C171.96 251.382 171.407 250.583 171.015 249.673C170.623 248.749 170.427 247.741 170.427 246.649C170.427 245.557 170.623 244.556 171.015 243.646C171.407 242.722 171.96 241.924 172.674 241.252C173.388 240.565 174.228 240.033 175.194 239.655C176.16 239.277 177.211 239.088 178.345 239.088C179.493 239.088 180.543 239.277 181.495 239.655C182.461 240.033 183.301 240.565 184.015 241.252C184.729 241.924 185.282 242.722 185.674 243.646C186.066 244.556 186.262 245.557 186.262 246.649C186.262 247.741 186.066 248.749 185.674 249.673C185.282 250.597 184.729 251.396 184.015 252.068C183.301 252.74 182.461 253.265 181.495 253.643C180.543 254.021 179.5 254.21 178.366 254.21ZM178.345 251.816C179.087 251.816 179.773 251.69 180.403 251.438C181.033 251.185 181.579 250.828 182.041 250.366C182.503 249.89 182.86 249.344 183.112 248.728C183.378 248.098 183.511 247.405 183.511 246.649C183.511 245.893 183.378 245.207 183.112 244.591C182.86 243.961 182.503 243.415 182.041 242.953C181.579 242.477 181.033 242.113 180.403 241.861C179.773 241.609 179.087 241.483 178.345 241.483C177.603 241.483 176.917 241.609 176.287 241.861C175.67 242.113 175.124 242.477 174.648 242.953C174.186 243.415 173.822 243.961 173.556 244.591C173.304 245.207 173.178 245.893 173.178 246.649C173.178 247.391 173.304 248.077 173.556 248.707C173.822 249.337 174.186 249.89 174.648 250.366C175.11 250.828 175.656 251.185 176.287 251.438C176.917 251.69 177.603 251.816 178.345 251.816ZM197.122 238.416L195.904 243.079L195.568 241.504C196.058 241.504 196.464 241.658 196.786 241.966C197.108 242.274 197.269 242.687 197.269 243.205C197.269 243.723 197.108 244.143 196.786 244.465C196.464 244.773 196.065 244.927 195.589 244.927C195.085 244.927 194.672 244.766 194.35 244.444C194.028 244.122 193.867 243.709 193.867 243.205C193.867 243.037 193.874 242.883 193.888 242.743C193.916 242.589 193.965 242.407 194.035 242.197C194.105 241.987 194.203 241.721 194.329 241.399L195.442 238.416H197.122ZM201.575 238.416L200.357 243.079L200.021 241.504C200.511 241.504 200.917 241.658 201.239 241.966C201.561 242.274 201.722 242.687 201.722 243.205C201.722 243.723 201.561 244.143 201.239 244.465C200.917 244.773 200.518 244.927 200.042 244.927C199.538 244.927 199.125 244.766 198.803 244.444C198.481 244.122 198.32 243.709 198.32 243.205C198.32 243.037 198.327 242.883 198.341 242.743C198.369 242.589 198.418 242.407 198.488 242.197C198.558 241.987 198.656 241.721 198.782 241.399L199.895 238.416H201.575ZM209.606 254V239.3H214.562V250.157H221.198V254H209.606ZM228.069 254.21C226.767 254.21 225.612 253.958 224.604 253.454C223.61 252.936 222.826 252.229 222.252 251.333C221.678 250.437 221.391 249.408 221.391 248.246C221.391 247.084 221.678 246.055 222.252 245.159C222.826 244.263 223.61 243.563 224.604 243.059C225.612 242.555 226.767 242.303 228.069 242.303C229.371 242.303 230.526 242.555 231.534 243.059C232.542 243.563 233.326 244.263 233.886 245.159C234.46 246.055 234.747 247.084 234.747 248.246C234.747 249.408 234.46 250.437 233.886 251.333C233.326 252.229 232.542 252.936 231.534 253.454C230.526 253.958 229.371 254.21 228.069 254.21ZM228.069 250.514C228.419 250.514 228.734 250.43 229.014 250.262C229.294 250.094 229.518 249.842 229.686 249.506C229.854 249.156 229.938 248.736 229.938 248.246C229.938 247.742 229.854 247.329 229.686 247.007C229.518 246.671 229.294 246.419 229.014 246.251C228.734 246.083 228.419 245.999 228.069 245.999C227.719 245.999 227.404 246.083 227.124 246.251C226.844 246.419 226.62 246.671 226.452 247.007C226.284 247.329 226.2 247.742 226.2 248.246C226.2 248.736 226.284 249.156 226.452 249.506C226.62 249.842 226.844 250.094 227.124 250.262C227.404 250.43 227.719 250.514 228.069 250.514ZM241.882 254.21C240.58 254.21 239.425 253.958 238.417 253.454C237.423 252.936 236.639 252.229 236.065 251.333C235.491 250.437 235.204 249.408 235.204 248.246C235.204 247.084 235.491 246.055 236.065 245.159C236.639 244.263 237.423 243.563 238.417 243.059C239.425 242.555 240.58 242.303 241.882 242.303C243.184 242.303 244.339 242.555 245.347 243.059C246.355 243.563 247.139 244.263 247.699 245.159C248.273 246.055 248.56 247.084 248.56 248.246C248.56 249.408 248.273 250.437 247.699 251.333C247.139 252.229 246.355 252.936 245.347 253.454C244.339 253.958 243.184 254.21 241.882 254.21ZM241.882 250.514C242.232 250.514 242.547 250.43 242.827 250.262C243.107 250.094 243.331 249.842 243.499 249.506C243.667 249.156 243.751 248.736 243.751 248.246C243.751 247.742 243.667 247.329 243.499 247.007C243.331 246.671 243.107 246.419 242.827 246.251C242.547 246.083 242.232 245.999 241.882 245.999C241.532 245.999 241.217 246.083 240.937 246.251C240.657 246.419 240.433 246.671 240.265 247.007C240.097 247.329 240.013 247.742 240.013 248.246C240.013 248.736 240.097 249.156 240.265 249.506C240.433 249.842 240.657 250.094 240.937 250.262C241.217 250.43 241.532 250.514 241.882 250.514ZM257.605 242.303C258.487 242.303 259.285 242.485 259.999 242.849C260.713 243.199 261.273 243.752 261.679 244.508C262.099 245.264 262.309 246.244 262.309 247.448V254H257.563V248.267C257.563 247.553 257.437 247.049 257.185 246.755C256.933 246.447 256.59 246.293 256.156 246.293C255.834 246.293 255.533 246.37 255.253 246.524C254.987 246.664 254.77 246.902 254.602 247.238C254.448 247.574 254.371 248.029 254.371 248.603V254H249.625V242.513H254.14V245.873L253.237 244.907C253.685 244.039 254.287 243.388 255.043 242.954C255.813 242.52 256.667 242.303 257.605 242.303ZM270.901 254V251.963L270.565 251.417V247.553C270.565 246.993 270.39 246.566 270.04 246.272C269.704 245.978 269.151 245.831 268.381 245.831C267.863 245.831 267.338 245.915 266.806 246.083C266.274 246.237 265.819 246.454 265.441 246.734L263.929 243.605C264.601 243.185 265.406 242.863 266.344 242.639C267.282 242.415 268.199 242.303 269.095 242.303C271.069 242.303 272.595 242.744 273.673 243.626C274.765 244.508 275.311 245.908 275.311 247.826V254H270.901ZM267.646 254.21C266.708 254.21 265.924 254.049 265.294 253.727C264.664 253.405 264.188 252.978 263.866 252.446C263.544 251.9 263.383 251.298 263.383 250.64C263.383 249.898 263.572 249.268 263.95 248.75C264.328 248.232 264.902 247.84 265.672 247.574C266.456 247.308 267.443 247.175 268.633 247.175H271.027V249.464H269.389C268.885 249.464 268.514 249.548 268.276 249.716C268.052 249.87 267.94 250.108 267.94 250.43C267.94 250.696 268.038 250.92 268.234 251.102C268.444 251.27 268.724 251.354 269.074 251.354C269.396 251.354 269.69 251.27 269.956 251.102C270.236 250.92 270.439 250.64 270.565 250.262L271.174 251.669C270.992 252.523 270.607 253.16 270.019 253.58C269.431 254 268.64 254.21 267.646 254.21ZM287.585 254L281.369 239.3H286.703L291.764 251.711H288.593L293.801 239.3H298.673L292.457 254H287.585ZM304.101 254.21C302.701 254.21 301.476 253.951 300.426 253.433C299.39 252.915 298.585 252.208 298.011 251.312C297.437 250.402 297.15 249.38 297.15 248.246C297.15 247.084 297.43 246.055 297.99 245.159C298.564 244.263 299.341 243.563 300.321 243.059C301.315 242.555 302.428 242.303 303.66 242.303C304.794 242.303 305.837 242.527 306.789 242.975C307.755 243.423 308.525 244.088 309.099 244.97C309.687 245.852 309.981 246.944 309.981 248.246C309.981 248.414 309.974 248.603 309.96 248.813C309.946 249.009 309.932 249.191 309.918 249.359H301.077V247.07H307.398L305.613 247.679C305.613 247.231 305.529 246.853 305.361 246.545C305.207 246.223 304.99 245.978 304.71 245.81C304.43 245.628 304.094 245.537 303.702 245.537C303.31 245.537 302.967 245.628 302.673 245.81C302.393 245.978 302.176 246.223 302.022 246.545C301.868 246.853 301.791 247.231 301.791 247.679V248.393C301.791 248.883 301.889 249.303 302.085 249.653C302.281 250.003 302.561 250.269 302.925 250.451C303.289 250.619 303.73 250.703 304.248 250.703C304.78 250.703 305.214 250.633 305.55 250.493C305.9 250.353 306.264 250.143 306.642 249.863L309.12 252.362C308.56 252.964 307.867 253.426 307.041 253.748C306.229 254.056 305.249 254.21 304.101 254.21ZM319.038 242.303C319.92 242.303 320.718 242.485 321.432 242.849C322.146 243.199 322.706 243.752 323.112 244.508C323.532 245.264 323.742 246.244 323.742 247.448V254H318.996V248.267C318.996 247.553 318.87 247.049 318.618 246.755C318.366 246.447 318.023 246.293 317.589 246.293C317.267 246.293 316.966 246.37 316.686 246.524C316.42 246.664 316.203 246.902 316.035 247.238C315.881 247.574 315.804 248.029 315.804 248.603V254H311.058V242.513H315.573V245.873L314.67 244.907C315.118 244.039 315.72 243.388 316.476 242.954C317.246 242.52 318.1 242.303 319.038 242.303ZM330.927 254.21C329.345 254.21 328.113 253.832 327.231 253.076C326.349 252.306 325.908 251.13 325.908 249.548V239.93H330.654V249.506C330.654 249.856 330.745 250.129 330.927 250.325C331.123 250.521 331.361 250.619 331.641 250.619C332.047 250.619 332.404 250.514 332.712 250.304L333.846 253.601C333.482 253.811 333.041 253.965 332.523 254.063C332.019 254.161 331.487 254.21 330.927 254.21ZM324.333 246.608V243.143H333.006V246.608H324.333ZM339.411 254.21C338.501 254.21 337.675 254.028 336.933 253.664C336.205 253.286 335.631 252.705 335.211 251.921C334.791 251.123 334.581 250.101 334.581 248.855V242.513H339.327V248.036C339.327 248.848 339.46 249.415 339.726 249.737C339.992 250.059 340.356 250.22 340.818 250.22C341.098 250.22 341.357 250.15 341.595 250.01C341.847 249.856 342.05 249.611 342.204 249.275C342.358 248.925 342.435 248.47 342.435 247.91V242.513H347.181V254H342.666V250.682L343.569 251.585C343.163 252.481 342.582 253.146 341.826 253.58C341.084 254 340.279 254.21 339.411 254.21ZM348.866 254V242.513H353.381V245.978L352.646 244.991C352.996 244.095 353.556 243.423 354.326 242.975C355.096 242.527 356.02 242.303 357.098 242.303V246.503C356.888 246.475 356.699 246.454 356.531 246.44C356.377 246.426 356.216 246.419 356.048 246.419C355.334 246.419 354.746 246.608 354.284 246.986C353.836 247.35 353.612 247.987 353.612 248.897V254H348.866ZM364.262 254.21C362.862 254.21 361.637 253.951 360.587 253.433C359.551 252.915 358.746 252.208 358.172 251.312C357.598 250.402 357.311 249.38 357.311 248.246C357.311 247.084 357.591 246.055 358.151 245.159C358.725 244.263 359.502 243.563 360.482 243.059C361.476 242.555 362.589 242.303 363.821 242.303C364.955 242.303 365.998 242.527 366.95 242.975C367.916 243.423 368.686 244.088 369.26 244.97C369.848 245.852 370.142 246.944 370.142 248.246C370.142 248.414 370.135 248.603 370.121 248.813C370.107 249.009 370.093 249.191 370.079 249.359H361.238V247.07H367.559L365.774 247.679C365.774 247.231 365.69 246.853 365.522 246.545C365.368 246.223 365.151 245.978 364.871 245.81C364.591 245.628 364.255 245.537 363.863 245.537C363.471 245.537 363.128 245.628 362.834 245.81C362.554 245.978 362.337 246.223 362.183 246.545C362.029 246.853 361.952 247.231 361.952 247.679V248.393C361.952 248.883 362.05 249.303 362.246 249.653C362.442 250.003 362.722 250.269 363.086 250.451C363.45 250.619 363.891 250.703 364.409 250.703C364.941 250.703 365.375 250.633 365.711 250.493C366.061 250.353 366.425 250.143 366.803 249.863L369.281 252.362C368.721 252.964 368.028 253.426 367.202 253.748C366.39 254.056 365.41 254.21 364.262 254.21ZM375.714 254.21C374.734 254.21 373.768 254.105 372.816 253.895C371.864 253.685 371.094 253.412 370.506 253.076L371.808 249.947C372.354 250.269 372.984 250.521 373.698 250.703C374.426 250.885 375.133 250.976 375.819 250.976C376.393 250.976 376.778 250.927 376.974 250.829C377.184 250.731 377.289 250.598 377.289 250.43C377.289 250.262 377.17 250.143 376.932 250.073C376.694 249.989 376.379 249.926 375.987 249.884C375.595 249.842 375.161 249.793 374.685 249.737C374.223 249.667 373.754 249.569 373.278 249.443C372.802 249.317 372.368 249.128 371.976 248.876C371.584 248.624 371.269 248.288 371.031 247.868C370.793 247.434 370.674 246.888 370.674 246.23C370.674 245.502 370.891 244.844 371.325 244.256C371.773 243.668 372.431 243.199 373.299 242.849C374.181 242.485 375.266 242.303 376.554 242.303C377.394 242.303 378.234 242.38 379.074 242.534C379.914 242.688 380.635 242.926 381.237 243.248L379.935 246.377C379.347 246.055 378.766 245.838 378.192 245.726C377.632 245.6 377.107 245.537 376.617 245.537C376.015 245.537 375.602 245.593 375.378 245.705C375.168 245.817 375.063 245.943 375.063 246.083C375.063 246.251 375.182 246.377 375.42 246.461C375.658 246.545 375.973 246.608 376.365 246.65C376.757 246.692 377.184 246.748 377.646 246.818C378.122 246.874 378.591 246.972 379.053 247.112C379.529 247.238 379.963 247.427 380.355 247.679C380.747 247.931 381.062 248.274 381.3 248.708C381.538 249.128 381.657 249.667 381.657 250.325C381.657 251.011 381.44 251.655 381.006 252.257C380.572 252.845 379.914 253.321 379.032 253.685C378.15 254.035 377.044 254.21 375.714 254.21ZM388.457 244.78L389.676 240.117L390.033 241.693C389.543 241.693 389.13 241.539 388.793 241.231C388.471 240.923 388.31 240.509 388.31 239.991C388.31 239.473 388.471 239.06 388.793 238.752C389.13 238.43 389.536 238.269 390.012 238.269C390.502 238.269 390.908 238.43 391.23 238.752C391.552 239.074 391.713 239.487 391.713 239.991C391.713 240.145 391.699 240.306 391.671 240.474C391.657 240.628 391.615 240.811 391.545 241.021C391.489 241.217 391.391 241.476 391.251 241.798L390.159 244.78H388.457ZM392.91 244.78L394.128 240.117L394.485 241.693C393.995 241.693 393.582 241.539 393.246 241.231C392.924 240.923 392.763 240.509 392.763 239.991C392.763 239.473 392.924 239.06 393.246 238.752C393.582 238.43 393.988 238.269 394.464 238.269C394.954 238.269 395.36 238.43 395.682 238.752C396.004 239.074 396.165 239.487 396.165 239.991C396.165 240.145 396.151 240.306 396.123 240.474C396.109 240.628 396.067 240.811 395.997 241.021C395.941 241.217 395.843 241.476 395.703 241.798L394.611 244.78H392.91Z" fill="white"/>
<path d="M284.228 258.021C291.815 240.467 293.711 236.078 293.711 236.078" stroke="#5E67A0" stroke-width="3"/>
</g>
<g filter="url(#filter1_d_369_906)">
<rect x="470.759" y="75.9316" width="36.7535" height="126.012" rx="18.3767" fill="white"/>
<rect x="471.756" y="76.9292" width="34.7583" height="124.017" rx="17.3791" stroke="url(#paint1_linear_369_906)" stroke-width="1.99519"/>
</g>
<path d="M483.88 97.1304V85.9153H494.633V97.1304H492.029V87.5325L492.638 88.1415H485.897L486.506 87.5325V97.1304H483.88ZM490.097 116.277C489.187 116.277 488.354 116.067 487.598 115.647C486.856 115.227 486.261 114.597 485.813 113.757C485.379 112.903 485.161 111.825 485.161 110.523C485.161 109.207 485.372 108.129 485.792 107.289C486.226 106.448 486.814 105.825 487.556 105.419C488.298 104.999 489.145 104.789 490.097 104.789C491.203 104.789 492.176 105.027 493.016 105.503C493.87 105.979 494.542 106.644 495.032 107.499C495.536 108.353 495.789 109.361 495.789 110.523C495.789 111.685 495.536 112.7 495.032 113.568C494.542 114.422 493.87 115.087 493.016 115.563C492.176 116.039 491.203 116.277 490.097 116.277ZM483.88 120.205V104.915H486.38V107.562L486.296 110.544L486.506 113.526V120.205H483.88ZM489.803 114.03C490.433 114.03 490.993 113.89 491.483 113.61C491.987 113.33 492.386 112.924 492.68 112.392C492.974 111.86 493.121 111.237 493.121 110.523C493.121 109.795 492.974 109.172 492.68 108.654C492.386 108.122 491.987 107.716 491.483 107.436C490.993 107.156 490.433 107.016 489.803 107.016C489.173 107.016 488.606 107.156 488.102 107.436C487.598 107.716 487.199 108.122 486.905 108.654C486.611 109.172 486.464 109.795 486.464 110.523C486.464 111.237 486.611 111.86 486.905 112.392C487.199 112.924 487.598 113.33 488.102 113.61C488.606 113.89 489.173 114.03 489.803 114.03ZM488.879 135.277C487.731 135.277 486.709 135.032 485.813 134.542C484.916 134.038 484.209 133.352 483.691 132.484C483.173 131.616 482.914 130.629 482.914 129.523C482.914 128.403 483.173 127.416 483.691 126.562C484.209 125.693 484.916 125.014 485.813 124.524C486.709 124.034 487.731 123.789 488.879 123.789C490.041 123.789 491.07 124.034 491.966 124.524C492.876 125.014 493.583 125.686 494.087 126.541C494.605 127.395 494.864 128.389 494.864 129.523C494.864 130.629 494.605 131.616 494.087 132.484C493.583 133.352 492.876 134.038 491.966 134.542C491.07 135.032 490.041 135.277 488.879 135.277ZM488.879 133.03C489.523 133.03 490.097 132.89 490.601 132.61C491.105 132.33 491.497 131.924 491.777 131.392C492.071 130.86 492.218 130.237 492.218 129.523C492.218 128.795 492.071 128.172 491.777 127.654C491.497 127.122 491.105 126.716 490.601 126.436C490.097 126.156 489.53 126.016 488.9 126.016C488.256 126.016 487.682 126.156 487.178 126.436C486.688 126.716 486.296 127.122 486.002 127.654C485.708 128.172 485.561 128.795 485.561 129.523C485.561 130.237 485.708 130.86 486.002 131.392C486.296 131.924 486.688 132.33 487.178 132.61C487.682 132.89 488.249 133.03 488.879 133.03ZM489.11 154.277C487.864 154.277 486.772 154.032 485.834 153.542C484.909 153.038 484.188 152.352 483.67 151.484C483.166 150.616 482.914 149.629 482.914 148.523C482.914 147.403 483.159 146.416 483.649 145.562C484.153 144.693 484.839 144.014 485.708 143.524C486.59 143.034 487.591 142.789 488.711 142.789C489.803 142.789 490.776 143.027 491.63 143.503C492.484 143.979 493.156 144.651 493.646 145.52C494.136 146.388 494.381 147.41 494.381 148.586C494.381 148.698 494.374 148.824 494.36 148.964C494.36 149.104 494.353 149.237 494.339 149.363H484.993V147.62H492.953L491.924 148.166C491.938 147.522 491.805 146.955 491.525 146.465C491.245 145.975 490.86 145.59 490.37 145.31C489.894 145.03 489.341 144.889 488.711 144.889C488.067 144.889 487.5 145.03 487.01 145.31C486.534 145.59 486.156 145.982 485.876 146.486C485.61 146.976 485.477 147.557 485.477 148.229V148.649C485.477 149.321 485.631 149.916 485.939 150.434C486.247 150.952 486.681 151.351 487.241 151.631C487.801 151.911 488.445 152.051 489.173 152.051C489.803 152.051 490.37 151.953 490.874 151.757C491.378 151.561 491.826 151.253 492.218 150.833L493.625 152.45C493.121 153.038 492.484 153.493 491.714 153.815C490.958 154.123 490.09 154.277 489.11 154.277ZM491.924 173.13L487.871 167.754L490.013 166.431L495.011 173.13H491.924ZM483.88 173.13V161.915H486.506V173.13H483.88ZM485.729 168.636V166.452H489.53V168.636H485.729ZM490.265 167.838L487.808 167.544L491.924 161.915H494.738L490.265 167.838Z" fill="#212121"/>
<path d="M487.259 191.647V182.028L487.869 182.658H483.311V180.432H493.812V182.658H489.276L489.885 182.028V191.647H487.259Z" fill="#212121"/>
<g filter="url(#filter2_d_369_906)">
<rect x="63.2701" y="3.42093" width="385.491" height="36.8585" rx="18.4292" fill="white" stroke="#212121" stroke-width="1.99519"/>
</g>
<path d="M150.751 29.7266L145.774 22.5649L147.979 21.1998L153.839 29.7266H150.751ZM141.027 29.7266V15.0252H143.716V29.7266H141.027ZM142.897 23.531V21.1788H147.853V23.531H142.897ZM148.231 22.6909L145.732 22.3549L150.751 15.0252H153.65L148.231 22.6909ZM161.902 29.8736C160.991 29.8736 160.158 29.6636 159.402 29.2435C158.66 28.8235 158.065 28.1934 157.617 27.3533C157.183 26.4993 156.966 25.4212 156.966 24.119C156.966 22.8029 157.176 21.7248 157.596 20.8847C158.03 20.0446 158.618 19.4216 159.36 19.0155C160.102 18.5955 160.949 18.3855 161.902 18.3855C163.008 18.3855 163.981 18.6235 164.821 19.0996C165.675 19.5756 166.347 20.2407 166.837 21.0947C167.341 21.9488 167.593 22.9569 167.593 24.119C167.593 25.2811 167.341 26.2962 166.837 27.1643C166.347 28.0184 165.675 28.6835 164.821 29.1595C163.981 29.6356 163.008 29.8736 161.902 29.8736ZM155.685 33.8009V18.5115H158.184V21.1578L158.1 24.14L158.31 27.1223V33.8009H155.685ZM161.608 27.6264C162.238 27.6264 162.798 27.4864 163.288 27.2063C163.792 26.9263 164.191 26.5203 164.485 25.9882C164.779 25.4562 164.926 24.8331 164.926 24.119C164.926 23.391 164.779 22.7679 164.485 22.2499C164.191 21.7178 163.792 21.3118 163.288 21.0317C162.798 20.7517 162.238 20.6117 161.608 20.6117C160.977 20.6117 160.41 20.7517 159.906 21.0317C159.402 21.3118 159.003 21.7178 158.709 22.2499C158.415 22.7679 158.268 23.391 158.268 24.119C158.268 24.8331 158.415 25.4562 158.709 25.9882C159.003 26.5203 159.402 26.9263 159.906 27.2063C160.41 27.4864 160.977 27.6264 161.608 27.6264ZM170.906 33.948C170.36 33.948 169.814 33.857 169.268 33.6749C168.722 33.4929 168.267 33.2409 167.903 32.9189L168.953 30.9867C169.219 31.2247 169.52 31.4137 169.856 31.5537C170.192 31.6937 170.535 31.7638 170.885 31.7638C171.361 31.7638 171.746 31.6447 172.04 31.4067C172.334 31.1687 172.608 30.7697 172.86 30.2096L173.511 28.7395L173.721 28.4244L177.963 18.5115H180.483L175.233 30.6296C174.883 31.4697 174.491 32.1348 174.057 32.6248C173.637 33.1149 173.161 33.4579 172.629 33.6539C172.11 33.85 171.536 33.948 170.906 33.948ZM173.217 30.1256L168.155 18.5115H170.885L175.002 28.1934L173.217 30.1256ZM182.307 29.7266V18.5115H193.06V29.7266H190.455V20.1287L191.064 20.7377H184.323L184.932 20.1287V29.7266H182.307ZM196.602 29.7266V18.5115H199.227V23.0689H204.877V18.5115H207.502V29.7266H204.877V25.2951H199.227V29.7266H196.602ZM222.34 29.7266V18.5115H224.966V29.7266H222.34ZM216.481 22.2079C217.923 22.2079 219.015 22.5299 219.757 23.1739C220.513 23.818 220.891 24.7281 220.891 25.9042C220.891 27.1223 220.471 28.0744 219.631 28.7605C218.805 29.4325 217.629 29.7616 216.103 29.7476L211.02 29.7266V18.5115H213.646V22.1868L216.481 22.2079ZM215.872 27.8154C216.642 27.8294 217.23 27.6684 217.636 27.3323C218.042 26.9963 218.245 26.5063 218.245 25.8622C218.245 25.2181 218.042 24.7561 217.636 24.4761C217.244 24.182 216.656 24.028 215.872 24.014L213.646 23.993V27.7944L215.872 27.8154ZM228.495 29.7266V18.5115H231.12V25.9042L237.315 18.5115H239.71V29.7266H237.084V22.3339L230.91 29.7266H228.495ZM233.934 17.1884C232.814 17.1884 231.953 16.9294 231.351 16.4113C230.749 15.8793 230.441 15.1092 230.427 14.1011H232.17C232.184 14.6051 232.338 15.0042 232.632 15.2982C232.94 15.5922 233.367 15.7392 233.913 15.7392C234.445 15.7392 234.865 15.5922 235.173 15.2982C235.495 15.0042 235.663 14.6051 235.677 14.1011H237.462C237.448 15.1092 237.133 15.8793 236.517 16.4113C235.915 16.9294 235.054 17.1884 233.934 17.1884ZM257.089 29.7266L253.036 24.3501L255.178 23.0269L260.176 29.7266H257.089ZM249.045 29.7266V18.5115H251.671V29.7266H249.045ZM250.894 25.2321V23.0479H254.695V25.2321H250.894ZM255.43 24.4341L252.973 24.14L257.089 18.5115H259.903L255.43 24.4341ZM266.657 29.8736C265.509 29.8736 264.487 29.6286 263.591 29.1385C262.695 28.6345 261.988 27.9484 261.47 27.0803C260.952 26.2122 260.693 25.2251 260.693 24.119C260.693 22.9989 260.952 22.0118 261.47 21.1578C261.988 20.2897 262.695 19.6106 263.591 19.1206C264.487 18.6305 265.509 18.3855 266.657 18.3855C267.819 18.3855 268.849 18.6305 269.745 19.1206C270.655 19.6106 271.362 20.2827 271.866 21.1368C272.384 21.9908 272.643 22.9849 272.643 24.119C272.643 25.2251 272.384 26.2122 271.866 27.0803C271.362 27.9484 270.655 28.6345 269.745 29.1385C268.849 29.6286 267.819 29.8736 266.657 29.8736ZM266.657 27.6264C267.301 27.6264 267.875 27.4864 268.38 27.2063C268.884 26.9263 269.276 26.5203 269.556 25.9882C269.85 25.4562 269.997 24.8331 269.997 24.119C269.997 23.391 269.85 22.7679 269.556 22.2499C269.276 21.7178 268.884 21.3118 268.38 21.0317C267.875 20.7517 267.308 20.6117 266.678 20.6117C266.034 20.6117 265.46 20.7517 264.956 21.0317C264.466 21.3118 264.074 21.7178 263.78 22.2499C263.486 22.7679 263.339 23.391 263.339 24.119C263.339 24.8331 263.486 25.4562 263.78 25.9882C264.074 26.5203 264.466 26.9263 264.956 27.2063C265.46 27.4864 266.027 27.6264 266.657 27.6264ZM275.236 29.7266V18.5115H277.862V23.0689H283.511V18.5115H286.136V29.7266H283.511V25.2951H277.862V29.7266H275.236ZM291.986 29.7266V20.1077L292.595 20.7377H288.038V18.5115H298.539V20.7377H294.002L294.611 20.1077V29.7266H291.986ZM306.659 29.8736C305.749 29.8736 304.916 29.6636 304.16 29.2435C303.418 28.8235 302.823 28.1934 302.375 27.3533C301.941 26.4993 301.724 25.4212 301.724 24.119C301.724 22.8029 301.934 21.7248 302.354 20.8847C302.788 20.0446 303.376 19.4216 304.118 19.0155C304.86 18.5955 305.707 18.3855 306.659 18.3855C307.766 18.3855 308.739 18.6235 309.579 19.0996C310.433 19.5756 311.105 20.2407 311.595 21.0947C312.099 21.9488 312.351 22.9569 312.351 24.119C312.351 25.2811 312.099 26.2962 311.595 27.1643C311.105 28.0184 310.433 28.6835 309.579 29.1595C308.739 29.6356 307.766 29.8736 306.659 29.8736ZM300.443 33.8009V18.5115H302.942V21.1578L302.858 24.14L303.068 27.1223V33.8009H300.443ZM306.365 27.6264C306.995 27.6264 307.555 27.4864 308.046 27.2063C308.55 26.9263 308.949 26.5203 309.243 25.9882C309.537 25.4562 309.684 24.8331 309.684 24.119C309.684 23.391 309.537 22.7679 309.243 22.2499C308.949 21.7178 308.55 21.3118 308.046 21.0317C307.555 20.7517 306.995 20.6117 306.365 20.6117C305.735 20.6117 305.168 20.7517 304.664 21.0317C304.16 21.3118 303.761 21.7178 303.467 22.2499C303.173 22.7679 303.026 23.391 303.026 24.119C303.026 24.8331 303.173 25.4562 303.467 25.9882C303.761 26.5203 304.16 26.9263 304.664 27.2063C305.168 27.4864 305.735 27.6264 306.365 27.6264ZM321.625 29.7266V27.4583L321.478 26.9753V23.0059C321.478 22.2359 321.247 21.6408 320.785 21.2208C320.323 20.7867 319.623 20.5697 318.685 20.5697C318.054 20.5697 317.431 20.6677 316.815 20.8637C316.213 21.0597 315.702 21.3328 315.282 21.6828L314.253 19.7716C314.855 19.3096 315.569 18.9665 316.395 18.7425C317.235 18.5045 318.103 18.3855 319 18.3855C320.624 18.3855 321.877 18.7775 322.759 19.5616C323.655 20.3317 324.103 21.5288 324.103 23.1529V29.7266H321.625ZM318.096 29.8736C317.256 29.8736 316.521 29.7336 315.891 29.4535C315.261 29.1595 314.771 28.7605 314.421 28.2564C314.085 27.7384 313.917 27.1573 313.917 26.5133C313.917 25.8832 314.064 25.3161 314.358 24.8121C314.666 24.3081 315.163 23.909 315.849 23.615C316.535 23.321 317.445 23.1739 318.58 23.1739H321.835V24.9171H318.769C317.872 24.9171 317.27 25.0641 316.962 25.3581C316.654 25.6382 316.5 25.9882 316.5 26.4082C316.5 26.8843 316.689 27.2623 317.067 27.5424C317.445 27.8224 317.97 27.9624 318.643 27.9624C319.287 27.9624 319.861 27.8154 320.365 27.5214C320.883 27.2273 321.254 26.7933 321.478 26.2192L321.919 27.7944C321.667 28.4524 321.212 28.9635 320.554 29.3275C319.91 29.6916 319.091 29.8736 318.096 29.8736ZM327.352 29.7266V18.5115H335.962V20.7377H329.368L329.977 20.1497V29.7266H327.352ZM342.61 29.8736C341.364 29.8736 340.272 29.6286 339.334 29.1385C338.41 28.6345 337.689 27.9484 337.171 27.0803C336.667 26.2122 336.415 25.2251 336.415 24.119C336.415 22.9989 336.66 22.0118 337.15 21.1578C337.654 20.2897 338.34 19.6106 339.208 19.1206C340.09 18.6305 341.091 18.3855 342.211 18.3855C343.303 18.3855 344.277 18.6235 345.131 19.0996C345.985 19.5756 346.657 20.2477 347.147 21.1157C347.637 21.9838 347.882 23.0059 347.882 24.182C347.882 24.294 347.875 24.4201 347.861 24.5601C347.861 24.7001 347.854 24.8331 347.84 24.9591H338.494V23.2159H346.454L345.425 23.762C345.439 23.1179 345.306 22.5509 345.026 22.0608C344.746 21.5708 344.361 21.1858 343.87 20.9057C343.394 20.6257 342.841 20.4857 342.211 20.4857C341.567 20.4857 341 20.6257 340.51 20.9057C340.034 21.1858 339.656 21.5778 339.376 22.0818C339.11 22.5719 338.977 23.1529 338.977 23.825V24.245C338.977 24.9171 339.131 25.5122 339.439 26.0302C339.747 26.5483 340.181 26.9473 340.741 27.2273C341.301 27.5074 341.945 27.6474 342.673 27.6474C343.303 27.6474 343.87 27.5494 344.375 27.3533C344.879 27.1573 345.327 26.8493 345.719 26.4293L347.126 28.0464C346.622 28.6345 345.985 29.0895 345.215 29.4115C344.459 29.7196 343.59 29.8736 342.61 29.8736ZM350.753 29.7266V18.5115H353.378V23.0689H359.028V18.5115H361.653V29.7266H359.028V25.2951H353.378V29.7266H350.753ZM367.503 29.7266V20.1077L368.112 20.7377H363.554V18.5115H374.055V20.7377H369.519L370.128 20.1077V29.7266H367.503Z" fill="#212121"/>
<path d="M454.071 28.3663C453.661 27.9562 453.661 27.2913 454.071 26.8812L460.754 20.1985C461.164 19.7884 461.829 19.7884 462.239 20.1985C462.649 20.6085 462.649 21.2734 462.239 21.6835L456.299 27.6238L462.239 33.564C462.649 33.9741 462.649 34.639 462.239 35.0491C461.829 35.4592 461.164 35.4592 460.754 35.0491L454.071 28.3663ZM454.814 26.5737H466.365V28.6739H454.814V26.5737ZM483.166 43.3753L483.166 71.7279L481.066 71.7279L481.066 43.3753L483.166 43.3753ZM466.365 26.5737C475.644 26.5737 483.166 34.096 483.166 43.3753L481.066 43.3753C481.066 35.2559 474.484 28.6739 466.365 28.6739V26.5737Z" fill="white"/>
<path d="M501.765 71.4261C501.355 71.8362 500.69 71.8362 500.28 71.4261L493.597 64.7433C493.187 64.3332 493.187 63.6683 493.597 63.2583C494.007 62.8482 494.672 62.8482 495.082 63.2583L501.022 69.1985L506.963 63.2583C507.373 62.8482 508.038 62.8482 508.448 63.2583C508.858 63.6683 508.858 64.3332 508.448 64.7433L501.765 71.4261ZM454.818 13.9782H485.271V16.0784H454.818V13.9782ZM502.073 30.7798V70.6836H499.972V30.7798H502.073ZM485.271 13.9782C494.55 13.9782 502.073 21.5005 502.073 30.7798H499.972C499.972 22.6605 493.39 16.0784 485.271 16.0784V13.9782Z" fill="white"/>
<g filter="url(#filter3_d_369_906)">
<path d="M457.103 8.03488L457.087 4.43098L454.962 4.44047L454.916 5.42358C454.906 5.72046 454.888 6.01177 454.861 6.29752C454.84 6.58324 454.799 6.84665 454.739 7.08775C454.684 7.32322 454.603 7.5168 454.498 7.66849C454.392 7.81457 454.255 7.89919 454.087 7.92235L453.49 7.8158C453.664 7.82063 453.806 7.75838 453.918 7.62907C454.029 7.49416 454.115 7.31176 454.176 7.08186C454.236 6.85197 454.28 6.59135 454.307 6.3C454.333 6.00305 454.354 5.70052 454.37 5.39242L454.422 3.92203L457.682 3.90747L457.7 8.03222L457.103 8.03488ZM453.312 9.40436L453.305 7.81663L458.388 7.79392L458.395 9.38165L457.832 9.38417L457.827 8.31728L453.87 8.33496L453.875 9.40185L453.312 9.40436Z" fill="white"/>
<path d="M461.971 8.31818C461.512 8.32349 461.107 8.23294 460.758 8.04655C460.409 7.85455 460.134 7.59168 459.934 7.25794C459.734 6.91859 459.632 6.53052 459.627 6.0937C459.621 5.65689 459.709 5.26941 459.89 4.93127C460.077 4.59306 460.331 4.32688 460.654 4.13272C460.982 3.9329 461.351 3.83063 461.759 3.8259C462.174 3.82112 462.542 3.91208 462.863 4.0988C463.19 4.27985 463.448 4.54012 463.637 4.87959C463.825 5.21347 463.922 5.60161 463.927 6.04402C463.928 6.07202 463.925 6.10286 463.92 6.13652C463.92 6.16452 463.921 6.19532 463.921 6.22892L460.082 6.27327L460.077 5.82806L463.597 5.7874L463.364 5.96652C463.36 5.64731 463.287 5.36531 463.144 5.12052C463.007 4.87007 462.819 4.6762 462.583 4.53891C462.346 4.40162 462.073 4.33476 461.765 4.33832C461.463 4.34181 461.192 4.41495 460.953 4.55774C460.714 4.70052 460.528 4.89869 460.397 5.15225C460.266 5.40581 460.202 5.695 460.205 6.01981L460.206 6.11221C460.21 6.44822 460.287 6.74418 460.435 7.00011C460.589 7.25037 460.799 7.44678 461.064 7.58935C461.334 7.72624 461.64 7.79272 461.982 7.78878C462.251 7.78567 462.499 7.73519 462.728 7.63734C462.962 7.53942 463.162 7.39148 463.327 7.19354L463.668 7.57607C463.475 7.81354 463.23 7.99559 462.935 8.12222C462.645 8.24879 462.324 8.31411 461.971 8.31818Z" fill="white"/>
<path d="M465.525 8.22994L465.453 3.82011L466.049 3.81036L466.081 5.75908L468.861 5.71364L468.83 3.76491L469.426 3.75516L469.498 8.16499L468.902 8.17474L468.87 6.22602L466.09 6.27146L466.121 8.22019L465.525 8.22994Z" fill="white"/>
<path d="M473.59 5.23596C474.144 5.233 474.566 5.34971 474.855 5.5861C475.15 5.8224 475.301 6.16734 475.308 6.62093C475.316 7.09132 475.164 7.45493 474.855 7.71176C474.551 7.96851 474.105 8.09863 473.516 8.10211L471.736 8.1212L471.667 3.71131L472.264 3.7021L472.288 5.23926L473.59 5.23596ZM473.476 7.64904C473.885 7.64832 474.191 7.56237 474.396 7.39118C474.606 7.21429 474.709 6.96066 474.704 6.63027C474.698 6.29987 474.591 6.06068 474.382 5.91268C474.172 5.75909 473.86 5.68269 473.445 5.68348L472.294 5.68445L472.325 7.65L473.476 7.64904Z" fill="white"/>
<path d="M476.974 8.0496L476.948 3.63927L480.073 3.62019L480.076 4.14103L477.396 4.15739L477.546 4.00525L477.571 8.04596L476.974 8.0496Z" fill="white"/>
<path d="M481.28 8.01789L481.385 3.60872L481.981 3.62288L481.898 7.12503L484.929 3.6929L485.458 3.70547L485.354 8.11464L484.757 8.10048L484.841 4.58994L481.818 8.03066L481.28 8.01789Z" fill="white"/>
<path d="M489.14 8.31124L489.886 3.96432L490.473 4.06517L489.881 7.51787L493.38 4.56375L493.901 4.65323L493.156 9.00015L492.568 8.8993L493.161 5.43833L489.67 8.40214L489.14 8.31124Z" fill="white"/>
<path d="M498.406 11.1396C498.077 10.9477 497.823 10.6991 497.645 10.3939C497.469 10.0839 497.384 9.73959 497.391 9.36104C497.406 8.98049 497.535 8.58221 497.777 8.16621C498.02 7.75021 498.302 7.44467 498.623 7.2496C498.948 7.04969 499.286 6.95238 499.64 6.95767C499.994 6.96296 500.337 7.06299 500.671 7.25775C501.034 7.46945 501.31 7.7408 501.499 8.0718C501.696 8.40078 501.791 8.7608 501.783 9.15184C501.778 9.53804 501.665 9.92221 501.442 10.3044C501.216 10.6913 500.936 10.9819 500.602 11.1762C500.268 11.3705 499.908 11.4652 499.522 11.4603C499.141 11.4582 498.769 11.3513 498.406 11.1396ZM495.639 11.3636L498.683 6.14663L499.177 6.43454L498.508 7.58096L498.013 8.31318L497.636 9.12464L496.154 11.6642L495.639 11.3636ZM498.636 10.6613C498.907 10.8194 499.184 10.9001 499.468 10.9033C499.754 10.9018 500.025 10.8264 500.28 10.6773C500.539 10.5233 500.754 10.2988 500.926 10.0037C501.099 9.70867 501.187 9.41319 501.191 9.11728C501.195 8.82138 501.127 8.54845 500.988 8.29849C500.848 8.04853 500.643 7.84451 500.372 7.68644C500.101 7.52838 499.82 7.44872 499.529 7.44747C499.243 7.44904 498.972 7.52438 498.717 7.67351C498.466 7.82545 498.254 8.04896 498.082 8.34403C497.91 8.6391 497.818 8.9356 497.806 9.23351C497.802 9.52941 497.87 9.80234 498.009 10.0523C498.156 10.3003 498.365 10.5033 498.636 10.6613Z" fill="white"/>
<path d="M503.293 14.881L503.953 14.1636L504.042 14.029L505.145 12.8292C505.399 12.5529 505.516 12.2686 505.496 11.9761C505.48 11.6874 505.319 11.4029 505.014 11.1224C504.804 10.9291 504.571 10.7803 504.317 10.6761C504.063 10.5718 503.817 10.5168 503.579 10.5109L503.683 10.0012C503.976 10.0126 504.273 10.0874 504.572 10.2254C504.875 10.3593 505.154 10.5437 505.41 10.7787C505.83 11.1653 506.057 11.568 506.091 11.9867C506.132 12.4051 505.958 12.8267 505.567 13.2514L503.714 15.2676L503.293 14.881ZM502.145 13.8829C501.902 13.6593 501.726 13.425 501.616 13.1798C501.515 12.9344 501.481 12.698 501.515 12.4706C501.553 12.2392 501.657 12.0306 501.828 11.8451C501.983 11.676 502.163 11.5595 502.366 11.4954C502.577 11.4311 502.812 11.441 503.069 11.5253C503.334 11.6093 503.621 11.7934 503.93 12.0777L505.05 13.1067L504.749 13.4345L503.641 12.4168C503.328 12.1288 503.058 11.9836 502.832 11.9812C502.61 11.9826 502.424 12.0658 502.272 12.2307C502.102 12.4162 502.037 12.631 502.079 12.875C502.121 13.119 502.272 13.3603 502.532 13.5991C502.779 13.8265 503.043 13.9661 503.322 14.0177C503.61 14.069 503.893 14.0254 504.173 13.8868L503.993 14.2808C503.714 14.4194 503.412 14.4579 503.089 14.3962C502.769 14.3383 502.455 14.1672 502.145 13.8829Z" fill="white"/>
<path d="M505.287 17.2363C505.116 16.9663 504.985 16.6747 504.894 16.3617C504.802 16.0486 504.771 15.7409 504.798 15.4386L505.278 15.3646C505.259 15.6282 505.289 15.9009 505.367 16.1826C505.45 16.4612 505.565 16.7166 505.711 16.9488C505.862 17.1779 506.022 17.3583 506.191 17.4901C506.361 17.6218 506.529 17.7006 506.698 17.7267C506.867 17.7527 507.02 17.7224 507.157 17.6358C507.356 17.5103 507.453 17.3232 507.449 17.0745C507.449 16.8228 507.351 16.5406 507.153 16.2279L506.75 15.5884L507.12 15.3554L507.501 15.9594C507.617 16.1442 507.744 16.2927 507.881 16.4049C508.018 16.5171 508.155 16.5828 508.293 16.6018C508.434 16.6256 508.566 16.5987 508.689 16.521C508.822 16.4373 508.905 16.3183 508.94 16.1638C508.978 16.014 508.97 15.8437 508.916 15.6527C508.862 15.4618 508.771 15.2645 508.642 15.0608C508.521 14.879 508.371 14.7051 508.194 14.539C508.021 14.3699 507.824 14.2196 507.602 14.0881L507.903 13.6995C508.154 13.8457 508.375 14.0075 508.566 14.1848C508.765 14.3639 508.934 14.5624 509.071 14.7803C509.269 15.0728 509.402 15.3629 509.471 15.6505C509.543 15.9429 509.548 16.208 509.486 16.4457C509.428 16.6804 509.295 16.8635 509.087 16.9949C508.902 17.1114 508.705 17.1561 508.496 17.1291C508.287 17.102 508.085 17.0176 507.89 16.8759C507.694 16.7342 507.521 16.5426 507.368 16.301L507.517 16.2372C507.786 16.6635 507.912 17.0474 507.895 17.3888C507.882 17.735 507.733 17.9977 507.449 18.1769C507.226 18.3173 506.983 18.3679 506.72 18.3286C506.462 18.2863 506.206 18.1694 505.953 17.9781C505.703 17.7915 505.481 17.5443 505.287 17.2363Z" fill="white"/>
<path d="M506.969 20.0898L511.202 18.8498L511.75 20.7202C511.89 21.1985 511.909 21.6015 511.806 21.9292C511.706 22.2622 511.478 22.4806 511.123 22.5846C510.779 22.6853 510.474 22.6316 510.209 22.4233C509.949 22.2135 509.756 21.8936 509.63 21.4637L509.833 21.5269C509.981 22.0321 509.995 22.4305 509.877 22.7221C509.758 23.0137 509.521 23.2115 509.166 23.3154C508.801 23.4225 508.477 23.3716 508.194 23.1627C507.918 22.9576 507.698 22.5755 507.534 22.0166L506.969 20.0898ZM507.584 20.5138L507.978 21.8601C508.084 22.2202 508.22 22.4751 508.386 22.6248C508.559 22.7783 508.775 22.8172 509.033 22.7416C509.291 22.666 509.455 22.5276 509.524 22.3264C509.594 22.1251 509.576 21.8444 509.47 21.4843L509.059 20.0816L507.584 20.5138ZM509.486 19.9564L509.86 21.2302C509.956 21.558 510.091 21.7898 510.265 21.9256C510.44 22.0668 510.646 22.1027 510.883 22.0334C511.119 21.9641 511.271 21.8235 511.337 21.6115C511.405 21.4049 511.391 21.1376 511.295 20.8098L510.922 19.536L509.486 19.9564Z" fill="white"/>
<path d="M508.187 24.6952L512.584 24.3544L512.63 24.949L509.138 25.2198L512.858 27.8889L512.899 28.4165L508.502 28.7574L508.456 28.1628L511.957 27.8914L508.229 25.2313L508.187 24.6952Z" fill="white"/>
<path d="M508.466 31.4584L512.513 31.5882L512.348 31.7342L512.407 29.9122L512.927 29.9289L512.801 33.8668L512.281 33.8501L512.339 32.0281L512.494 32.1843L508.447 32.0546L508.466 31.4584Z" fill="white"/>
<path d="M508.32 34.6858L512.714 35.0681L512.662 35.6623L509.172 35.3586L512.406 38.5999L512.36 39.1271L507.967 38.7448L508.018 38.1506L511.517 38.455L508.273 35.2214L508.32 34.6858Z" fill="white"/>
<path d="M507.559 42.9173C507.591 42.4592 507.714 42.0636 507.928 41.7305C508.148 41.3978 508.432 41.1454 508.781 40.9734C509.136 40.8017 509.531 40.7311 509.967 40.7617C510.402 40.7922 510.781 40.9114 511.104 41.1192C511.426 41.3327 511.67 41.608 511.838 41.9454C512.01 42.2887 512.082 42.6643 512.053 43.0721C512.024 43.4856 511.904 43.8448 511.691 44.15C511.484 44.4611 511.204 44.6969 510.85 44.8574C510.502 45.0183 510.107 45.0833 509.666 45.0523C509.638 45.0504 509.608 45.0454 509.574 45.0375C509.547 45.0356 509.516 45.0334 509.482 45.0311L509.751 41.2013L510.195 41.2324L509.949 44.7437L509.789 44.4967C510.108 44.5191 510.395 44.469 510.65 44.3465C510.911 44.2301 511.12 44.0594 511.276 43.8345C511.432 43.6097 511.521 43.3436 511.542 43.0363C511.563 42.7346 511.512 42.4588 511.39 42.2088C511.267 41.9587 511.084 41.7579 510.842 41.6062C510.6 41.4545 510.317 41.3673 509.993 41.3446L509.901 41.3381C509.566 41.3147 509.265 41.3665 508.997 41.4938C508.735 41.627 508.523 41.8198 508.359 42.0722C508.201 42.3306 508.109 42.6302 508.086 42.971C508.067 43.2392 508.097 43.4911 508.176 43.7268C508.254 43.9681 508.385 44.1794 508.569 44.3607L508.16 44.669C507.939 44.457 507.778 44.1986 507.676 43.8939C507.573 43.5948 507.534 43.2692 507.559 42.9173Z" fill="white"/>
</g>
<g filter="url(#filter4_d_369_906)">
<path d="M475.314 64.4821H470.506L470.696 64.3026V66.4674H470.077V61.7886H470.696V63.9534L470.506 63.7738H475.314V64.4821ZM475.364 58.8533C475.364 59.3587 475.251 59.8143 475.025 60.22C474.792 60.619 474.476 60.9349 474.077 61.1677C473.672 61.4005 473.21 61.5169 472.691 61.5169C472.165 61.5169 471.703 61.4005 471.304 61.1677C470.905 60.9349 470.593 60.619 470.366 60.22C470.14 59.821 470.027 59.3654 470.027 58.8533C470.027 58.3345 470.14 57.8757 470.366 57.4766C470.593 57.0709 470.905 56.755 471.304 56.5289C471.703 56.2961 472.165 56.1797 472.691 56.1797C473.21 56.1797 473.672 56.2961 474.077 56.5289C474.476 56.755 474.792 57.0709 475.025 57.4766C475.251 57.8823 475.364 58.3412 475.364 58.8533ZM474.736 58.8533C474.736 58.4742 474.653 58.1384 474.486 57.8457C474.314 57.5531 474.074 57.3236 473.768 57.1574C473.456 56.9845 473.096 56.898 472.691 56.898C472.278 56.898 471.919 56.9845 471.613 57.1574C471.307 57.3236 471.071 57.5531 470.905 57.8457C470.732 58.1384 470.646 58.4709 470.646 58.8433C470.646 59.2158 470.732 59.5483 470.905 59.8409C471.071 60.1335 471.307 60.3663 471.613 60.5392C471.919 60.7121 472.278 60.7986 472.691 60.7986C473.096 60.7986 473.456 60.7121 473.768 60.5392C474.074 60.3663 474.314 60.1335 474.486 59.8409C474.653 59.5483 474.736 59.2191 474.736 58.8533ZM475.314 50.8252L472.721 52.98L472.372 52.3915L475.314 49.9873V50.8252ZM475.314 54.666H470.077V53.9577H475.314V54.666ZM472.98 54.1771H472.372V52.4912H472.98V54.1771ZM472.771 52.3316L472.671 52.99L470.077 50.905V50.1369L472.771 52.3316ZM475.364 46.8099C475.364 47.3553 475.251 47.8341 475.025 48.2465C474.792 48.6588 474.476 48.9813 474.077 49.2141C473.672 49.4469 473.21 49.5633 472.691 49.5633C472.172 49.5633 471.713 49.4535 471.314 49.2341C470.915 49.0079 470.602 48.702 470.376 48.3163C470.144 47.9239 470.027 47.485 470.027 46.9995C470.027 46.5073 470.14 46.0717 470.366 45.6926C470.586 45.3069 470.898 45.0043 471.304 44.7848C471.703 44.5653 472.165 44.4556 472.691 44.4556C472.724 44.4556 472.761 44.4589 472.801 44.4656C472.834 44.4656 472.87 44.4656 472.91 44.4656V49.0246H472.382V44.8447L472.591 45.124C472.212 45.124 471.876 45.2071 471.583 45.3734C471.284 45.533 471.051 45.7525 470.885 46.0318C470.719 46.3111 470.636 46.6337 470.636 46.9995C470.636 47.3586 470.719 47.6811 470.885 47.9671C471.051 48.2531 471.284 48.4759 471.583 48.6355C471.883 48.7951 472.225 48.8749 472.611 48.8749H472.721C473.12 48.8749 473.472 48.7885 473.778 48.6156C474.077 48.436 474.314 48.1899 474.486 47.8773C474.653 47.5581 474.736 47.1957 474.736 46.79C474.736 46.4707 474.679 46.1748 474.566 45.9021C474.453 45.6228 474.28 45.3834 474.048 45.1838L474.506 44.7848C474.786 45.0176 474.999 45.3102 475.145 45.6627C475.291 46.0085 475.364 46.3909 475.364 46.8099ZM475.314 42.8877H470.077V42.1794H472.392V38.8774H470.077V38.1691H475.314V38.8774H473V42.1794H475.314V42.8877Z" fill="white"/>
</g>
<defs>
<filter id="filter0_d_369_906" x="58.0721" y="227.145" width="395.887" height="47.2546" filterUnits="userSpaceOnUse" color-interpolation-filters="sRGB">
<feFlood flood-opacity="0" result="BackgroundImageFix"/>
<feColorMatrix in="SourceAlpha" type="matrix" values="0 0 0 0 0 0 0 0 0 0 0 0 0 0 0 0 0 0 127 0" result="hardAlpha"/>
<feOffset dy="4.2004"/>
<feGaussianBlur stdDeviation="2.1002"/>
<feComposite in2="hardAlpha" operator="out"/>
<feColorMatrix type="matrix" values="0 0 0 0 0 0 0 0 0 0 0 0 0 0 0 0 0 0 0.25 0"/>
<feBlend mode="normal" in2="BackgroundImageFix" result="effect1_dropShadow_369_906"/>
<feBlend mode="normal" in="SourceGraphic" in2="effect1_dropShadow_369_906" result="shape"/>
</filter>
<filter id="filter1_d_369_906" x="466.558" y="75.9316" width="45.1547" height="134.413" filterUnits="userSpaceOnUse" color-interpolation-filters="sRGB">
<feFlood flood-opacity="0" result="BackgroundImageFix"/>
<feColorMatrix in="SourceAlpha" type="matrix" values="0 0 0 0 0 0 0 0 0 0 0 0 0 0 0 0 0 0 127 0" result="hardAlpha"/>
<feOffset dy="4.2004"/>
<feGaussianBlur stdDeviation="2.1002"/>
<feComposite in2="hardAlpha" operator="out"/>
<feColorMatrix type="matrix" values="0 0 0 0 0 0 0 0 0 0 0 0 0 0 0 0 0 0 0.25 0"/>
<feBlend mode="normal" in2="BackgroundImageFix" result="effect1_dropShadow_369_906"/>
<feBlend mode="normal" in="SourceGraphic" in2="effect1_dropShadow_369_906" result="shape"/>
</filter>
<filter id="filter2_d_369_906" x="58.0721" y="2.42334" width="395.887" height="47.2546" filterUnits="userSpaceOnUse" color-interpolation-filters="sRGB">
<feFlood flood-opacity="0" result="BackgroundImageFix"/>
<feColorMatrix in="SourceAlpha" type="matrix" values="0 0 0 0 0 0 0 0 0 0 0 0 0 0 0 0 0 0 127 0" result="hardAlpha"/>
<feOffset dy="4.2004"/>
<feGaussianBlur stdDeviation="2.1002"/>
<feComposite in2="hardAlpha" operator="out"/>
<feColorMatrix type="matrix" values="0 0 0 0 0 0 0 0 0 0 0 0 0 0 0 0 0 0 0.25 0"/>
<feBlend mode="normal" in2="BackgroundImageFix" result="effect1_dropShadow_369_906"/>
<feBlend mode="normal" in="SourceGraphic" in2="effect1_dropShadow_369_906" result="shape"/>
</filter>
<filter id="filter3_d_369_906" x="449.088" y="3.60864" width="68.0404" height="50.0011" filterUnits="userSpaceOnUse" color-interpolation-filters="sRGB">
<feFlood flood-opacity="0" result="BackgroundImageFix"/>
<feColorMatrix in="SourceAlpha" type="matrix" values="0 0 0 0 0 0 0 0 0 0 0 0 0 0 0 0 0 0 127 0" result="hardAlpha"/>
<feOffset dy="4.2004"/>
<feGaussianBlur stdDeviation="2.1002"/>
<feComposite in2="hardAlpha" operator="out"/>
<feColorMatrix type="matrix" values="0 0 0 0 0 0 0 0 0 0 0 0 0 0 0 0 0 0 0.25 0"/>
<feBlend mode="normal" in2="BackgroundImageFix" result="effect1_dropShadow_369_906"/>
<feBlend mode="normal" in="SourceGraphic" in2="effect1_dropShadow_369_906" result="shape"/>
</filter>
<filter id="filter4_d_369_906" x="465.827" y="38.1692" width="13.7377" height="36.6989" filterUnits="userSpaceOnUse" color-interpolation-filters="sRGB">
<feFlood flood-opacity="0" result="BackgroundImageFix"/>
<feColorMatrix in="SourceAlpha" type="matrix" values="0 0 0 0 0 0 0 0 0 0 0 0 0 0 0 0 0 0 127 0" result="hardAlpha"/>
<feOffset dy="4.2004"/>
<feGaussianBlur stdDeviation="2.1002"/>
<feComposite in2="hardAlpha" operator="out"/>
<feColorMatrix type="matrix" values="0 0 0 0 0 0 0 0 0 0 0 0 0 0 0 0 0 0 0.25 0"/>
<feBlend mode="normal" in2="BackgroundImageFix" result="effect1_dropShadow_369_906"/>
<feBlend mode="normal" in="SourceGraphic" in2="effect1_dropShadow_369_906" result="shape"/>
</filter>
<linearGradient id="paint0_linear_369_906" x1="62.2725" y1="246.572" x2="449.759" y2="246.572" gradientUnits="userSpaceOnUse">
<stop stop-color="#828DDB"/>
<stop offset="1" stop-color="#454B75"/>
</linearGradient>
<linearGradient id="paint1_linear_369_906" x1="470.759" y1="138.938" x2="507.512" y2="138.938" gradientUnits="userSpaceOnUse">
<stop stop-color="#828DDB"/>
<stop offset="1" stop-color="#454B75"/>
</linearGradient>
</defs>
</svg>
