<svg width="363" height="194" viewBox="0 0 363 194" fill="none" xmlns="http://www.w3.org/2000/svg">
<g filter="url(#filter0_d_473_419)">
<rect x="44" y="158" width="266" height="26.6721" rx="13.336" fill="url(#paint0_linear_473_419)"/>
<path d="M88.5843 177.229C87.7643 177.229 87.0093 177.094 86.3193 176.824C85.6293 176.554 85.0293 176.179 84.5193 175.699C84.0093 175.209 83.6143 174.639 83.3343 173.989C83.0543 173.329 82.9143 172.609 82.9143 171.829C82.9143 171.049 83.0543 170.334 83.3343 169.684C83.6143 169.024 84.0093 168.454 84.5193 167.974C85.0293 167.484 85.6293 167.104 86.3193 166.834C87.0093 166.564 87.7593 166.429 88.5693 166.429C89.3893 166.429 90.1393 166.564 90.8193 166.834C91.5093 167.104 92.1093 167.484 92.6193 167.974C93.1293 168.454 93.5243 169.024 93.8043 169.684C94.0843 170.334 94.2243 171.049 94.2243 171.829C94.2243 172.609 94.0843 173.329 93.8043 173.989C93.5243 174.649 93.1293 175.219 92.6193 175.699C92.1093 176.179 91.5093 176.554 90.8193 176.824C90.1393 177.094 89.3943 177.229 88.5843 177.229ZM88.5693 175.519C89.0993 175.519 89.5893 175.429 90.0393 175.249C90.4893 175.069 90.8793 174.814 91.2093 174.484C91.5393 174.144 91.7943 173.754 91.9743 173.314C92.1643 172.864 92.2593 172.369 92.2593 171.829C92.2593 171.289 92.1643 170.799 91.9743 170.359C91.7943 169.909 91.5393 169.519 91.2093 169.189C90.8793 168.849 90.4893 168.589 90.0393 168.409C89.5893 168.229 89.0993 168.139 88.5693 168.139C88.0393 168.139 87.5493 168.229 87.0993 168.409C86.6593 168.589 86.2693 168.849 85.9293 169.189C85.5993 169.519 85.3393 169.909 85.1493 170.359C84.9693 170.799 84.8793 171.289 84.8793 171.829C84.8793 172.359 84.9693 172.849 85.1493 173.299C85.3393 173.749 85.5993 174.144 85.9293 174.484C86.2593 174.814 86.6493 175.069 87.0993 175.249C87.5493 175.429 88.0393 175.519 88.5693 175.519ZM101.255 177.229C100.435 177.229 99.6802 177.094 98.9902 176.824C98.3002 176.554 97.7002 176.179 97.1902 175.699C96.6802 175.209 96.2852 174.639 96.0052 173.989C95.7252 173.329 95.5852 172.609 95.5852 171.829C95.5852 171.049 95.7252 170.334 96.0052 169.684C96.2852 169.024 96.6802 168.454 97.1902 167.974C97.7002 167.484 98.3002 167.104 98.9902 166.834C99.6802 166.564 100.43 166.429 101.24 166.429C102.06 166.429 102.81 166.564 103.49 166.834C104.18 167.104 104.78 167.484 105.29 167.974C105.8 168.454 106.195 169.024 106.475 169.684C106.755 170.334 106.895 171.049 106.895 171.829C106.895 172.609 106.755 173.329 106.475 173.989C106.195 174.649 105.8 175.219 105.29 175.699C104.78 176.179 104.18 176.554 103.49 176.824C102.81 177.094 102.065 177.229 101.255 177.229ZM101.24 175.519C101.77 175.519 102.26 175.429 102.71 175.249C103.16 175.069 103.55 174.814 103.88 174.484C104.21 174.144 104.465 173.754 104.645 173.314C104.835 172.864 104.93 172.369 104.93 171.829C104.93 171.289 104.835 170.799 104.645 170.359C104.465 169.909 104.21 169.519 103.88 169.189C103.55 168.849 103.16 168.589 102.71 168.409C102.26 168.229 101.77 168.139 101.24 168.139C100.71 168.139 100.22 168.229 99.7702 168.409C99.3302 168.589 98.9402 168.849 98.6002 169.189C98.2702 169.519 98.0102 169.909 97.8202 170.359C97.6402 170.799 97.5502 171.289 97.5502 171.829C97.5502 172.359 97.6402 172.849 97.8202 173.299C98.0102 173.749 98.2702 174.144 98.6002 174.484C98.9302 174.814 99.3202 175.069 99.7702 175.249C100.22 175.429 100.71 175.519 101.24 175.519ZM113.926 177.229C113.106 177.229 112.351 177.094 111.661 176.824C110.971 176.554 110.371 176.179 109.861 175.699C109.351 175.209 108.956 174.639 108.676 173.989C108.396 173.329 108.256 172.609 108.256 171.829C108.256 171.049 108.396 170.334 108.676 169.684C108.956 169.024 109.351 168.454 109.861 167.974C110.371 167.484 110.971 167.104 111.661 166.834C112.351 166.564 113.101 166.429 113.911 166.429C114.731 166.429 115.481 166.564 116.161 166.834C116.851 167.104 117.451 167.484 117.961 167.974C118.471 168.454 118.866 169.024 119.146 169.684C119.426 170.334 119.566 171.049 119.566 171.829C119.566 172.609 119.426 173.329 119.146 173.989C118.866 174.649 118.471 175.219 117.961 175.699C117.451 176.179 116.851 176.554 116.161 176.824C115.481 177.094 114.736 177.229 113.926 177.229ZM113.911 175.519C114.441 175.519 114.931 175.429 115.381 175.249C115.831 175.069 116.221 174.814 116.551 174.484C116.881 174.144 117.136 173.754 117.316 173.314C117.506 172.864 117.601 172.369 117.601 171.829C117.601 171.289 117.506 170.799 117.316 170.359C117.136 169.909 116.881 169.519 116.551 169.189C116.221 168.849 115.831 168.589 115.381 168.409C114.931 168.229 114.441 168.139 113.911 168.139C113.381 168.139 112.891 168.229 112.441 168.409C112.001 168.589 111.611 168.849 111.271 169.189C110.941 169.519 110.681 169.909 110.491 170.359C110.311 170.799 110.221 171.289 110.221 171.829C110.221 172.359 110.311 172.849 110.491 173.299C110.681 173.749 110.941 174.144 111.271 174.484C111.601 174.814 111.991 175.069 112.441 175.249C112.891 175.429 113.381 175.519 113.911 175.519ZM127.322 165.949L126.452 169.279L126.212 168.154C126.562 168.154 126.852 168.264 127.082 168.484C127.312 168.704 127.427 168.999 127.427 169.369C127.427 169.739 127.312 170.039 127.082 170.269C126.852 170.489 126.567 170.599 126.227 170.599C125.867 170.599 125.572 170.484 125.342 170.254C125.112 170.024 124.997 169.729 124.997 169.369C124.997 169.249 125.002 169.139 125.012 169.039C125.032 168.929 125.067 168.799 125.117 168.649C125.167 168.499 125.237 168.309 125.327 168.079L126.122 165.949H127.322ZM130.502 165.949L129.632 169.279L129.392 168.154C129.742 168.154 130.032 168.264 130.262 168.484C130.492 168.704 130.607 168.999 130.607 169.369C130.607 169.739 130.492 170.039 130.262 170.269C130.032 170.489 129.747 170.599 129.407 170.599C129.047 170.599 128.752 170.484 128.522 170.254C128.292 170.024 128.177 169.729 128.177 169.369C128.177 169.249 128.182 169.139 128.192 169.039C128.212 168.929 128.247 168.799 128.297 168.649C128.347 168.499 128.417 168.309 128.507 168.079L129.302 165.949H130.502ZM136.239 177.079V166.579H139.779V174.334H144.519V177.079H136.239ZM149.427 177.229C148.497 177.229 147.672 177.049 146.952 176.689C146.242 176.319 145.682 175.814 145.272 175.174C144.862 174.534 144.657 173.799 144.657 172.969C144.657 172.139 144.862 171.404 145.272 170.764C145.682 170.124 146.242 169.624 146.952 169.264C147.672 168.904 148.497 168.724 149.427 168.724C150.357 168.724 151.182 168.904 151.902 169.264C152.622 169.624 153.182 170.124 153.582 170.764C153.992 171.404 154.197 172.139 154.197 172.969C154.197 173.799 153.992 174.534 153.582 175.174C153.182 175.814 152.622 176.319 151.902 176.689C151.182 177.049 150.357 177.229 149.427 177.229ZM149.427 174.589C149.677 174.589 149.902 174.529 150.102 174.409C150.302 174.289 150.462 174.109 150.582 173.869C150.702 173.619 150.762 173.319 150.762 172.969C150.762 172.609 150.702 172.314 150.582 172.084C150.462 171.844 150.302 171.664 150.102 171.544C149.902 171.424 149.677 171.364 149.427 171.364C149.177 171.364 148.952 171.424 148.752 171.544C148.552 171.664 148.392 171.844 148.272 172.084C148.152 172.314 148.092 172.609 148.092 172.969C148.092 173.319 148.152 173.619 148.272 173.869C148.392 174.109 148.552 174.289 148.752 174.409C148.952 174.529 149.177 174.589 149.427 174.589ZM159.293 177.229C158.363 177.229 157.538 177.049 156.818 176.689C156.108 176.319 155.548 175.814 155.138 175.174C154.728 174.534 154.523 173.799 154.523 172.969C154.523 172.139 154.728 171.404 155.138 170.764C155.548 170.124 156.108 169.624 156.818 169.264C157.538 168.904 158.363 168.724 159.293 168.724C160.223 168.724 161.048 168.904 161.768 169.264C162.488 169.624 163.048 170.124 163.448 170.764C163.858 171.404 164.063 172.139 164.063 172.969C164.063 173.799 163.858 174.534 163.448 175.174C163.048 175.814 162.488 176.319 161.768 176.689C161.048 177.049 160.223 177.229 159.293 177.229ZM159.293 174.589C159.543 174.589 159.768 174.529 159.968 174.409C160.168 174.289 160.328 174.109 160.448 173.869C160.568 173.619 160.628 173.319 160.628 172.969C160.628 172.609 160.568 172.314 160.448 172.084C160.328 171.844 160.168 171.664 159.968 171.544C159.768 171.424 159.543 171.364 159.293 171.364C159.043 171.364 158.818 171.424 158.618 171.544C158.418 171.664 158.258 171.844 158.138 172.084C158.018 172.314 157.958 172.609 157.958 172.969C157.958 173.319 158.018 173.619 158.138 173.869C158.258 174.109 158.418 174.289 158.618 174.409C158.818 174.529 159.043 174.589 159.293 174.589ZM170.524 168.724C171.154 168.724 171.724 168.854 172.234 169.114C172.744 169.364 173.144 169.759 173.434 170.299C173.734 170.839 173.884 171.539 173.884 172.399V177.079H170.494V172.984C170.494 172.474 170.404 172.114 170.224 171.904C170.044 171.684 169.799 171.574 169.489 171.574C169.259 171.574 169.044 171.629 168.844 171.739C168.654 171.839 168.499 172.009 168.379 172.249C168.269 172.489 168.214 172.814 168.214 173.224V177.079H164.824V168.874H168.049V171.274L167.404 170.584C167.724 169.964 168.154 169.499 168.694 169.189C169.244 168.879 169.854 168.724 170.524 168.724ZM180.021 177.079V175.624L179.781 175.234V172.474C179.781 172.074 179.656 171.769 179.406 171.559C179.166 171.349 178.771 171.244 178.221 171.244C177.851 171.244 177.476 171.304 177.096 171.424C176.716 171.534 176.391 171.689 176.121 171.889L175.041 169.654C175.521 169.354 176.096 169.124 176.766 168.964C177.436 168.804 178.091 168.724 178.731 168.724C180.141 168.724 181.231 169.039 182.001 169.669C182.781 170.299 183.171 171.299 183.171 172.669V177.079H180.021ZM177.696 177.229C177.026 177.229 176.466 177.114 176.016 176.884C175.566 176.654 175.226 176.349 174.996 175.969C174.766 175.579 174.651 175.149 174.651 174.679C174.651 174.149 174.786 173.699 175.056 173.329C175.326 172.959 175.736 172.679 176.286 172.489C176.846 172.299 177.551 172.204 178.401 172.204H180.111V173.839H178.941C178.581 173.839 178.316 173.899 178.146 174.019C177.986 174.129 177.906 174.299 177.906 174.529C177.906 174.719 177.976 174.879 178.116 175.009C178.266 175.129 178.466 175.189 178.716 175.189C178.946 175.189 179.156 175.129 179.346 175.009C179.546 174.879 179.691 174.679 179.781 174.409L180.216 175.414C180.086 176.024 179.811 176.479 179.391 176.779C178.971 177.079 178.406 177.229 177.696 177.229ZM191.938 177.079L187.498 166.579H191.308L194.923 175.444H192.658L196.378 166.579H199.858L195.418 177.079H191.938ZM203.735 177.229C202.735 177.229 201.86 177.044 201.11 176.674C200.37 176.304 199.795 175.799 199.385 175.159C198.975 174.509 198.77 173.779 198.77 172.969C198.77 172.139 198.97 171.404 199.37 170.764C199.78 170.124 200.335 169.624 201.035 169.264C201.745 168.904 202.54 168.724 203.42 168.724C204.23 168.724 204.975 168.884 205.655 169.204C206.345 169.524 206.895 169.999 207.305 170.629C207.725 171.259 207.935 172.039 207.935 172.969C207.935 173.089 207.93 173.224 207.92 173.374C207.91 173.514 207.9 173.644 207.89 173.764H201.575V172.129H206.09L204.815 172.564C204.815 172.244 204.755 171.974 204.635 171.754C204.525 171.524 204.37 171.349 204.17 171.229C203.97 171.099 203.73 171.034 203.45 171.034C203.17 171.034 202.925 171.099 202.715 171.229C202.515 171.349 202.36 171.524 202.25 171.754C202.14 171.974 202.085 172.244 202.085 172.564V173.074C202.085 173.424 202.155 173.724 202.295 173.974C202.435 174.224 202.635 174.414 202.895 174.544C203.155 174.664 203.47 174.724 203.84 174.724C204.22 174.724 204.53 174.674 204.77 174.574C205.02 174.474 205.28 174.324 205.55 174.124L207.32 175.909C206.92 176.339 206.425 176.669 205.835 176.899C205.255 177.119 204.555 177.229 203.735 177.229ZM214.404 168.724C215.034 168.724 215.604 168.854 216.114 169.114C216.624 169.364 217.024 169.759 217.314 170.299C217.614 170.839 217.764 171.539 217.764 172.399V177.079H214.374V172.984C214.374 172.474 214.284 172.114 214.104 171.904C213.924 171.684 213.679 171.574 213.369 171.574C213.139 171.574 212.924 171.629 212.724 171.739C212.534 171.839 212.379 172.009 212.259 172.249C212.149 172.489 212.094 172.814 212.094 173.224V177.079H208.704V168.874H211.929V171.274L211.284 170.584C211.604 169.964 212.034 169.499 212.574 169.189C213.124 168.879 213.734 168.724 214.404 168.724ZM222.897 177.229C221.767 177.229 220.887 176.959 220.257 176.419C219.627 175.869 219.312 175.029 219.312 173.899V167.029H222.702V173.869C222.702 174.119 222.767 174.314 222.897 174.454C223.037 174.594 223.207 174.664 223.407 174.664C223.697 174.664 223.952 174.589 224.172 174.439L224.982 176.794C224.722 176.944 224.407 177.054 224.037 177.124C223.677 177.194 223.297 177.229 222.897 177.229ZM218.187 171.799V169.324H224.382V171.799H218.187ZM228.956 177.229C228.306 177.229 227.716 177.099 227.186 176.839C226.666 176.569 226.256 176.154 225.956 175.594C225.656 175.024 225.506 174.294 225.506 173.404V168.874H228.896V172.819C228.896 173.399 228.991 173.804 229.181 174.034C229.371 174.264 229.631 174.379 229.961 174.379C230.161 174.379 230.346 174.329 230.516 174.229C230.696 174.119 230.841 173.944 230.951 173.704C231.061 173.454 231.116 173.129 231.116 172.729V168.874H234.506V177.079H231.281V174.709L231.926 175.354C231.636 175.994 231.221 176.469 230.681 176.779C230.151 177.079 229.576 177.229 228.956 177.229ZM235.71 177.079V168.874H238.935V171.349L238.41 170.644C238.66 170.004 239.06 169.524 239.61 169.204C240.16 168.884 240.82 168.724 241.59 168.724V171.724C241.44 171.704 241.305 171.689 241.185 171.679C241.075 171.669 240.96 171.664 240.84 171.664C240.33 171.664 239.91 171.799 239.58 172.069C239.26 172.329 239.1 172.784 239.1 173.434V177.079H235.71ZM246.707 177.229C245.707 177.229 244.832 177.044 244.082 176.674C243.342 176.304 242.767 175.799 242.357 175.159C241.947 174.509 241.742 173.779 241.742 172.969C241.742 172.139 241.942 171.404 242.342 170.764C242.752 170.124 243.307 169.624 244.007 169.264C244.717 168.904 245.512 168.724 246.392 168.724C247.202 168.724 247.947 168.884 248.627 169.204C249.317 169.524 249.867 169.999 250.277 170.629C250.697 171.259 250.907 172.039 250.907 172.969C250.907 173.089 250.902 173.224 250.892 173.374C250.882 173.514 250.872 173.644 250.862 173.764H244.547V172.129H249.062L247.787 172.564C247.787 172.244 247.727 171.974 247.607 171.754C247.497 171.524 247.342 171.349 247.142 171.229C246.942 171.099 246.702 171.034 246.422 171.034C246.142 171.034 245.897 171.099 245.687 171.229C245.487 171.349 245.332 171.524 245.222 171.754C245.112 171.974 245.057 172.244 245.057 172.564V173.074C245.057 173.424 245.127 173.724 245.267 173.974C245.407 174.224 245.607 174.414 245.867 174.544C246.127 174.664 246.442 174.724 246.812 174.724C247.192 174.724 247.502 174.674 247.742 174.574C247.992 174.474 248.252 174.324 248.522 174.124L250.292 175.909C249.892 176.339 249.397 176.669 248.807 176.899C248.227 177.119 247.527 177.229 246.707 177.229ZM254.887 177.229C254.187 177.229 253.497 177.154 252.817 177.004C252.137 176.854 251.587 176.659 251.167 176.419L252.097 174.184C252.487 174.414 252.937 174.594 253.447 174.724C253.967 174.854 254.472 174.919 254.962 174.919C255.372 174.919 255.647 174.884 255.787 174.814C255.937 174.744 256.012 174.649 256.012 174.529C256.012 174.409 255.927 174.324 255.757 174.274C255.587 174.214 255.362 174.169 255.082 174.139C254.802 174.109 254.492 174.074 254.152 174.034C253.822 173.984 253.487 173.914 253.147 173.824C252.807 173.734 252.497 173.599 252.217 173.419C251.937 173.239 251.712 172.999 251.542 172.699C251.372 172.389 251.287 171.999 251.287 171.529C251.287 171.009 251.442 170.539 251.752 170.119C252.072 169.699 252.542 169.364 253.162 169.114C253.792 168.854 254.567 168.724 255.487 168.724C256.087 168.724 256.687 168.779 257.287 168.889C257.887 168.999 258.402 169.169 258.832 169.399L257.902 171.634C257.482 171.404 257.067 171.249 256.657 171.169C256.257 171.079 255.882 171.034 255.532 171.034C255.102 171.034 254.807 171.074 254.647 171.154C254.497 171.234 254.422 171.324 254.422 171.424C254.422 171.544 254.507 171.634 254.677 171.694C254.847 171.754 255.072 171.799 255.352 171.829C255.632 171.859 255.937 171.899 256.267 171.949C256.607 171.989 256.942 172.059 257.272 172.159C257.612 172.249 257.922 172.384 258.202 172.564C258.482 172.744 258.707 172.989 258.877 173.299C259.047 173.599 259.132 173.984 259.132 174.454C259.132 174.944 258.977 175.404 258.667 175.834C258.357 176.254 257.887 176.594 257.257 176.854C256.627 177.104 255.837 177.229 254.887 177.229ZM263.989 170.494L264.859 167.164L265.114 168.289C264.764 168.289 264.469 168.179 264.229 167.959C263.999 167.739 263.884 167.444 263.884 167.074C263.884 166.704 263.999 166.409 264.229 166.189C264.469 165.959 264.759 165.844 265.099 165.844C265.449 165.844 265.739 165.959 265.969 166.189C266.199 166.419 266.314 166.714 266.314 167.074C266.314 167.184 266.304 167.299 266.284 167.419C266.274 167.529 266.244 167.659 266.194 167.809C266.154 167.949 266.084 168.134 265.984 168.364L265.204 170.494H263.989ZM267.169 170.494L268.039 167.164L268.294 168.289C267.944 168.289 267.649 168.179 267.409 167.959C267.179 167.739 267.064 167.444 267.064 167.074C267.064 166.704 267.179 166.409 267.409 166.189C267.649 165.959 267.939 165.844 268.279 165.844C268.629 165.844 268.919 165.959 269.149 166.189C269.379 166.419 269.494 166.714 269.494 167.074C269.494 167.184 269.484 167.299 269.464 167.419C269.454 167.529 269.424 167.659 269.374 167.809C269.334 167.949 269.264 168.134 269.164 168.364L268.384 170.494H267.169Z" fill="white"/>
<path d="M189.837 179.196C195.266 167.127 196.623 164.11 196.623 164.11" stroke="#5E67A0" stroke-width="2"/>
</g>
<g filter="url(#filter1_d_473_419)">
<rect x="326.13" y="52.502" width="25.4121" height="87.1271" rx="12.706" fill="white"/>
<rect x="327.184" y="53.5559" width="23.3041" height="85.0191" rx="11.6521" stroke="url(#paint1_linear_473_419)" stroke-width="2.10794"/>
</g>
<path d="M335.242 67.4062V59.3962H342.922V67.4062H341.062V60.5512L341.497 60.9862H336.682L337.117 60.5512V67.4062H335.242ZM339.682 80.5113C339.032 80.5113 338.437 80.3612 337.897 80.0612C337.367 79.7612 336.942 79.3112 336.622 78.7112C336.312 78.1012 336.157 77.3312 336.157 76.4012C336.157 75.4612 336.307 74.6912 336.607 74.0912C336.917 73.4912 337.337 73.0462 337.867 72.7562C338.397 72.4562 339.002 72.3062 339.682 72.3062C340.472 72.3062 341.167 72.4762 341.767 72.8162C342.377 73.1562 342.857 73.6312 343.207 74.2412C343.567 74.8512 343.747 75.5712 343.747 76.4012C343.747 77.2312 343.567 77.9562 343.207 78.5762C342.857 79.1862 342.377 79.6612 341.767 80.0012C341.167 80.3412 340.472 80.5113 339.682 80.5113ZM335.242 83.3163V72.3962H337.027V74.2862L336.967 76.4162L337.117 78.5462V83.3163H335.242ZM339.472 78.9062C339.922 78.9062 340.322 78.8062 340.672 78.6062C341.032 78.4062 341.317 78.1162 341.527 77.7362C341.737 77.3562 341.842 76.9112 341.842 76.4012C341.842 75.8812 341.737 75.4362 341.527 75.0662C341.317 74.6862 341.032 74.3962 340.672 74.1962C340.322 73.9962 339.922 73.8962 339.472 73.8962C339.022 73.8962 338.617 73.9962 338.257 74.1962C337.897 74.3962 337.612 74.6862 337.402 75.0662C337.192 75.4362 337.087 75.8812 337.087 76.4012C337.087 76.9112 337.192 77.3562 337.402 77.7362C337.612 78.1162 337.897 78.4062 338.257 78.6062C338.617 78.8062 339.022 78.9062 339.472 78.9062ZM338.812 93.5113C337.992 93.5113 337.262 93.3362 336.622 92.9862C335.982 92.6262 335.477 92.1362 335.107 91.5162C334.737 90.8962 334.552 90.1912 334.552 89.4012C334.552 88.6012 334.737 87.8962 335.107 87.2862C335.477 86.6662 335.982 86.1812 336.622 85.8313C337.262 85.4812 337.992 85.3062 338.812 85.3062C339.642 85.3062 340.377 85.4812 341.017 85.8313C341.667 86.1812 342.172 86.6612 342.532 87.2712C342.902 87.8812 343.087 88.5912 343.087 89.4012C343.087 90.1912 342.902 90.8962 342.532 91.5162C342.172 92.1362 341.667 92.6262 341.017 92.9862C340.377 93.3362 339.642 93.5113 338.812 93.5113ZM338.812 91.9062C339.272 91.9062 339.682 91.8062 340.042 91.6062C340.402 91.4062 340.682 91.1162 340.882 90.7362C341.092 90.3562 341.197 89.9112 341.197 89.4012C341.197 88.8812 341.092 88.4362 340.882 88.0662C340.682 87.6862 340.402 87.3962 340.042 87.1962C339.682 86.9962 339.277 86.8962 338.827 86.8962C338.367 86.8962 337.957 86.9962 337.597 87.1962C337.247 87.3962 336.967 87.6862 336.757 88.0662C336.547 88.4362 336.442 88.8812 336.442 89.4012C336.442 89.9112 336.547 90.3562 336.757 90.7362C336.967 91.1162 337.247 91.4062 337.597 91.6062C337.957 91.8062 338.362 91.9062 338.812 91.9062ZM338.977 106.511C338.087 106.511 337.307 106.336 336.637 105.986C335.977 105.626 335.462 105.136 335.092 104.516C334.732 103.896 334.552 103.191 334.552 102.401C334.552 101.601 334.727 100.896 335.077 100.286C335.437 99.6662 335.927 99.1812 336.547 98.8313C337.177 98.4812 337.892 98.3062 338.692 98.3062C339.472 98.3062 340.167 98.4762 340.777 98.8162C341.387 99.1562 341.867 99.6362 342.217 100.256C342.567 100.876 342.742 101.606 342.742 102.446C342.742 102.526 342.737 102.616 342.727 102.716C342.727 102.816 342.722 102.911 342.712 103.001H336.037V101.756H341.722L340.987 102.146C340.997 101.686 340.902 101.281 340.702 100.931C340.502 100.581 340.227 100.306 339.877 100.106C339.537 99.9062 339.142 99.8062 338.692 99.8062C338.232 99.8062 337.827 99.9062 337.477 100.106C337.137 100.306 336.867 100.586 336.667 100.946C336.477 101.296 336.382 101.711 336.382 102.191V102.491C336.382 102.971 336.492 103.396 336.712 103.766C336.932 104.136 337.242 104.421 337.642 104.621C338.042 104.821 338.502 104.921 339.022 104.921C339.472 104.921 339.877 104.851 340.237 104.711C340.597 104.571 340.917 104.351 341.197 104.051L342.202 105.206C341.842 105.626 341.387 105.951 340.837 106.181C340.297 106.401 339.677 106.511 338.977 106.511ZM340.987 119.406L338.092 115.566L339.622 114.621L343.192 119.406H340.987ZM335.242 119.406V111.396H337.117V119.406H335.242ZM336.562 116.196V114.636H339.277V116.196H336.562ZM339.802 115.626L338.047 115.416L340.987 111.396H342.997L339.802 115.626Z" fill="#212121"/>
<path d="M337.87 132V124.672L338.334 125.152H334.862V123.456H342.862V125.152H339.406L339.87 124.672V132H337.87Z" fill="#212121"/>
<g filter="url(#filter2_d_473_419)">
<rect x="44.7464" y="2.73171" width="265.808" height="24.7562" rx="12.3781" fill="white" stroke="#212121" stroke-width="2.10794"/>
</g>
<path d="M102.454 20.0337L98.8989 14.9187L100.474 13.9437L104.659 20.0337H102.454ZM95.5089 20.0337V9.53369H97.4289V20.0337H95.5089ZM96.8439 15.6087V13.9287H100.384V15.6087H96.8439ZM100.654 15.0087L98.8689 14.7687L102.454 9.53369H104.524L100.654 15.0087ZM110.418 20.1387C109.768 20.1387 109.173 19.9887 108.633 19.6887C108.103 19.3887 107.678 18.9387 107.358 18.3387C107.048 17.7287 106.893 16.9587 106.893 16.0287C106.893 15.0887 107.043 14.3187 107.343 13.7187C107.653 13.1187 108.073 12.6737 108.603 12.3837C109.133 12.0837 109.738 11.9337 110.418 11.9337C111.208 11.9337 111.903 12.1037 112.503 12.4437C113.113 12.7837 113.593 13.2587 113.943 13.8687C114.303 14.4787 114.483 15.1987 114.483 16.0287C114.483 16.8587 114.303 17.5837 113.943 18.2037C113.593 18.8137 113.113 19.2887 112.503 19.6287C111.903 19.9687 111.208 20.1387 110.418 20.1387ZM105.978 22.9437V12.0237H107.763V13.9137L107.703 16.0437L107.853 18.1737V22.9437H105.978ZM110.208 18.5337C110.658 18.5337 111.058 18.4337 111.408 18.2337C111.768 18.0337 112.053 17.7437 112.263 17.3637C112.473 16.9837 112.578 16.5387 112.578 16.0287C112.578 15.5087 112.473 15.0637 112.263 14.6937C112.053 14.3137 111.768 14.0237 111.408 13.8237C111.058 13.6237 110.658 13.5237 110.208 13.5237C109.758 13.5237 109.353 13.6237 108.993 13.8237C108.633 14.0237 108.348 14.3137 108.138 14.6937C107.928 15.0637 107.823 15.5087 107.823 16.0287C107.823 16.5387 107.928 16.9837 108.138 17.3637C108.348 17.7437 108.633 18.0337 108.993 18.2337C109.353 18.4337 109.758 18.5337 110.208 18.5337ZM116.849 23.0487C116.459 23.0487 116.069 22.9837 115.679 22.8537C115.289 22.7237 114.964 22.5437 114.704 22.3137L115.454 20.9337C115.644 21.1037 115.859 21.2387 116.099 21.3387C116.339 21.4387 116.584 21.4887 116.834 21.4887C117.174 21.4887 117.449 21.4037 117.659 21.2337C117.869 21.0637 118.064 20.7787 118.244 20.3787L118.709 19.3287L118.859 19.1037L121.889 12.0237H123.689L119.939 20.6787C119.689 21.2787 119.409 21.7537 119.099 22.1037C118.799 22.4537 118.459 22.6987 118.079 22.8387C117.709 22.9787 117.299 23.0487 116.849 23.0487ZM118.499 20.3187L114.884 12.0237H116.834L119.774 18.9387L118.499 20.3187ZM124.991 20.0337V12.0237H132.671V20.0337H130.811V13.1787L131.246 13.6137H126.431L126.866 13.1787V20.0337H124.991ZM135.201 20.0337V12.0237H137.076V15.2787H141.111V12.0237H142.986V20.0337H141.111V16.8687H137.076V20.0337H135.201ZM153.584 20.0337V12.0237H155.459V20.0337H153.584ZM149.399 14.6637C150.429 14.6637 151.209 14.8937 151.739 15.3537C152.279 15.8137 152.549 16.4637 152.549 17.3037C152.549 18.1737 152.249 18.8537 151.649 19.3437C151.059 19.8237 150.219 20.0587 149.129 20.0487L145.499 20.0337V12.0237H147.374V14.6487L149.399 14.6637ZM148.964 18.6687C149.514 18.6787 149.934 18.5637 150.224 18.3237C150.514 18.0837 150.659 17.7337 150.659 17.2737C150.659 16.8137 150.514 16.4837 150.224 16.2837C149.944 16.0737 149.524 15.9637 148.964 15.9537L147.374 15.9387V18.6537L148.964 18.6687ZM157.98 20.0337V12.0237H159.855V17.3037L164.28 12.0237H165.99V20.0337H164.115V14.7537L159.705 20.0337H157.98ZM161.865 11.0787C161.065 11.0787 160.45 10.8937 160.02 10.5237C159.59 10.1437 159.37 9.59369 159.36 8.87369H160.605C160.615 9.23369 160.725 9.51869 160.935 9.72869C161.155 9.93869 161.46 10.0437 161.85 10.0437C162.23 10.0437 162.53 9.93869 162.75 9.72869C162.98 9.51869 163.1 9.23369 163.11 8.87369H164.385C164.375 9.59369 164.15 10.1437 163.71 10.5237C163.28 10.8937 162.665 11.0787 161.865 11.0787ZM178.402 20.0337L175.507 16.1937L177.037 15.2487L180.607 20.0337H178.402ZM172.657 20.0337V12.0237H174.532V20.0337H172.657ZM173.977 16.8237V15.2637H176.692V16.8237H173.977ZM177.217 16.2537L175.462 16.0437L178.402 12.0237H180.412L177.217 16.2537ZM185.236 20.1387C184.416 20.1387 183.686 19.9637 183.046 19.6137C182.406 19.2537 181.901 18.7637 181.531 18.1437C181.161 17.5237 180.976 16.8187 180.976 16.0287C180.976 15.2287 181.161 14.5237 181.531 13.9137C181.901 13.2937 182.406 12.8087 183.046 12.4587C183.686 12.1087 184.416 11.9337 185.236 11.9337C186.066 11.9337 186.801 12.1087 187.441 12.4587C188.091 12.8087 188.596 13.2887 188.956 13.8987C189.326 14.5087 189.511 15.2187 189.511 16.0287C189.511 16.8187 189.326 17.5237 188.956 18.1437C188.596 18.7637 188.091 19.2537 187.441 19.6137C186.801 19.9637 186.066 20.1387 185.236 20.1387ZM185.236 18.5337C185.696 18.5337 186.106 18.4337 186.466 18.2337C186.826 18.0337 187.106 17.7437 187.306 17.3637C187.516 16.9837 187.621 16.5387 187.621 16.0287C187.621 15.5087 187.516 15.0637 187.306 14.6937C187.106 14.3137 186.826 14.0237 186.466 13.8237C186.106 13.6237 185.701 13.5237 185.251 13.5237C184.791 13.5237 184.381 13.6237 184.021 13.8237C183.671 14.0237 183.391 14.3137 183.181 14.6937C182.971 15.0637 182.866 15.5087 182.866 16.0287C182.866 16.5387 182.971 16.9837 183.181 17.3637C183.391 17.7437 183.671 18.0337 184.021 18.2337C184.381 18.4337 184.786 18.5337 185.236 18.5337ZM191.363 20.0337V12.0237H193.238V15.2787H197.273V12.0237H199.148V20.0337H197.273V16.8687H193.238V20.0337H191.363ZM203.326 20.0337V13.1637L203.761 13.6137H200.506V12.0237H208.006V13.6137H204.766L205.201 13.1637V20.0337H203.326ZM213.806 20.1387C213.156 20.1387 212.561 19.9887 212.021 19.6887C211.491 19.3887 211.066 18.9387 210.746 18.3387C210.436 17.7287 210.281 16.9587 210.281 16.0287C210.281 15.0887 210.431 14.3187 210.731 13.7187C211.041 13.1187 211.461 12.6737 211.991 12.3837C212.521 12.0837 213.126 11.9337 213.806 11.9337C214.596 11.9337 215.291 12.1037 215.891 12.4437C216.501 12.7837 216.981 13.2587 217.331 13.8687C217.691 14.4787 217.871 15.1987 217.871 16.0287C217.871 16.8587 217.691 17.5837 217.331 18.2037C216.981 18.8137 216.501 19.2887 215.891 19.6287C215.291 19.9687 214.596 20.1387 213.806 20.1387ZM209.366 22.9437V12.0237H211.151V13.9137L211.091 16.0437L211.241 18.1737V22.9437H209.366ZM213.596 18.5337C214.046 18.5337 214.446 18.4337 214.796 18.2337C215.156 18.0337 215.441 17.7437 215.651 17.3637C215.861 16.9837 215.966 16.5387 215.966 16.0287C215.966 15.5087 215.861 15.0637 215.651 14.6937C215.441 14.3137 215.156 14.0237 214.796 13.8237C214.446 13.6237 214.046 13.5237 213.596 13.5237C213.146 13.5237 212.741 13.6237 212.381 13.8237C212.021 14.0237 211.736 14.3137 211.526 14.6937C211.316 15.0637 211.211 15.5087 211.211 16.0287C211.211 16.5387 211.316 16.9837 211.526 17.3637C211.736 17.7437 212.021 18.0337 212.381 18.2337C212.741 18.4337 213.146 18.5337 213.596 18.5337ZM224.495 20.0337V18.4137L224.39 18.0687V15.2337C224.39 14.6837 224.225 14.2587 223.895 13.9587C223.565 13.6487 223.065 13.4937 222.395 13.4937C221.945 13.4937 221.5 13.5637 221.06 13.7037C220.63 13.8437 220.265 14.0387 219.965 14.2887L219.23 12.9237C219.66 12.5937 220.17 12.3487 220.76 12.1887C221.36 12.0187 221.98 11.9337 222.62 11.9337C223.78 11.9337 224.675 12.2137 225.305 12.7737C225.945 13.3237 226.265 14.1787 226.265 15.3387V20.0337H224.495ZM221.975 20.1387C221.375 20.1387 220.85 20.0387 220.4 19.8387C219.95 19.6287 219.6 19.3437 219.35 18.9837C219.11 18.6137 218.99 18.1987 218.99 17.7387C218.99 17.2887 219.095 16.8837 219.305 16.5237C219.525 16.1637 219.88 15.8787 220.37 15.6687C220.86 15.4587 221.51 15.3537 222.32 15.3537H224.645V16.5987H222.455C221.815 16.5987 221.385 16.7037 221.165 16.9137C220.945 17.1137 220.835 17.3637 220.835 17.6637C220.835 18.0037 220.97 18.2737 221.24 18.4737C221.51 18.6737 221.885 18.7737 222.365 18.7737C222.825 18.7737 223.235 18.6687 223.595 18.4587C223.965 18.2487 224.23 17.9387 224.39 17.5287L224.705 18.6537C224.525 19.1237 224.2 19.4887 223.73 19.7487C223.27 20.0087 222.685 20.1387 221.975 20.1387ZM228.585 20.0337V12.0237H234.735V13.6137H230.025L230.46 13.1937V20.0337H228.585ZM239.483 20.1387C238.593 20.1387 237.813 19.9637 237.143 19.6137C236.483 19.2537 235.968 18.7637 235.598 18.1437C235.238 17.5237 235.058 16.8187 235.058 16.0287C235.058 15.2287 235.233 14.5237 235.583 13.9137C235.943 13.2937 236.433 12.8087 237.053 12.4587C237.683 12.1087 238.398 11.9337 239.198 11.9337C239.978 11.9337 240.673 12.1037 241.283 12.4437C241.893 12.7837 242.373 13.2637 242.723 13.8837C243.073 14.5037 243.248 15.2337 243.248 16.0737C243.248 16.1537 243.243 16.2437 243.233 16.3437C243.233 16.4437 243.228 16.5387 243.218 16.6287H236.543V15.3837H242.228L241.493 15.7737C241.503 15.3137 241.408 14.9087 241.208 14.5587C241.008 14.2087 240.733 13.9337 240.383 13.7337C240.043 13.5337 239.648 13.4337 239.198 13.4337C238.738 13.4337 238.333 13.5337 237.983 13.7337C237.643 13.9337 237.373 14.2137 237.173 14.5737C236.983 14.9237 236.888 15.3387 236.888 15.8187V16.1187C236.888 16.5987 236.998 17.0237 237.218 17.3937C237.438 17.7637 237.748 18.0487 238.148 18.2487C238.548 18.4487 239.008 18.5487 239.528 18.5487C239.978 18.5487 240.383 18.4787 240.743 18.3387C241.103 18.1987 241.423 17.9787 241.703 17.6787L242.708 18.8337C242.348 19.2537 241.893 19.5787 241.343 19.8087C240.803 20.0287 240.183 20.1387 239.483 20.1387ZM245.299 20.0337V12.0237H247.174V15.2787H251.209V12.0237H253.084V20.0337H251.209V16.8687H247.174V20.0337H245.299ZM257.262 20.0337V13.1637L257.697 13.6137H254.442V12.0237H261.942V13.6137H258.702L259.137 13.1637V20.0337H257.262Z" fill="#212121"/>
<path d="M314.575 19.6334C314.282 19.3405 314.282 18.8656 314.575 18.5727L319.348 13.7997C319.64 13.5068 320.115 13.5068 320.408 13.7997C320.701 14.0926 320.701 14.5675 320.408 14.8604L316.166 19.103L320.408 23.3457C320.701 23.6386 320.701 24.1134 320.408 24.4063C320.115 24.6992 319.64 24.6992 319.348 24.4063L314.575 19.6334ZM315.105 18.353H317.341V19.853H315.105V18.353ZM334.732 35.7447V49.5975H333.232V35.7447H334.732ZM317.341 18.353C326.946 18.353 334.732 26.1395 334.732 35.7447H333.232C333.232 26.968 326.117 19.853 317.341 19.853V18.353Z" fill="white"/>
<path d="M347.58 49.4021C347.287 49.695 346.812 49.695 346.519 49.4021L341.747 44.6291C341.454 44.3362 341.454 43.8613 341.747 43.5685C342.039 43.2756 342.514 43.2756 342.807 43.5685L347.05 47.8111L351.292 43.5685C351.585 43.2756 352.06 43.2756 352.353 43.5685C352.646 43.8613 352.646 44.3362 352.353 44.6291L347.58 49.4021ZM315.103 9.64062H330.408V11.1406H315.103V9.64062ZM347.8 27.0323V48.8718H346.3V27.0323H347.8ZM330.408 9.64062C340.013 9.64062 347.8 17.4271 347.8 27.0323H346.3C346.3 18.2556 339.185 11.1406 330.408 11.1406V9.64062Z" fill="white"/>
<g filter="url(#filter3_d_473_419)">
<path d="M317.023 6.01552L317.012 3.44154L315.494 3.44832L315.461 4.15048C315.454 4.36251 315.441 4.57057 315.422 4.77466C315.407 4.97873 315.378 5.16686 315.334 5.33906C315.295 5.50723 315.238 5.64549 315.162 5.75383C315.087 5.85817 314.989 5.91861 314.869 5.93514L314.443 5.85905C314.567 5.86249 314.668 5.81804 314.748 5.72568C314.828 5.62932 314.889 5.49905 314.932 5.33485C314.976 5.17066 315.007 4.98452 315.026 4.77643C315.045 4.56434 315.06 4.34827 315.071 4.12822L315.108 3.07804L317.436 3.06764L317.449 6.01361L317.023 6.01552ZM314.316 6.99363L314.311 5.85964L317.941 5.84342L317.946 6.9774L317.544 6.9792L317.54 6.21721L314.714 6.22984L314.718 6.99183L314.316 6.99363Z" fill="white"/>
<path d="M320.399 6.2199C320.071 6.22368 319.782 6.15902 319.532 6.02589C319.283 5.88876 319.086 5.70102 318.944 5.46265C318.801 5.22028 318.728 4.94311 318.724 4.63113C318.72 4.31915 318.783 4.04241 318.913 3.8009C319.046 3.55934 319.228 3.36923 319.458 3.23056C319.692 3.08784 319.956 3.0148 320.247 3.01143C320.543 3.00801 320.806 3.07298 321.036 3.20633C321.269 3.33565 321.453 3.52153 321.588 3.76399C321.723 4.00245 321.792 4.27967 321.796 4.59565C321.796 4.61565 321.794 4.63767 321.791 4.66171C321.791 4.68171 321.791 4.70371 321.791 4.72771L319.05 4.75938L319.046 4.4414L321.56 4.41236L321.393 4.54029C321.391 4.31231 321.338 4.1109 321.236 3.93607C321.138 3.75719 321.005 3.61872 320.835 3.52067C320.666 3.42262 320.472 3.37486 320.252 3.3774C320.036 3.3799 319.842 3.43213 319.671 3.53411C319.501 3.63609 319.368 3.77763 319.274 3.95873C319.18 4.13983 319.135 4.34637 319.138 4.57835L319.138 4.64435C319.141 4.88433 319.196 5.09572 319.302 5.2785C319.412 5.45724 319.561 5.59752 319.751 5.69935C319.944 5.79712 320.162 5.8446 320.406 5.84178C320.598 5.83956 320.776 5.80351 320.939 5.73362C321.106 5.66368 321.249 5.55803 321.367 5.41665L321.611 5.68986C321.472 5.85947 321.298 5.98949 321.087 6.07993C320.88 6.17033 320.651 6.21698 320.399 6.2199Z" fill="white"/>
<path d="M322.841 6.15824L322.789 3.00866L323.215 3.0017L323.238 4.39351L325.224 4.36105L325.201 2.96924L325.627 2.96227L325.678 6.11185L325.252 6.11882L325.23 4.727L323.244 4.75946L323.267 6.15128L322.841 6.15824Z" fill="white"/>
<path d="M328.487 4.02494C328.883 4.02283 329.184 4.10618 329.391 4.27502C329.601 4.44378 329.709 4.69015 329.714 5.01411C329.719 5.35007 329.611 5.60977 329.39 5.7932C329.173 5.97658 328.854 6.06951 328.434 6.07199L327.162 6.08563L327.114 2.93601L327.54 2.92943L327.557 4.0273L328.487 4.02494ZM328.405 5.7484C328.697 5.74789 328.916 5.68651 329.063 5.56423C329.213 5.4379 329.286 5.25675 329.282 5.02078C329.279 4.78481 329.202 4.61397 329.052 4.50827C328.903 4.39857 328.68 4.344 328.384 4.34457L327.562 4.34526L327.583 5.7491L328.405 5.7484Z" fill="white"/>
<path d="M330.808 6.03281L330.788 2.88287L333.02 2.86924L333.023 3.24124L331.109 3.25292L331.216 3.14426L331.234 6.03021L330.808 6.03281Z" fill="white"/>
<path d="M333.788 6.0127L333.862 2.86359L334.288 2.8737L334.229 5.375L336.394 2.92371L336.772 2.93269L336.697 6.0818L336.271 6.07168L336.33 3.56439L334.171 6.02182L333.788 6.0127Z" fill="white"/>
<path d="M339.198 6.21334L339.731 3.1087L340.15 3.18072L339.915 4.55268L341.873 4.88848L342.108 3.51652L342.528 3.58855L341.995 6.6932L341.575 6.62117L341.811 5.24921L339.853 4.91341L339.618 6.28537L339.198 6.21334Z" fill="white"/>
<path d="M344.57 7.59254L344.808 6.93851L344.83 6.82523L345.228 5.73143C345.32 5.47959 345.319 5.26002 345.226 5.07272C345.136 4.88678 344.952 4.7432 344.674 4.64196C344.482 4.57219 344.288 4.53778 344.092 4.53875C343.896 4.53972 343.718 4.57093 343.56 4.6324L343.488 4.26791C343.685 4.19484 343.901 4.16278 344.136 4.17173C344.372 4.17693 344.607 4.22194 344.84 4.30676C345.224 4.4463 345.484 4.64954 345.621 4.91649C345.763 5.18104 345.764 5.50689 345.623 5.89404L344.954 7.73208L344.57 7.59254ZM343.539 7.24929C343.318 7.16858 343.137 7.06241 342.998 6.9308C342.863 6.7968 342.776 6.65016 342.736 6.4909C342.698 6.32788 342.709 6.16179 342.771 5.99265C342.827 5.83854 342.913 5.71246 343.03 5.61442C343.152 5.51398 343.309 5.45627 343.502 5.44129C343.699 5.42392 343.939 5.46654 344.221 5.56914L345.242 5.94058L345.133 6.2394L344.124 5.87207C343.838 5.7681 343.62 5.74633 343.471 5.80678C343.325 5.86859 343.224 5.97467 343.17 6.12502C343.108 6.29417 343.125 6.45342 343.219 6.60279C343.314 6.75216 343.48 6.86994 343.716 6.95613C343.942 7.03821 344.154 7.05793 344.353 7.01527C344.556 6.97022 344.731 6.86365 344.878 6.69555L344.867 7.00466C344.721 7.17275 344.533 7.28086 344.302 7.32897C344.076 7.37846 343.821 7.3519 343.539 7.24929Z" fill="white"/>
<path d="M348.154 9.46637C347.919 9.32928 347.738 9.15175 347.611 8.93377C347.485 8.71234 347.425 8.46644 347.43 8.19608C347.44 7.92428 347.532 7.63982 347.705 7.34271C347.879 7.04559 348.08 6.82737 348.31 6.68805C348.541 6.54527 348.783 6.47577 349.036 6.47955C349.288 6.48333 349.534 6.55477 349.772 6.69387C350.031 6.84507 350.228 7.03887 350.364 7.27528C350.505 7.51024 350.572 7.76737 350.567 8.04666C350.563 8.32249 350.482 8.59688 350.323 8.86981C350.161 9.14619 349.961 9.35376 349.723 9.49251C349.485 9.63125 349.227 9.69888 348.952 9.69538C348.679 9.69391 348.413 9.61757 348.154 9.46637ZM346.178 9.62632L348.353 5.90029L348.705 6.10592L348.227 6.92471L347.873 7.44768L347.605 8.02724L346.546 9.84102L346.178 9.62632ZM348.319 9.12477C348.512 9.23766 348.71 9.29528 348.913 9.29761C349.117 9.29649 349.311 9.24267 349.493 9.13616C349.678 9.0262 349.832 8.86585 349.955 8.65511C350.078 8.44436 350.14 8.23332 350.143 8.02198C350.146 7.81064 350.098 7.61571 349.998 7.43718C349.899 7.25865 349.752 7.11294 349.559 7.00005C349.365 6.88715 349.165 6.83026 348.957 6.82937C348.752 6.83049 348.559 6.8843 348.376 6.99081C348.197 7.09933 348.046 7.25897 347.923 7.46971C347.8 7.68046 347.734 7.89222 347.726 8.10499C347.723 8.31633 347.772 8.51126 347.871 8.68979C347.976 8.86688 348.125 9.01187 348.319 9.12477Z" fill="white"/>
<path d="M351.49 12.033L351.961 11.5205L352.025 11.4244L352.812 10.5675C352.994 10.3702 353.077 10.1671 353.063 9.9582C353.051 9.75203 352.937 9.54879 352.719 9.34847C352.568 9.21041 352.403 9.10415 352.221 9.0297C352.04 8.95524 351.864 8.91592 351.694 8.91176L351.768 8.5477C351.978 8.55586 352.189 8.60923 352.403 8.70781C352.619 8.80345 352.819 8.93519 353.001 9.10302C353.302 9.37913 353.464 9.66673 353.488 9.9658C353.517 10.2646 353.393 10.5657 353.114 10.869L351.79 12.3091L351.49 12.033ZM350.67 11.3201C350.496 11.1604 350.37 10.993 350.292 10.8179C350.22 10.6426 350.196 10.4738 350.22 10.3114C350.247 10.1461 350.321 9.99716 350.443 9.86464C350.554 9.7439 350.682 9.66065 350.827 9.61491C350.978 9.56892 351.146 9.57603 351.329 9.63624C351.519 9.69622 351.724 9.82771 351.945 10.0307L352.744 10.7657L352.529 10.9998L351.738 10.273C351.515 10.0672 351.322 9.96353 351.161 9.96183C351.002 9.96284 350.869 10.0222 350.76 10.14C350.639 10.2726 350.593 10.4259 350.623 10.6002C350.653 10.7745 350.76 10.9469 350.946 11.1174C351.123 11.2798 351.311 11.3795 351.511 11.4164C351.716 11.453 351.918 11.4218 352.118 11.3228L351.99 11.6043C351.79 11.7033 351.575 11.7307 351.344 11.6867C351.115 11.6453 350.891 11.5231 350.67 11.3201Z" fill="white"/>
<path d="M352.776 13.5723C352.655 13.3794 352.561 13.1712 352.496 12.9476C352.43 12.724 352.408 12.5042 352.428 12.2883L352.77 12.2354C352.757 12.4237 352.778 12.6185 352.834 12.8196C352.893 13.0187 352.975 13.2011 353.079 13.3669C353.187 13.5306 353.302 13.6594 353.423 13.7535C353.543 13.8476 353.664 13.9039 353.784 13.9225C353.905 13.9411 354.014 13.9194 354.112 13.8576C354.254 13.768 354.324 13.6343 354.321 13.4567C354.321 13.2769 354.25 13.0754 354.11 12.8521L353.822 12.3953L354.085 12.2289L354.358 12.6603C354.441 12.7922 354.531 12.8983 354.629 12.9784C354.727 13.0586 354.825 13.1055 354.923 13.1191C355.024 13.1361 355.118 13.1168 355.206 13.0614C355.301 13.0016 355.361 12.9166 355.386 12.8062C355.413 12.6993 355.407 12.5776 355.369 12.4412C355.33 12.3049 355.265 12.1639 355.173 12.0184C355.086 11.8886 354.98 11.7644 354.853 11.6458C354.729 11.525 354.588 11.4176 354.43 11.3237L354.645 11.0462C354.824 11.1506 354.982 11.2662 355.119 11.3928C355.261 11.5207 355.381 11.6625 355.479 11.8182C355.62 12.027 355.716 12.2342 355.765 12.4397C355.816 12.6485 355.82 12.8378 355.775 13.0076C355.734 13.1752 355.64 13.306 355.491 13.3998C355.359 13.4831 355.218 13.515 355.069 13.4957C354.919 13.4763 354.775 13.4161 354.636 13.3149C354.496 13.2137 354.372 13.0768 354.263 12.9042L354.369 12.8587C354.561 13.1632 354.651 13.4373 354.64 13.6812C354.63 13.9284 354.524 14.116 354.321 14.2441C354.162 14.3443 353.988 14.3804 353.8 14.3524C353.616 14.3221 353.433 14.2387 353.252 14.1021C353.074 13.9688 352.915 13.7922 352.776 13.5723Z" fill="white"/>
<path d="M353.876 15.433L356.899 14.5474L357.291 15.8832C357.391 16.2249 357.404 16.5127 357.331 16.7467C357.259 16.9845 357.096 17.1406 356.843 17.2148C356.597 17.2868 356.38 17.2484 356.19 17.0997C356.005 16.9498 355.867 16.7213 355.777 16.4142L355.921 16.4594C356.027 16.8202 356.037 17.1048 355.953 17.3131C355.868 17.5213 355.699 17.6626 355.445 17.7368C355.184 17.8132 354.953 17.7769 354.751 17.6277C354.553 17.4812 354.396 17.2083 354.279 16.8091L353.876 15.433ZM354.315 15.7358L354.597 16.6974C354.672 16.9546 354.769 17.1366 354.888 17.2435C355.012 17.3531 355.166 17.381 355.35 17.327C355.534 17.273 355.651 17.1741 355.701 17.0304C355.751 16.8867 355.738 16.6862 355.662 16.429L355.369 15.4271L354.315 15.7358ZM355.674 15.3377L355.94 16.2475C356.009 16.4816 356.106 16.6472 356.23 16.7442C356.355 16.845 356.502 16.8706 356.671 16.8212C356.84 16.7717 356.948 16.6712 356.996 16.5198C357.044 16.3722 357.034 16.1814 356.965 15.9472L356.699 15.0374L355.674 15.3377Z" fill="white"/>
<path d="M354.711 18.5499L357.852 18.3064L357.885 18.7311L355.39 18.9245L358.048 20.8308L358.077 21.2077L354.936 21.4512L354.903 21.0265L357.404 20.8326L354.741 18.9327L354.711 18.5499Z" fill="white"/>
<path d="M354.898 23.2294L357.789 23.3221L357.671 23.4264L357.713 22.1251L358.085 22.137L357.994 24.9495L357.623 24.9376L357.664 23.6363L357.775 23.7479L354.884 23.6552L354.898 23.2294Z" fill="white"/>
<path d="M354.802 25.4376L357.94 25.7107L357.903 26.1351L355.411 25.9182L357.721 28.2331L357.688 28.6097L354.55 28.3367L354.587 27.9123L357.085 28.1297L354.769 25.8202L354.802 25.4376Z" fill="white"/>
<path d="M354.268 31.2124C354.291 30.8852 354.379 30.6027 354.532 30.3648C354.689 30.1272 354.892 29.9469 355.141 29.8241C355.394 29.7015 355.677 29.6511 355.988 29.6729C356.299 29.6947 356.57 29.7798 356.8 29.9282C357.03 30.0807 357.204 30.2774 357.324 30.5183C357.447 30.7635 357.498 31.0318 357.478 31.323C357.457 31.6183 357.371 31.8749 357.22 32.0929C357.072 32.3151 356.872 32.4835 356.619 32.5981C356.37 32.713 356.088 32.7594 355.773 32.7373C355.753 32.7359 355.731 32.7324 355.708 32.7267C355.688 32.7254 355.666 32.7238 355.642 32.7221L355.833 29.9868L356.151 30.0091L355.975 32.5169L355.861 32.3405C356.088 32.3565 356.293 32.3207 356.476 32.2332C356.662 32.1501 356.811 32.0282 356.923 31.8676C357.034 31.707 357.098 31.5169 357.113 31.2975C357.128 31.082 357.092 30.885 357.004 30.7064C356.916 30.5278 356.786 30.3844 356.613 30.276C356.44 30.1677 356.238 30.1054 356.007 30.0892L355.941 30.0846C355.701 30.0678 355.486 30.1049 355.296 30.1958C355.108 30.2909 354.956 30.4286 354.84 30.6089C354.726 30.7934 354.661 31.0074 354.644 31.2508C354.631 31.4424 354.652 31.6223 354.709 31.7906C354.765 31.963 354.858 32.1139 354.99 32.2434L354.698 32.4635C354.54 32.3121 354.424 32.1276 354.351 31.91C354.278 31.6963 354.25 31.4638 354.268 31.2124Z" fill="white"/>
</g>
<g filter="url(#filter4_d_473_419)">
<path d="M328.362 44.7613H325.47L325.584 44.6533V45.9553H325.212V43.1413H325.584V44.4433L325.47 44.3353H328.362V44.7613ZM328.392 41.3758C328.392 41.6798 328.324 41.9538 328.188 42.1978C328.048 42.4378 327.858 42.6278 327.618 42.7678C327.374 42.9078 327.096 42.9778 326.784 42.9778C326.468 42.9778 326.19 42.9078 325.95 42.7678C325.71 42.6278 325.522 42.4378 325.386 42.1978C325.25 41.9578 325.182 41.6838 325.182 41.3758C325.182 41.0638 325.25 40.7878 325.386 40.5478C325.522 40.3038 325.71 40.1138 325.95 39.9778C326.19 39.8378 326.468 39.7678 326.784 39.7678C327.096 39.7678 327.374 39.8378 327.618 39.9778C327.858 40.1138 328.048 40.3038 328.188 40.5478C328.324 40.7918 328.392 41.0678 328.392 41.3758ZM328.014 41.3758C328.014 41.1478 327.964 40.9458 327.864 40.7698C327.76 40.5938 327.616 40.4558 327.432 40.3558C327.244 40.2518 327.028 40.1998 326.784 40.1998C326.536 40.1998 326.32 40.2518 326.136 40.3558C325.952 40.4558 325.81 40.5938 325.71 40.7698C325.606 40.9458 325.554 41.1458 325.554 41.3698C325.554 41.5938 325.606 41.7938 325.71 41.9698C325.81 42.1458 325.952 42.2858 326.136 42.3898C326.32 42.4938 326.536 42.5458 326.784 42.5458C327.028 42.5458 327.244 42.4938 327.432 42.3898C327.616 42.2858 327.76 42.1458 327.864 41.9698C327.964 41.7938 328.014 41.5958 328.014 41.3758ZM328.362 36.5474L326.802 37.8434L326.592 37.4894L328.362 36.0434V36.5474ZM328.362 38.8574H325.212V38.4314H328.362V38.8574ZM326.958 38.5634H326.592V37.5494H326.958V38.5634ZM326.832 37.4534L326.772 37.8494L325.212 36.5954V36.1334L326.832 37.4534ZM328.392 34.1324C328.392 34.4604 328.324 34.7484 328.188 34.9964C328.048 35.2444 327.858 35.4384 327.618 35.5784C327.374 35.7184 327.096 35.7884 326.784 35.7884C326.472 35.7884 326.196 35.7224 325.956 35.5904C325.716 35.4544 325.528 35.2704 325.392 35.0384C325.252 34.8024 325.182 34.5384 325.182 34.2464C325.182 33.9504 325.25 33.6884 325.386 33.4604C325.518 33.2284 325.706 33.0464 325.95 32.9144C326.19 32.7824 326.468 32.7164 326.784 32.7164C326.804 32.7164 326.826 32.7184 326.85 32.7224C326.87 32.7224 326.892 32.7224 326.916 32.7224V35.4644H326.598V32.9504L326.724 33.1184C326.496 33.1184 326.294 33.1684 326.118 33.2684C325.938 33.3644 325.798 33.4964 325.698 33.6644C325.598 33.8324 325.548 34.0264 325.548 34.2464C325.548 34.4624 325.598 34.6564 325.698 34.8284C325.798 35.0004 325.938 35.1344 326.118 35.2304C326.298 35.3264 326.504 35.3744 326.736 35.3744H326.802C327.042 35.3744 327.254 35.3224 327.438 35.2184C327.618 35.1104 327.76 34.9624 327.864 34.7744C327.964 34.5824 328.014 34.3644 328.014 34.1204C328.014 33.9284 327.98 33.7504 327.912 33.5864C327.844 33.4184 327.74 33.2744 327.6 33.1544L327.876 32.9144C328.044 33.0544 328.172 33.2304 328.26 33.4424C328.348 33.6504 328.392 33.8804 328.392 34.1324ZM328.362 31.7734H325.212V31.3474H326.604V29.3614H325.212V28.9354H328.362V29.3614H326.97V31.3474H328.362V31.7734Z" fill="white"/>
</g>
<defs>
<filter id="filter0_d_473_419" x="39.7996" y="158" width="274.401" height="35.0727" filterUnits="userSpaceOnUse" color-interpolation-filters="sRGB">
<feFlood flood-opacity="0" result="BackgroundImageFix"/>
<feColorMatrix in="SourceAlpha" type="matrix" values="0 0 0 0 0 0 0 0 0 0 0 0 0 0 0 0 0 0 127 0" result="hardAlpha"/>
<feOffset dy="4.2004"/>
<feGaussianBlur stdDeviation="2.1002"/>
<feComposite in2="hardAlpha" operator="out"/>
<feColorMatrix type="matrix" values="0 0 0 0 0 0 0 0 0 0 0 0 0 0 0 0 0 0 0.25 0"/>
<feBlend mode="normal" in2="BackgroundImageFix" result="effect1_dropShadow_473_419"/>
<feBlend mode="normal" in="SourceGraphic" in2="effect1_dropShadow_473_419" result="shape"/>
</filter>
<filter id="filter1_d_473_419" x="321.692" y="52.502" width="34.2877" height="96.0025" filterUnits="userSpaceOnUse" color-interpolation-filters="sRGB">
<feFlood flood-opacity="0" result="BackgroundImageFix"/>
<feColorMatrix in="SourceAlpha" type="matrix" values="0 0 0 0 0 0 0 0 0 0 0 0 0 0 0 0 0 0 127 0" result="hardAlpha"/>
<feOffset dy="4.43778"/>
<feGaussianBlur stdDeviation="2.21889"/>
<feComposite in2="hardAlpha" operator="out"/>
<feColorMatrix type="matrix" values="0 0 0 0 0 0 0 0 0 0 0 0 0 0 0 0 0 0 0.25 0"/>
<feBlend mode="normal" in2="BackgroundImageFix" result="effect1_dropShadow_473_419"/>
<feBlend mode="normal" in="SourceGraphic" in2="effect1_dropShadow_473_419" result="shape"/>
</filter>
<filter id="filter2_d_473_419" x="39.2546" y="1.67773" width="276.792" height="35.7398" filterUnits="userSpaceOnUse" color-interpolation-filters="sRGB">
<feFlood flood-opacity="0" result="BackgroundImageFix"/>
<feColorMatrix in="SourceAlpha" type="matrix" values="0 0 0 0 0 0 0 0 0 0 0 0 0 0 0 0 0 0 127 0" result="hardAlpha"/>
<feOffset dy="4.43778"/>
<feGaussianBlur stdDeviation="2.21889"/>
<feComposite in2="hardAlpha" operator="out"/>
<feColorMatrix type="matrix" values="0 0 0 0 0 0 0 0 0 0 0 0 0 0 0 0 0 0 0.25 0"/>
<feBlend mode="normal" in2="BackgroundImageFix" result="effect1_dropShadow_473_419"/>
<feBlend mode="normal" in="SourceGraphic" in2="effect1_dropShadow_473_419" result="shape"/>
</filter>
<filter id="filter3_d_473_419" x="309.829" y="2.86377" width="52.7248" height="38.923" filterUnits="userSpaceOnUse" color-interpolation-filters="sRGB">
<feFlood flood-opacity="0" result="BackgroundImageFix"/>
<feColorMatrix in="SourceAlpha" type="matrix" values="0 0 0 0 0 0 0 0 0 0 0 0 0 0 0 0 0 0 127 0" result="hardAlpha"/>
<feOffset dy="4.46883"/>
<feGaussianBlur stdDeviation="2.23441"/>
<feComposite in2="hardAlpha" operator="out"/>
<feColorMatrix type="matrix" values="0 0 0 0 0 0 0 0 0 0 0 0 0 0 0 0 0 0 0.25 0"/>
<feBlend mode="normal" in2="BackgroundImageFix" result="effect1_dropShadow_473_419"/>
<feBlend mode="normal" in="SourceGraphic" in2="effect1_dropShadow_473_419" result="shape"/>
</filter>
<filter id="filter4_d_473_419" x="320.745" y="28.9355" width="12.0855" height="25.8951" filterUnits="userSpaceOnUse" color-interpolation-filters="sRGB">
<feFlood flood-opacity="0" result="BackgroundImageFix"/>
<feColorMatrix in="SourceAlpha" type="matrix" values="0 0 0 0 0 0 0 0 0 0 0 0 0 0 0 0 0 0 127 0" result="hardAlpha"/>
<feOffset dy="4.43778"/>
<feGaussianBlur stdDeviation="2.21889"/>
<feComposite in2="hardAlpha" operator="out"/>
<feColorMatrix type="matrix" values="0 0 0 0 0 0 0 0 0 0 0 0 0 0 0 0 0 0 0.25 0"/>
<feBlend mode="normal" in2="BackgroundImageFix" result="effect1_dropShadow_473_419"/>
<feBlend mode="normal" in="SourceGraphic" in2="effect1_dropShadow_473_419" result="shape"/>
</filter>
<linearGradient id="paint0_linear_473_419" x1="44" y1="171.336" x2="310" y2="171.336" gradientUnits="userSpaceOnUse">
<stop stop-color="#828DDB"/>
<stop offset="1" stop-color="#454B75"/>
</linearGradient>
<linearGradient id="paint1_linear_473_419" x1="326.13" y1="96.0655" x2="351.542" y2="96.0655" gradientUnits="userSpaceOnUse">
<stop stop-color="#828DDB"/>
<stop offset="1" stop-color="#454B75"/>
</linearGradient>
</defs>
</svg>
