<svg width="56" height="51" viewBox="0 0 56 51" fill="none" xmlns="http://www.w3.org/2000/svg">
<path d="M21.2 0.599991L12.4 37.6L10.8 29C14 29 16.6 30 18.6 32C20.6 33.8667 21.6 36.4 21.6 39.6C21.6 42.8 20.6 45.4 18.6 47.4C16.6 49.4 14.1333 50.4 11.2 50.4C8 50.4 5.4 49.4 3.4 47.4C1.53333 45.2667 0.600001 42.6667 0.600001 39.6C0.600001 38.4 0.666667 37.3333 0.8 36.4C0.933334 35.4667 1.2 34.3333 1.6 33C2 31.6667 2.53333 30.0667 3.2 28.2L11.6 0.599991H21.2ZM55.2 0.599991L46.4 37.6L44.8 29C48 29 50.6 30 52.6 32C54.6 33.8667 55.6 36.4 55.6 39.6C55.6 42.8 54.6 45.4 52.6 47.4C50.6 49.4 48.1333 50.4 45.2 50.4C42 50.4 39.4 49.4 37.4 47.4C35.5333 45.2667 34.6 42.6667 34.6 39.6C34.6 38.4 34.6667 37.3333 34.8 36.4C34.9333 35.4667 35.2 34.3333 35.6 33C36 31.6667 36.5333 30.0667 37.2 28.2L45.6 0.599991H55.2Z" fill="white"/>
</svg>
