<svg width="173" height="16" viewBox="0 0 173 16" fill="none" xmlns="http://www.w3.org/2000/svg">
<path d="M0.197 15V0.299999H5.153V11.157H11.789V15H0.197ZM18.6599 15.21C17.3579 15.21 16.2029 14.958 15.1949 14.454C14.2009 13.936 13.4169 13.229 12.8429 12.333C12.2689 11.437 11.9819 10.408 11.9819 9.246C11.9819 8.084 12.2689 7.055 12.8429 6.159C13.4169 5.263 14.2009 4.563 15.1949 4.059C16.2029 3.555 17.3579 3.303 18.6599 3.303C19.9619 3.303 21.1169 3.555 22.1249 4.059C23.1329 4.563 23.9169 5.263 24.4769 6.159C25.0509 7.055 25.3379 8.084 25.3379 9.246C25.3379 10.408 25.0509 11.437 24.4769 12.333C23.9169 13.229 23.1329 13.936 22.1249 14.454C21.1169 14.958 19.9619 15.21 18.6599 15.21ZM18.6599 11.514C19.0099 11.514 19.3249 11.43 19.6049 11.262C19.8849 11.094 20.1089 10.842 20.2769 10.506C20.4449 10.156 20.5289 9.736 20.5289 9.246C20.5289 8.742 20.4449 8.329 20.2769 8.007C20.1089 7.671 19.8849 7.419 19.6049 7.251C19.3249 7.083 19.0099 6.999 18.6599 6.999C18.3099 6.999 17.9949 7.083 17.7149 7.251C17.4349 7.419 17.2109 7.671 17.0429 8.007C16.8749 8.329 16.7909 8.742 16.7909 9.246C16.7909 9.736 16.8749 10.156 17.0429 10.506C17.2109 10.842 17.4349 11.094 17.7149 11.262C17.9949 11.43 18.3099 11.514 18.6599 11.514ZM32.4724 15.21C31.1704 15.21 30.0154 14.958 29.0074 14.454C28.0134 13.936 27.2294 13.229 26.6554 12.333C26.0814 11.437 25.7944 10.408 25.7944 9.246C25.7944 8.084 26.0814 7.055 26.6554 6.159C27.2294 5.263 28.0134 4.563 29.0074 4.059C30.0154 3.555 31.1704 3.303 32.4724 3.303C33.7744 3.303 34.9294 3.555 35.9374 4.059C36.9454 4.563 37.7294 5.263 38.2894 6.159C38.8634 7.055 39.1504 8.084 39.1504 9.246C39.1504 10.408 38.8634 11.437 38.2894 12.333C37.7294 13.229 36.9454 13.936 35.9374 14.454C34.9294 14.958 33.7744 15.21 32.4724 15.21ZM32.4724 11.514C32.8224 11.514 33.1374 11.43 33.4174 11.262C33.6974 11.094 33.9214 10.842 34.0894 10.506C34.2574 10.156 34.3414 9.736 34.3414 9.246C34.3414 8.742 34.2574 8.329 34.0894 8.007C33.9214 7.671 33.6974 7.419 33.4174 7.251C33.1374 7.083 32.8224 6.999 32.4724 6.999C32.1224 6.999 31.8074 7.083 31.5274 7.251C31.2474 7.419 31.0234 7.671 30.8554 8.007C30.6874 8.329 30.6034 8.742 30.6034 9.246C30.6034 9.736 30.6874 10.156 30.8554 10.506C31.0234 10.842 31.2474 11.094 31.5274 11.262C31.8074 11.43 32.1224 11.514 32.4724 11.514ZM48.1958 3.303C49.0778 3.303 49.8758 3.485 50.5898 3.849C51.3038 4.199 51.8638 4.752 52.2698 5.508C52.6898 6.264 52.8998 7.244 52.8998 8.448V15H48.1538V9.267C48.1538 8.553 48.0278 8.049 47.7758 7.755C47.5238 7.447 47.1808 7.293 46.7468 7.293C46.4248 7.293 46.1238 7.37 45.8438 7.524C45.5778 7.664 45.3608 7.902 45.1928 8.238C45.0388 8.574 44.9618 9.029 44.9618 9.603V15H40.2158V3.513H44.7308V6.873L43.8278 5.907C44.2758 5.039 44.8778 4.388 45.6338 3.954C46.4038 3.52 47.2578 3.303 48.1958 3.303ZM61.4919 15V12.963L61.1559 12.417V8.553C61.1559 7.993 60.9809 7.566 60.6309 7.272C60.2949 6.978 59.7419 6.831 58.9719 6.831C58.4539 6.831 57.9289 6.915 57.3969 7.083C56.8649 7.237 56.4099 7.454 56.0319 7.734L54.5199 4.605C55.1919 4.185 55.9969 3.863 56.9349 3.639C57.8729 3.415 58.7899 3.303 59.6859 3.303C61.6599 3.303 63.1859 3.744 64.2639 4.626C65.3559 5.508 65.9019 6.908 65.9019 8.826V15H61.4919ZM58.2369 15.21C57.2989 15.21 56.5149 15.049 55.8849 14.727C55.2549 14.405 54.7789 13.978 54.4569 13.446C54.1349 12.9 53.9739 12.298 53.9739 11.64C53.9739 10.898 54.1629 10.268 54.5409 9.75C54.9189 9.232 55.4929 8.84 56.2629 8.574C57.0469 8.308 58.0339 8.175 59.2239 8.175H61.6179V10.464H59.9799C59.4759 10.464 59.1049 10.548 58.8669 10.716C58.6429 10.87 58.5309 11.108 58.5309 11.43C58.5309 11.696 58.6289 11.92 58.8249 12.102C59.0349 12.27 59.3149 12.354 59.6649 12.354C59.9869 12.354 60.2809 12.27 60.5469 12.102C60.8269 11.92 61.0299 11.64 61.1559 11.262L61.7649 12.669C61.5829 13.523 61.1979 14.16 60.6099 14.58C60.0219 15 59.2309 15.21 58.2369 15.21ZM78.1759 15L71.9599 0.299999H77.2939L82.3549 12.711H79.1839L84.3919 0.299999H89.2639L83.0479 15H78.1759ZM94.6913 15.21C93.2913 15.21 92.0663 14.951 91.0163 14.433C89.9803 13.915 89.1753 13.208 88.6013 12.312C88.0273 11.402 87.7403 10.38 87.7403 9.246C87.7403 8.084 88.0203 7.055 88.5803 6.159C89.1543 5.263 89.9313 4.563 90.9113 4.059C91.9053 3.555 93.0183 3.303 94.2503 3.303C95.3843 3.303 96.4273 3.527 97.3793 3.975C98.3453 4.423 99.1153 5.088 99.6893 5.97C100.277 6.852 100.571 7.944 100.571 9.246C100.571 9.414 100.564 9.603 100.55 9.813C100.536 10.009 100.522 10.191 100.508 10.359H91.6673V8.07H97.9883L96.2033 8.679C96.2033 8.231 96.1193 7.853 95.9513 7.545C95.7973 7.223 95.5803 6.978 95.3003 6.81C95.0203 6.628 94.6843 6.537 94.2923 6.537C93.9003 6.537 93.5573 6.628 93.2633 6.81C92.9833 6.978 92.7663 7.223 92.6123 7.545C92.4583 7.853 92.3813 8.231 92.3813 8.679V9.393C92.3813 9.883 92.4793 10.303 92.6753 10.653C92.8713 11.003 93.1513 11.269 93.5153 11.451C93.8793 11.619 94.3203 11.703 94.8383 11.703C95.3703 11.703 95.8043 11.633 96.1403 11.493C96.4903 11.353 96.8543 11.143 97.2323 10.863L99.7103 13.362C99.1503 13.964 98.4573 14.426 97.6313 14.748C96.8193 15.056 95.8393 15.21 94.6913 15.21ZM109.629 3.303C110.511 3.303 111.309 3.485 112.023 3.849C112.737 4.199 113.297 4.752 113.703 5.508C114.123 6.264 114.333 7.244 114.333 8.448V15H109.587V9.267C109.587 8.553 109.461 8.049 109.209 7.755C108.957 7.447 108.614 7.293 108.18 7.293C107.858 7.293 107.557 7.37 107.277 7.524C107.011 7.664 106.794 7.902 106.626 8.238C106.472 8.574 106.395 9.029 106.395 9.603V15H101.649V3.513H106.164V6.873L105.261 5.907C105.709 5.039 106.311 4.388 107.067 3.954C107.837 3.52 108.691 3.303 109.629 3.303ZM121.518 15.21C119.936 15.21 118.704 14.832 117.822 14.076C116.94 13.306 116.499 12.13 116.499 10.548V0.93H121.245V10.506C121.245 10.856 121.336 11.129 121.518 11.325C121.714 11.521 121.952 11.619 122.232 11.619C122.638 11.619 122.995 11.514 123.303 11.304L124.437 14.601C124.073 14.811 123.632 14.965 123.114 15.063C122.61 15.161 122.078 15.21 121.518 15.21ZM114.924 7.608V4.143H123.597V7.608H114.924ZM130.001 15.21C129.091 15.21 128.265 15.028 127.523 14.664C126.795 14.286 126.221 13.705 125.801 12.921C125.381 12.123 125.171 11.101 125.171 9.855V3.513H129.917V9.036C129.917 9.848 130.05 10.415 130.316 10.737C130.582 11.059 130.946 11.22 131.408 11.22C131.688 11.22 131.947 11.15 132.185 11.01C132.437 10.856 132.64 10.611 132.794 10.275C132.948 9.925 133.025 9.47 133.025 8.91V3.513H137.771V15H133.256V11.682L134.159 12.585C133.753 13.481 133.172 14.146 132.416 14.58C131.674 15 130.869 15.21 130.001 15.21ZM139.456 15V3.513H143.971V6.978L143.236 5.991C143.586 5.095 144.146 4.423 144.916 3.975C145.686 3.527 146.61 3.303 147.688 3.303V7.503C147.478 7.475 147.289 7.454 147.121 7.44C146.967 7.426 146.806 7.419 146.638 7.419C145.924 7.419 145.336 7.608 144.874 7.986C144.426 8.35 144.202 8.987 144.202 9.897V15H139.456ZM154.853 15.21C153.453 15.21 152.228 14.951 151.178 14.433C150.142 13.915 149.337 13.208 148.763 12.312C148.189 11.402 147.902 10.38 147.902 9.246C147.902 8.084 148.182 7.055 148.742 6.159C149.316 5.263 150.093 4.563 151.073 4.059C152.067 3.555 153.18 3.303 154.412 3.303C155.546 3.303 156.589 3.527 157.541 3.975C158.507 4.423 159.277 5.088 159.851 5.97C160.439 6.852 160.733 7.944 160.733 9.246C160.733 9.414 160.726 9.603 160.712 9.813C160.698 10.009 160.684 10.191 160.67 10.359H151.829V8.07H158.15L156.365 8.679C156.365 8.231 156.281 7.853 156.113 7.545C155.959 7.223 155.742 6.978 155.462 6.81C155.182 6.628 154.846 6.537 154.454 6.537C154.062 6.537 153.719 6.628 153.425 6.81C153.145 6.978 152.928 7.223 152.774 7.545C152.62 7.853 152.543 8.231 152.543 8.679V9.393C152.543 9.883 152.641 10.303 152.837 10.653C153.033 11.003 153.313 11.269 153.677 11.451C154.041 11.619 154.482 11.703 155 11.703C155.532 11.703 155.966 11.633 156.302 11.493C156.652 11.353 157.016 11.143 157.394 10.863L159.872 13.362C159.312 13.964 158.619 14.426 157.793 14.748C156.981 15.056 156.001 15.21 154.853 15.21ZM166.305 15.21C165.325 15.21 164.359 15.105 163.407 14.895C162.455 14.685 161.685 14.412 161.097 14.076L162.399 10.947C162.945 11.269 163.575 11.521 164.289 11.703C165.017 11.885 165.724 11.976 166.41 11.976C166.984 11.976 167.369 11.927 167.565 11.829C167.775 11.731 167.88 11.598 167.88 11.43C167.88 11.262 167.761 11.143 167.523 11.073C167.285 10.989 166.97 10.926 166.578 10.884C166.186 10.842 165.752 10.793 165.276 10.737C164.814 10.667 164.345 10.569 163.869 10.443C163.393 10.317 162.959 10.128 162.567 9.876C162.175 9.624 161.86 9.288 161.622 8.868C161.384 8.434 161.265 7.888 161.265 7.23C161.265 6.502 161.482 5.844 161.916 5.256C162.364 4.668 163.022 4.199 163.89 3.849C164.772 3.485 165.857 3.303 167.145 3.303C167.985 3.303 168.825 3.38 169.665 3.534C170.505 3.688 171.226 3.926 171.828 4.248L170.526 7.377C169.938 7.055 169.357 6.838 168.783 6.726C168.223 6.6 167.698 6.537 167.208 6.537C166.606 6.537 166.193 6.593 165.969 6.705C165.759 6.817 165.654 6.943 165.654 7.083C165.654 7.251 165.773 7.377 166.011 7.461C166.249 7.545 166.564 7.608 166.956 7.65C167.348 7.692 167.775 7.748 168.237 7.818C168.713 7.874 169.182 7.972 169.644 8.112C170.12 8.238 170.554 8.427 170.946 8.679C171.338 8.931 171.653 9.274 171.891 9.708C172.129 10.128 172.248 10.667 172.248 11.325C172.248 12.011 172.031 12.655 171.597 13.257C171.163 13.845 170.505 14.321 169.623 14.685C168.741 15.035 167.635 15.21 166.305 15.21Z" fill="white"/>
</svg>
