<svg width="175" height="24" viewBox="0 0 175 24" fill="none" xmlns="http://www.w3.org/2000/svg">
<path d="M1.197 19V4.3H6.153V15.157H12.789V19H1.197ZM19.6599 19.21C18.3579 19.21 17.2029 18.958 16.1949 18.454C15.2009 17.936 14.4169 17.229 13.8429 16.333C13.2689 15.437 12.9819 14.408 12.9819 13.246C12.9819 12.084 13.2689 11.055 13.8429 10.159C14.4169 9.263 15.2009 8.563 16.1949 8.059C17.2029 7.555 18.3579 7.303 19.6599 7.303C20.9619 7.303 22.1169 7.555 23.1249 8.059C24.1329 8.563 24.9169 9.263 25.4769 10.159C26.0509 11.055 26.3379 12.084 26.3379 13.246C26.3379 14.408 26.0509 15.437 25.4769 16.333C24.9169 17.229 24.1329 17.936 23.1249 18.454C22.1169 18.958 20.9619 19.21 19.6599 19.21ZM19.6599 15.514C20.0099 15.514 20.3249 15.43 20.6049 15.262C20.8849 15.094 21.1089 14.842 21.2769 14.506C21.4449 14.156 21.5289 13.736 21.5289 13.246C21.5289 12.742 21.4449 12.329 21.2769 12.007C21.1089 11.671 20.8849 11.419 20.6049 11.251C20.3249 11.083 20.0099 10.999 19.6599 10.999C19.3099 10.999 18.9949 11.083 18.7149 11.251C18.4349 11.419 18.2109 11.671 18.0429 12.007C17.8749 12.329 17.7909 12.742 17.7909 13.246C17.7909 13.736 17.8749 14.156 18.0429 14.506C18.2109 14.842 18.4349 15.094 18.7149 15.262C18.9949 15.43 19.3099 15.514 19.6599 15.514ZM33.4724 19.21C32.1704 19.21 31.0154 18.958 30.0074 18.454C29.0134 17.936 28.2294 17.229 27.6554 16.333C27.0814 15.437 26.7944 14.408 26.7944 13.246C26.7944 12.084 27.0814 11.055 27.6554 10.159C28.2294 9.263 29.0134 8.563 30.0074 8.059C31.0154 7.555 32.1704 7.303 33.4724 7.303C34.7744 7.303 35.9294 7.555 36.9374 8.059C37.9454 8.563 38.7294 9.263 39.2894 10.159C39.8634 11.055 40.1504 12.084 40.1504 13.246C40.1504 14.408 39.8634 15.437 39.2894 16.333C38.7294 17.229 37.9454 17.936 36.9374 18.454C35.9294 18.958 34.7744 19.21 33.4724 19.21ZM33.4724 15.514C33.8224 15.514 34.1374 15.43 34.4174 15.262C34.6974 15.094 34.9214 14.842 35.0894 14.506C35.2574 14.156 35.3414 13.736 35.3414 13.246C35.3414 12.742 35.2574 12.329 35.0894 12.007C34.9214 11.671 34.6974 11.419 34.4174 11.251C34.1374 11.083 33.8224 10.999 33.4724 10.999C33.1224 10.999 32.8074 11.083 32.5274 11.251C32.2474 11.419 32.0234 11.671 31.8554 12.007C31.6874 12.329 31.6034 12.742 31.6034 13.246C31.6034 13.736 31.6874 14.156 31.8554 14.506C32.0234 14.842 32.2474 15.094 32.5274 15.262C32.8074 15.43 33.1224 15.514 33.4724 15.514ZM49.1958 7.303C50.0778 7.303 50.8758 7.485 51.5898 7.849C52.3038 8.199 52.8638 8.752 53.2698 9.508C53.6898 10.264 53.8998 11.244 53.8998 12.448V19H49.1538V13.267C49.1538 12.553 49.0278 12.049 48.7758 11.755C48.5238 11.447 48.1808 11.293 47.7468 11.293C47.4248 11.293 47.1238 11.37 46.8438 11.524C46.5778 11.664 46.3608 11.902 46.1928 12.238C46.0388 12.574 45.9618 13.029 45.9618 13.603V19H41.2158V7.513H45.7308V10.873L44.8278 9.907C45.2758 9.039 45.8778 8.388 46.6338 7.954C47.4038 7.52 48.2578 7.303 49.1958 7.303ZM62.4919 19V16.963L62.1559 16.417V12.553C62.1559 11.993 61.9809 11.566 61.6309 11.272C61.2949 10.978 60.7419 10.831 59.9719 10.831C59.4539 10.831 58.9289 10.915 58.3969 11.083C57.8649 11.237 57.4099 11.454 57.0319 11.734L55.5199 8.605C56.1919 8.185 56.9969 7.863 57.9349 7.639C58.8729 7.415 59.7899 7.303 60.6859 7.303C62.6599 7.303 64.1859 7.744 65.2639 8.626C66.3559 9.508 66.9019 10.908 66.9019 12.826V19H62.4919ZM59.2369 19.21C58.2989 19.21 57.5149 19.049 56.8849 18.727C56.2549 18.405 55.7789 17.978 55.4569 17.446C55.1349 16.9 54.9739 16.298 54.9739 15.64C54.9739 14.898 55.1629 14.268 55.5409 13.75C55.9189 13.232 56.4929 12.84 57.2629 12.574C58.0469 12.308 59.0339 12.175 60.2239 12.175H62.6179V14.464H60.9799C60.4759 14.464 60.1049 14.548 59.8669 14.716C59.6429 14.87 59.5309 15.108 59.5309 15.43C59.5309 15.696 59.6289 15.92 59.8249 16.102C60.0349 16.27 60.3149 16.354 60.6649 16.354C60.9869 16.354 61.2809 16.27 61.5469 16.102C61.8269 15.92 62.0299 15.64 62.1559 15.262L62.7649 16.669C62.5829 17.523 62.1979 18.16 61.6099 18.58C61.0219 19 60.2309 19.21 59.2369 19.21ZM79.1759 19L72.9599 4.3H78.2939L83.3549 16.711H80.1839L85.3919 4.3H90.2639L84.0479 19H79.1759ZM95.6913 19.21C94.2913 19.21 93.0663 18.951 92.0163 18.433C90.9803 17.915 90.1753 17.208 89.6013 16.312C89.0273 15.402 88.7403 14.38 88.7403 13.246C88.7403 12.084 89.0203 11.055 89.5803 10.159C90.1543 9.263 90.9313 8.563 91.9113 8.059C92.9053 7.555 94.0183 7.303 95.2503 7.303C96.3843 7.303 97.4273 7.527 98.3793 7.975C99.3453 8.423 100.115 9.088 100.689 9.97C101.277 10.852 101.571 11.944 101.571 13.246C101.571 13.414 101.564 13.603 101.55 13.813C101.536 14.009 101.522 14.191 101.508 14.359H92.6673V12.07H98.9883L97.2033 12.679C97.2033 12.231 97.1193 11.853 96.9513 11.545C96.7973 11.223 96.5803 10.978 96.3003 10.81C96.0203 10.628 95.6843 10.537 95.2923 10.537C94.9003 10.537 94.5573 10.628 94.2633 10.81C93.9833 10.978 93.7663 11.223 93.6123 11.545C93.4583 11.853 93.3813 12.231 93.3813 12.679V13.393C93.3813 13.883 93.4793 14.303 93.6753 14.653C93.8713 15.003 94.1513 15.269 94.5153 15.451C94.8793 15.619 95.3203 15.703 95.8383 15.703C96.3703 15.703 96.8043 15.633 97.1403 15.493C97.4903 15.353 97.8543 15.143 98.2323 14.863L100.71 17.362C100.15 17.964 99.4573 18.426 98.6313 18.748C97.8193 19.056 96.8393 19.21 95.6913 19.21ZM110.629 7.303C111.511 7.303 112.309 7.485 113.023 7.849C113.737 8.199 114.297 8.752 114.703 9.508C115.123 10.264 115.333 11.244 115.333 12.448V19H110.587V13.267C110.587 12.553 110.461 12.049 110.209 11.755C109.957 11.447 109.614 11.293 109.18 11.293C108.858 11.293 108.557 11.37 108.277 11.524C108.011 11.664 107.794 11.902 107.626 12.238C107.472 12.574 107.395 13.029 107.395 13.603V19H102.649V7.513H107.164V10.873L106.261 9.907C106.709 9.039 107.311 8.388 108.067 7.954C108.837 7.52 109.691 7.303 110.629 7.303ZM122.518 19.21C120.936 19.21 119.704 18.832 118.822 18.076C117.94 17.306 117.499 16.13 117.499 14.548V4.93H122.245V14.506C122.245 14.856 122.336 15.129 122.518 15.325C122.714 15.521 122.952 15.619 123.232 15.619C123.638 15.619 123.995 15.514 124.303 15.304L125.437 18.601C125.073 18.811 124.632 18.965 124.114 19.063C123.61 19.161 123.078 19.21 122.518 19.21ZM115.924 11.608V8.143H124.597V11.608H115.924ZM131.001 19.21C130.091 19.21 129.265 19.028 128.523 18.664C127.795 18.286 127.221 17.705 126.801 16.921C126.381 16.123 126.171 15.101 126.171 13.855V7.513H130.917V13.036C130.917 13.848 131.05 14.415 131.316 14.737C131.582 15.059 131.946 15.22 132.408 15.22C132.688 15.22 132.947 15.15 133.185 15.01C133.437 14.856 133.64 14.611 133.794 14.275C133.948 13.925 134.025 13.47 134.025 12.91V7.513H138.771V19H134.256V15.682L135.159 16.585C134.753 17.481 134.172 18.146 133.416 18.58C132.674 19 131.869 19.21 131.001 19.21ZM140.456 19V7.513H144.971V10.978L144.236 9.991C144.586 9.095 145.146 8.423 145.916 7.975C146.686 7.527 147.61 7.303 148.688 7.303V11.503C148.478 11.475 148.289 11.454 148.121 11.44C147.967 11.426 147.806 11.419 147.638 11.419C146.924 11.419 146.336 11.608 145.874 11.986C145.426 12.35 145.202 12.987 145.202 13.897V19H140.456ZM155.853 19.21C154.453 19.21 153.228 18.951 152.178 18.433C151.142 17.915 150.337 17.208 149.763 16.312C149.189 15.402 148.902 14.38 148.902 13.246C148.902 12.084 149.182 11.055 149.742 10.159C150.316 9.263 151.093 8.563 152.073 8.059C153.067 7.555 154.18 7.303 155.412 7.303C156.546 7.303 157.589 7.527 158.541 7.975C159.507 8.423 160.277 9.088 160.851 9.97C161.439 10.852 161.733 11.944 161.733 13.246C161.733 13.414 161.726 13.603 161.712 13.813C161.698 14.009 161.684 14.191 161.67 14.359H152.829V12.07H159.15L157.365 12.679C157.365 12.231 157.281 11.853 157.113 11.545C156.959 11.223 156.742 10.978 156.462 10.81C156.182 10.628 155.846 10.537 155.454 10.537C155.062 10.537 154.719 10.628 154.425 10.81C154.145 10.978 153.928 11.223 153.774 11.545C153.62 11.853 153.543 12.231 153.543 12.679V13.393C153.543 13.883 153.641 14.303 153.837 14.653C154.033 15.003 154.313 15.269 154.677 15.451C155.041 15.619 155.482 15.703 156 15.703C156.532 15.703 156.966 15.633 157.302 15.493C157.652 15.353 158.016 15.143 158.394 14.863L160.872 17.362C160.312 17.964 159.619 18.426 158.793 18.748C157.981 19.056 157.001 19.21 155.853 19.21ZM167.305 19.21C166.325 19.21 165.359 19.105 164.407 18.895C163.455 18.685 162.685 18.412 162.097 18.076L163.399 14.947C163.945 15.269 164.575 15.521 165.289 15.703C166.017 15.885 166.724 15.976 167.41 15.976C167.984 15.976 168.369 15.927 168.565 15.829C168.775 15.731 168.88 15.598 168.88 15.43C168.88 15.262 168.761 15.143 168.523 15.073C168.285 14.989 167.97 14.926 167.578 14.884C167.186 14.842 166.752 14.793 166.276 14.737C165.814 14.667 165.345 14.569 164.869 14.443C164.393 14.317 163.959 14.128 163.567 13.876C163.175 13.624 162.86 13.288 162.622 12.868C162.384 12.434 162.265 11.888 162.265 11.23C162.265 10.502 162.482 9.844 162.916 9.256C163.364 8.668 164.022 8.199 164.89 7.849C165.772 7.485 166.857 7.303 168.145 7.303C168.985 7.303 169.825 7.38 170.665 7.534C171.505 7.688 172.226 7.926 172.828 8.248L171.526 11.377C170.938 11.055 170.357 10.838 169.783 10.726C169.223 10.6 168.698 10.537 168.208 10.537C167.606 10.537 167.193 10.593 166.969 10.705C166.759 10.817 166.654 10.943 166.654 11.083C166.654 11.251 166.773 11.377 167.011 11.461C167.249 11.545 167.564 11.608 167.956 11.65C168.348 11.692 168.775 11.748 169.237 11.818C169.713 11.874 170.182 11.972 170.644 12.112C171.12 12.238 171.554 12.427 171.946 12.679C172.338 12.931 172.653 13.274 172.891 13.708C173.129 14.128 173.248 14.667 173.248 15.325C173.248 16.011 173.031 16.655 172.597 17.257C172.163 17.845 171.505 18.321 170.623 18.685C169.741 19.035 168.635 19.21 167.305 19.21Z" fill="white"/>
<path d="M75.8279 23.0213C83.4144 5.46687 85.311 1.07826 85.311 1.07826" stroke="#6D57B1" stroke-width="3"/>
</svg>
